<svg width="312" height="233" viewBox="0 0 312 233" fill="none" xmlns="http://www.w3.org/2000/svg">
<g clip-path="url(#clip0_604_2276)">
<path d="M312 204.761H0V204.917H312V204.761Z" fill="#EBEBEB"/>
<path d="M280.738 214.822H260.071V214.978H280.738V214.822Z" fill="#EBEBEB"/>
<path d="M206.681 216.523H201.259V216.679H206.681V216.523Z" fill="#EBEBEB"/>
<path d="M259.447 209.019H247.472V209.175H259.447V209.019Z" fill="#EBEBEB"/>
<path d="M59.6857 210.07H32.7351V210.226H59.6857V210.07Z" fill="#EBEBEB"/>
<path d="M69.1953 210.07H65.2454V210.226H69.1953V210.07Z" fill="#EBEBEB"/>
<path d="M140.494 212.708H82.0374V212.865H140.494V212.708Z" fill="#EBEBEB"/>
<path d="M147.888 176.871H27.3998C26.4559 176.87 25.5513 176.493 24.8844 175.823C24.2176 175.154 23.843 174.247 23.843 173.301V3.57057C23.8512 2.63011 24.2294 1.73087 24.8954 1.06818C25.5613 0.405492 26.4613 0.0328763 27.3998 0.0312653H147.888C148.833 0.0312653 149.739 0.407449 150.407 1.07706C151.076 1.74667 151.451 2.65486 151.451 3.60183V173.301C151.451 174.248 151.076 175.156 150.407 175.826C149.739 176.495 148.833 176.871 147.888 176.871ZM27.3998 0.156329C26.4973 0.157986 25.6323 0.518429 24.9947 1.15854C24.3571 1.79866 23.999 2.66614 23.999 3.57057V173.301C23.999 174.205 24.3571 175.073 24.9947 175.713C25.6323 176.353 26.4973 176.713 27.3998 176.715H147.888C148.791 176.713 149.657 176.353 150.295 175.713C150.934 175.073 151.293 174.206 151.295 173.301V3.57057C151.293 2.66556 150.934 1.7981 150.295 1.15816C149.657 0.518226 148.791 0.157982 147.888 0.156329H27.3998Z" fill="#EBEBEB"/>
<path d="M282.866 176.871H162.371C161.427 176.87 160.521 176.493 159.854 175.824C159.186 175.155 158.81 174.247 158.808 173.301V3.57057C158.818 2.62954 159.197 1.7303 159.864 1.06779C160.531 0.405274 161.432 0.0328588 162.371 0.0312653H282.866C283.803 0.0345197 284.701 0.407863 285.366 1.07037C286.031 1.73289 286.408 2.63119 286.416 3.57057V173.301C286.416 174.246 286.042 175.152 285.377 175.821C284.711 176.49 283.808 176.868 282.866 176.871ZM162.371 0.156329C161.468 0.157982 160.602 0.518226 159.964 1.15816C159.325 1.7981 158.966 2.66556 158.964 3.57057V173.301C158.966 174.206 159.325 175.073 159.964 175.713C160.602 176.353 161.468 176.713 162.371 176.715H282.866C283.769 176.713 284.634 176.353 285.273 175.713C285.911 175.073 286.271 174.206 286.273 173.301V3.57057C286.271 2.66556 285.911 1.7981 285.273 1.15816C284.634 0.518226 283.769 0.157982 282.866 0.156329H162.371Z" fill="#EBEBEB"/>
<path d="M136.313 144.392H57.4268V149.97H136.313V144.392Z" fill="#EBEBEB"/>
<path d="M136.313 144.392H102.011V149.97H136.313V144.392Z" fill="#E0E0E0"/>
<path d="M69.0831 149.976H57.4268V204.761H69.0831V149.976Z" fill="#EBEBEB"/>
<path d="M69.0831 155.629L57.4268 151.652V149.976H69.0831V155.629Z" fill="#E0E0E0"/>
<path d="M136.313 149.976H124.656V204.761H136.313V149.976Z" fill="#E0E0E0"/>
<path d="M113.668 149.976H102.011V204.761H113.668V149.976Z" fill="#EBEBEB"/>
<path d="M113.662 155.629L102.011 151.652V149.976H113.662V155.629Z" fill="#E0E0E0"/>
<path d="M91.7281 149.976H80.0718V204.761H91.7281V149.976Z" fill="#E0E0E0"/>
<path d="M143.726 20.1415H44.304V104.979H143.726V20.1415Z" fill="#EBEBEB"/>
<path d="M143.726 104.979H144.837V20.1415H143.726V104.979Z" fill="#E0E0E0"/>
<path d="M139.988 101.227V23.8934L48.0544 23.8934V101.227H139.988Z" fill="#F5F5F5"/>
<path d="M92.9075 89.4894C98.5235 70.7298 100.083 43.0595 112.027 46.8739C123.97 50.6883 108.327 91.603 108.327 91.603L92.9075 89.4894Z" fill="white"/>
<path d="M102.554 90.4211C96.8384 63.2322 98.2799 27.1388 80.5208 27.9643C62.7618 28.7897 80.5208 91.6029 80.5208 91.6029L102.554 90.4211Z" fill="white"/>
<path d="M115.103 87.3695H76.2216C75.4281 87.344 74.6565 87.6318 74.0729 88.1711C73.4893 88.7103 73.1404 89.4577 73.1016 90.2523C72.3091 108.199 75.2419 126.521 80.7019 144.399H110.473C115.933 126.489 118.866 108.199 118.073 90.2523C118.043 89.4813 117.717 88.7517 117.164 88.2149C116.611 87.6781 115.873 87.3754 115.103 87.3695Z" fill="#EBEBEB"/>
<path d="M203.549 29.6088H201.359V204.761H203.549V29.6088Z" fill="#E0E0E0"/>
<path d="M255.023 29.6088H252.832V204.761H255.023V29.6088Z" fill="#E0E0E0"/>
<path d="M188.017 29.6088H185.827V204.761H188.017V29.6088Z" fill="#EBEBEB"/>
<path d="M239.491 29.6088H237.301V204.761H239.491V29.6088Z" fill="#EBEBEB"/>
<path d="M255.023 28.4082H185.827V30.8032H255.023V28.4082Z" fill="#EBEBEB"/>
<path d="M255.023 71.2988H185.827V73.6938H255.023V71.2988Z" fill="#EBEBEB"/>
<path d="M255.023 114.189H185.827V116.584H255.023V114.189Z" fill="#EBEBEB"/>
<path d="M255.023 157.08H185.827V159.475H255.023V157.08Z" fill="#EBEBEB"/>
<path d="M255.023 199.971H185.827V202.366H255.023V199.971Z" fill="#EBEBEB"/>
<path d="M255.023 28.4082H239.491V30.8032H255.023V28.4082Z" fill="#E0E0E0"/>
<path d="M255.023 71.2988H239.491V73.6938H255.023V71.2988Z" fill="#E0E0E0"/>
<path d="M255.023 114.189H239.491V116.584H255.023V114.189Z" fill="#E0E0E0"/>
<path d="M255.023 157.08H239.491V159.475H255.023V157.08Z" fill="#E0E0E0"/>
<path d="M255.023 199.971H239.491V202.366H255.023V199.971Z" fill="#E0E0E0"/>
<path d="M213.739 42.9969V39.6202H205.421V42.9969C205.421 44.0556 205.002 45.071 204.255 45.8202C203.509 46.5693 202.496 46.991 201.44 46.9927C200.383 46.9927 199.37 47.4128 198.622 48.1608C197.875 48.9088 197.454 49.9236 197.452 50.9822V71.3176H221.714V50.9822C221.712 49.9236 221.291 48.9088 220.543 48.1608C219.796 47.4128 218.783 46.9927 217.726 46.9927C216.669 46.9927 215.654 46.5717 214.907 45.8224C214.159 45.073 213.739 44.0567 213.739 42.9969Z" fill="#F0F0F0"/>
<path d="M230.955 100.239H194.501V114.189H230.955V100.239Z" fill="#F0F0F0"/>
<path d="M230.955 114.183H237.301V100.232H230.955V114.183Z" fill="#E6E6E6"/>
<path d="M230.955 107.98H237.301V106.442H230.955V107.98Z" fill="#EBEBEB"/>
<path d="M230.955 106.448H194.501V107.986H230.955V106.448Z" fill="#F5F5F5"/>
<path d="M221.189 175.308H192.716V199.971H221.189V175.308Z" fill="#F0F0F0"/>
<path d="M221.189 199.971H226.144V175.308H221.189V199.971Z" fill="#E6E6E6"/>
<path d="M221.189 188.996H226.144V186.276H221.189V188.996Z" fill="#EBEBEB"/>
<path d="M221.189 186.282H192.716V189.003H221.189V186.282Z" fill="#F5F5F5"/>
<path d="M221.189 184.375H226.144V183.406H221.189V184.375Z" fill="#EBEBEB"/>
<path d="M221.189 183.406H192.716V184.375H221.189V183.406Z" fill="#F5F5F5"/>
<path d="M199.655 132.005H194.501V157.08H199.655V132.005Z" fill="#F0F0F0"/>
<path d="M199.655 140.941H194.501V148.144H199.655V140.941Z" fill="#FAFAFA"/>
<path d="M199.655 157.08H217.189V132.005H199.655V157.08Z" fill="#E6E6E6"/>
<path d="M207.617 128.766H201.795V157.08H207.617V128.766Z" fill="#EBEBEB"/>
<path d="M207.617 137.764H201.795V142.122H207.617V137.764Z" fill="#FAFAFA"/>
<path d="M207.617 145.043H201.795V149.401H207.617V145.043Z" fill="#FAFAFA"/>
<path d="M207.624 157.08H227.423V128.766H207.624V157.08Z" fill="#E0E0E0"/>
<path d="M214.101 132.005H210.962V157.08H214.101V132.005Z" fill="#F0F0F0"/>
<path d="M213.558 135.181H211.499V153.903H213.558V135.181Z" fill="#FAFAFA"/>
<path d="M214.094 157.08H224.759V132.005H214.094V157.08Z" fill="#E6E6E6"/>
<path d="M222.481 130.679H218.937V157.074H222.481V130.679Z" fill="#EBEBEB"/>
<path d="M222.481 139.071H218.937V143.135H222.481V139.071Z" fill="#FAFAFA"/>
<path d="M222.481 145.856H218.937V149.92H222.481V145.856Z" fill="#FAFAFA"/>
<path d="M222.481 157.08H234.524V130.685H222.481V157.08Z" fill="#E0E0E0"/>
<path d="M220.869 97.9667C223.9 94.9288 223.9 90.0035 220.869 86.9656C217.838 83.9277 212.923 83.9277 209.891 86.9656C206.86 90.0035 206.86 94.9288 209.891 97.9667C212.923 101.005 217.838 101.005 220.869 97.9667Z" fill="#F5F5F5"/>
<path d="M224.834 100.158C227.767 99.6808 229.758 96.912 229.282 93.9735C228.806 91.0351 226.043 89.0396 223.111 89.5166C220.178 89.9936 218.187 92.7624 218.663 95.7009C219.139 98.6394 221.902 100.635 224.834 100.158Z" fill="#EBEBEB"/>
<path d="M156 233C222.82 233 276.987 229.831 276.987 225.921C276.987 222.012 222.82 218.843 156 218.843C89.1806 218.843 35.0127 222.012 35.0127 225.921C35.0127 229.831 89.1806 233 156 233Z" fill="#F5F5F5"/>
<path d="M78.6926 177.428H158.839V218.912C158.839 219.443 158.735 219.969 158.532 220.46C158.329 220.951 158.032 221.397 157.657 221.772C157.282 222.148 156.837 222.446 156.347 222.649C155.857 222.853 155.332 222.957 154.802 222.957H82.7299C82.1997 222.957 81.6747 222.853 81.1849 222.649C80.6951 222.446 80.25 222.148 79.8751 221.772C79.5002 221.397 79.2028 220.951 78.9999 220.46C78.7971 219.969 78.6926 219.443 78.6926 218.912V177.428Z" fill="#407BFF"/>
<path d="M78.6926 177.428H135.408L128.432 168.48C127.664 167.498 125.767 166.704 124.188 166.704H73.1827C71.6102 166.704 70.9488 167.498 71.7163 168.48L78.6926 177.428Z" fill="#407BFF"/>
<path opacity="0.2" d="M78.6926 177.428H135.408L128.432 168.48C127.664 167.498 125.767 166.704 124.188 166.704H73.1827C71.6102 166.704 70.9488 167.498 71.7163 168.48L78.6926 177.428Z" fill="black"/>
<path d="M158.839 177.428H102.13L109.106 171.594C109.874 170.968 111.771 170.437 113.35 170.437H164.349C165.928 170.437 166.583 170.956 165.816 171.594L158.839 177.428Z" fill="#407BFF"/>
<path opacity="0.2" d="M102.13 177.428H158.839V218.912C158.839 219.443 158.735 219.969 158.532 220.46C158.329 220.951 158.032 221.397 157.657 221.772C157.282 222.148 156.837 222.446 156.347 222.649C155.857 222.853 155.332 222.957 154.802 222.957H106.167C105.637 222.957 105.112 222.853 104.622 222.649C104.133 222.446 103.688 222.148 103.313 221.772C102.938 221.397 102.64 220.951 102.437 220.46C102.235 219.969 102.13 219.443 102.13 218.912V177.428Z" fill="white"/>
<path opacity="0.5" d="M85.7314 177.428V205.867L87.6908 204.317L89.0698 205.867L90.2679 204.142L91.4972 205.867L93.207 204.567L95.0914 205.867V177.428H85.7314Z" fill="white"/>
<path d="M98.4172 115.39L88.3396 106.911" stroke="#407BFF" stroke-miterlimit="10"/>
<path d="M103.64 119.78L100.57 117.197" stroke="#407BFF" stroke-miterlimit="10"/>
<path d="M133.829 137.533L167.076 95.8926L122.809 58.6487L93.4814 92.3721L89.1134 100.808C88.8965 101.047 88.7313 101.329 88.628 101.635C88.5248 101.942 88.4857 102.266 88.5132 102.588C88.5407 102.91 88.6343 103.223 88.788 103.508C88.9417 103.792 89.1523 104.042 89.4067 104.241L129.343 137.845C129.992 138.37 130.815 138.629 131.647 138.571C132.479 138.513 133.259 138.142 133.829 137.533Z" fill="#407BFF"/>
<path opacity="0.5" d="M111.028 106.823L106.242 114.546L108.17 114.959L108.826 116.753L110.105 116.828L110.698 118.36L112.264 118.817L113.468 120.737L118.254 113.008L111.028 106.823Z" fill="white"/>
<path opacity="0.1" d="M165.628 94.6732L135.814 128.003L93.4626 92.3721L122.809 58.6486L165.628 94.6732Z" fill="black"/>
<path d="M165.628 94.6732L135.813 128.003L148.156 128.916L177.509 95.1923L165.628 94.6732Z" fill="#407BFF"/>
<path opacity="0.3" d="M165.628 94.6732L135.813 128.003L148.156 128.916L177.509 95.1923L165.628 94.6732Z" fill="black"/>
<path d="M110.935 58.1234L81.1138 91.4529L93.4627 92.3721L122.809 58.6487L110.935 58.1234Z" fill="#407BFF"/>
<path opacity="0.4" d="M110.935 58.1234L81.1138 91.4529L93.4627 92.3721L122.809 58.6487L110.935 58.1234Z" fill="black"/>
<path opacity="0.1" d="M156.449 104.935L165.628 94.6732L122.81 58.6486L117.331 71.8804L156.449 104.935Z" fill="black"/>
<path opacity="0.2" d="M93.4626 92.3721L122.809 58.6486L117.331 71.8804L96.6638 95.0609L93.4626 92.3721Z" fill="black"/>
<path d="M175.968 31.9225C176.086 32.3227 175.968 32.7167 175.706 32.7917C175.444 32.8667 175.138 32.6041 175.019 32.2039C174.901 31.8037 175.019 31.4098 175.282 31.3285C175.544 31.2472 175.856 31.5223 175.968 31.9225Z" fill="#263238"/>
<path d="M176.012 32.7104C175.894 34.0863 175.587 35.4393 175.101 36.7312C175.434 36.8472 175.789 36.8888 176.14 36.8531C176.492 36.8175 176.831 36.7055 177.135 36.5249L176.012 32.7104Z" fill="#ED847E"/>
<path d="M176.798 29.2524C176.851 29.2219 176.891 29.1729 176.91 29.1148C176.922 29.0845 176.927 29.0521 176.926 29.0197C176.925 28.9872 176.917 28.9553 176.903 28.926C176.889 28.8967 176.869 28.8706 176.844 28.8493C176.82 28.828 176.791 28.812 176.76 28.8022C176.395 28.6617 176.001 28.6117 175.612 28.6563C175.223 28.701 174.851 28.8389 174.526 29.0586C174.484 29.1015 174.459 29.1582 174.455 29.2183C174.451 29.2784 174.469 29.3379 174.506 29.3858C174.542 29.4337 174.595 29.4668 174.653 29.4791C174.712 29.4913 174.774 29.4819 174.826 29.4525C175.085 29.2821 175.381 29.1762 175.689 29.1436C175.998 29.111 176.309 29.1526 176.598 29.2649C176.63 29.2767 176.665 29.2817 176.699 29.2796C176.734 29.2774 176.767 29.2682 176.798 29.2524Z" fill="#263238"/>
<path d="M189.846 34.5989C190.12 37.9131 190.938 43.9787 192.891 45.3794C192.891 45.3794 192.429 49.3627 185.403 50.3819C177.703 51.52 181.16 47.0928 181.16 47.0928C185.209 45.4669 184.642 42.3591 183.481 39.5327L186.451 36.1184C187.593 34.8553 189.696 32.9043 189.846 34.5989Z" fill="#FFC3BD"/>
<path d="M195.406 46.999C196.03 46.4299 194.782 44.1538 194.014 43.8348C192.005 42.9907 183.787 43.8348 180.698 46.4924C180.442 46.9322 180.287 47.4238 180.245 47.9312C180.203 48.4386 180.274 48.9491 180.455 49.4252L195.406 46.999Z" fill="white"/>
<path d="M221.576 214.147C221.373 214.239 221.154 214.29 220.931 214.297C220.708 214.303 220.486 214.265 220.278 214.184C220.196 214.119 220.136 214.03 220.106 213.929C220.075 213.829 220.077 213.721 220.11 213.621C220.126 213.54 220.161 213.463 220.21 213.396C220.26 213.329 220.324 213.273 220.397 213.234C221.071 212.84 222.737 213.359 222.805 213.384C222.828 213.39 222.849 213.403 222.864 213.42C222.88 213.438 222.89 213.46 222.893 213.484C222.896 213.509 222.892 213.534 222.881 213.556C222.87 213.578 222.852 213.597 222.83 213.609C222.432 213.83 222.011 214.011 221.576 214.147ZM220.665 213.384L220.522 213.446C220.479 213.469 220.442 213.502 220.413 213.54C220.384 213.579 220.363 213.624 220.353 213.671C220.309 213.897 220.397 213.965 220.422 213.984C220.721 214.197 221.738 213.89 222.444 213.534C221.869 213.353 221.262 213.302 220.665 213.384Z" fill="#407BFF"/>
<path d="M222.806 213.615C222.785 213.621 222.764 213.621 222.743 213.615C222.119 213.49 220.815 212.708 220.746 212.121C220.737 212.028 220.759 211.935 220.81 211.857C220.862 211.78 220.938 211.722 221.027 211.695C221.114 211.657 221.207 211.637 221.302 211.637C221.396 211.637 221.49 211.657 221.576 211.695C222.3 211.996 222.862 213.396 222.88 213.453C222.893 213.471 222.899 213.493 222.899 213.515C222.899 213.537 222.893 213.559 222.88 213.578C222.872 213.589 222.86 213.599 222.847 213.605C222.834 213.612 222.82 213.615 222.806 213.615ZM221.183 211.908C221.165 211.903 221.145 211.903 221.127 211.908C220.983 211.971 220.99 212.046 220.996 212.077C221.033 212.427 221.919 213.059 222.55 213.29C222.363 212.883 221.926 212.096 221.483 211.908C221.386 211.871 221.28 211.871 221.183 211.908Z" fill="#407BFF"/>
<path d="M185.003 220.863C184.336 220.863 183.693 220.769 183.475 220.469C183.419 220.39 183.389 220.296 183.389 220.2C183.389 220.103 183.419 220.009 183.475 219.931C183.516 219.858 183.572 219.795 183.638 219.745C183.705 219.694 183.781 219.658 183.862 219.637C184.729 219.406 186.551 220.444 186.626 220.487C186.649 220.499 186.668 220.517 186.68 220.54C186.692 220.563 186.696 220.589 186.691 220.614C186.687 220.639 186.675 220.663 186.656 220.681C186.638 220.698 186.614 220.709 186.588 220.713C186.066 220.81 185.535 220.861 185.003 220.863ZM184.18 219.85C184.1 219.846 184.019 219.857 183.943 219.881C183.843 219.903 183.755 219.964 183.699 220.05C183.612 220.206 183.643 220.281 183.699 220.325C183.943 220.662 185.259 220.669 186.195 220.531C185.574 220.176 184.889 219.944 184.18 219.85Z" fill="#407BFF"/>
<path d="M186.576 220.719H186.526C185.902 220.437 184.654 219.306 184.748 218.718C184.748 218.58 184.872 218.405 185.209 218.374C185.331 218.36 185.455 218.372 185.572 218.409C185.689 218.445 185.797 218.506 185.89 218.586C186.557 219.13 186.695 220.537 186.701 220.594C186.704 220.615 186.701 220.637 186.693 220.657C186.684 220.677 186.669 220.694 186.651 220.706C186.628 220.719 186.602 220.723 186.576 220.719ZM185.328 218.605H185.253C185.028 218.605 185.016 218.718 185.01 218.743C184.954 219.099 185.802 219.993 186.439 220.375C186.384 219.778 186.144 219.214 185.752 218.762C185.635 218.658 185.484 218.602 185.328 218.605Z" fill="#407BFF"/>
<path d="M192.304 220.594H187.094L186.576 208.513H191.786L192.304 220.594Z" fill="#FFC3BD"/>
<path d="M228.902 212.346L224.103 214.003L219.124 202.61L223.922 200.952L228.902 212.346Z" fill="#FFC3BD"/>
<path d="M222.961 212.808L228.577 211.089C228.677 211.058 228.784 211.063 228.88 211.101C228.977 211.14 229.057 211.211 229.108 211.301L231.448 215.429C231.504 215.529 231.537 215.642 231.544 215.757C231.551 215.873 231.531 215.988 231.488 216.095C231.444 216.202 231.377 216.298 231.291 216.375C231.205 216.452 231.103 216.509 230.992 216.542C229.027 217.111 228.047 217.286 225.589 218.042C224.072 218.505 220.253 219.956 218.101 220.387C215.948 220.819 215.255 218.755 216.091 218.386C219.835 216.729 221.37 214.847 222.263 213.384C222.418 213.113 222.667 212.909 222.961 212.808Z" fill="#263238"/>
<path d="M187.131 219.987H192.816C192.919 219.989 193.018 220.024 193.099 220.089C193.179 220.154 193.235 220.243 193.259 220.344L194.289 224.983C194.314 225.095 194.314 225.212 194.288 225.323C194.262 225.435 194.211 225.54 194.139 225.629C194.067 225.718 193.976 225.79 193.872 225.838C193.768 225.887 193.654 225.911 193.54 225.909C191.487 225.878 188.548 225.753 185.946 225.753C182.932 225.753 181.665 225.921 178.127 225.921C175.993 225.921 175.4 223.758 176.292 223.558C180.367 222.663 182.358 222.57 185.877 220.394C186.25 220.146 186.684 220.005 187.131 219.987Z" fill="#263238"/>
<path d="M202.263 48.7061C203.78 50.1005 205.09 51.495 206.45 52.952C207.811 54.409 209.071 55.916 210.294 57.5231C211.572 59.1557 212.731 60.8776 213.764 62.6757C214.328 63.6668 214.816 64.6994 215.224 65.7648C215.33 66.0587 215.436 66.3401 215.523 66.659C215.626 66.9816 215.711 67.3092 215.779 67.6407L215.885 68.1597L215.96 68.735C216.03 69.2622 216.03 69.7962 215.96 70.3234C215.817 71.3184 215.45 72.2677 214.887 73.0998C214.476 73.7074 213.994 74.2637 213.452 74.7569C212.579 75.5499 211.626 76.2479 210.606 76.8392C208.811 77.8685 206.932 78.7449 204.99 79.4593C201.307 80.8295 197.511 81.8757 193.646 82.5859L192.554 78.8339C195.942 77.3644 199.374 75.7761 202.538 74.0815C204.078 73.2719 205.56 72.3568 206.975 71.3426C207.564 70.9232 208.106 70.441 208.591 69.9044C208.738 69.7457 208.862 69.5668 208.959 69.3729C209.009 69.2666 208.959 69.2791 208.897 69.5042C208.853 69.9232 208.859 69.598 208.759 69.3729C208.728 69.2666 208.672 69.1227 208.616 68.9852C208.56 68.8476 208.491 68.6913 208.422 68.5412C208.084 67.8592 207.707 67.1974 207.293 66.5589C206.329 65.125 205.288 63.7451 204.173 62.4256C203.025 61.0624 201.814 59.7054 200.572 58.3735C199.331 57.0416 198.026 55.6971 196.828 54.459L202.263 48.7061Z" fill="#FFC3BD"/>
<path d="M193.983 78.2399L189.072 79.7281L192.229 84.9308C192.229 84.9308 195.131 83.7302 195.774 81.2601L193.983 78.2399Z" fill="#FFC3BD"/>
<path d="M187.088 81.5666L189.022 85.8625L192.198 84.9308L189.041 79.7281L187.088 81.5666Z" fill="#FFC3BD"/>
<path d="M190.757 50.1193C190.289 55.1219 200.847 62.8633 200.847 62.8633L211.012 55.891C209.247 52.6286 206.666 49.8814 203.524 47.9182C197.696 44.1788 191.343 43.9036 190.757 50.1193Z" fill="#407BFF"/>
<g opacity="0.3">
<path d="M190.757 50.1193C190.289 55.1219 200.847 62.8633 200.847 62.8633L211.012 55.891C209.247 52.6286 206.666 49.8814 203.524 47.9182C197.696 44.1788 191.343 43.9036 190.757 50.1193Z" fill="white"/>
</g>
<path d="M173.472 49.7191C173.472 49.7191 168.91 56.7352 179.743 94.3668L207.286 90.2898C206.9 86.4753 202.294 69.8356 202.138 51.6451C202.132 50.7666 201.948 49.8986 201.598 49.0933C201.247 48.288 200.738 47.5623 200.1 46.9598C199.462 46.3573 198.709 45.8906 197.886 45.5878C197.063 45.285 196.187 45.1524 195.312 45.198C194.513 45.2418 193.689 45.2981 192.872 45.3794C188.94 45.7307 185.031 46.309 181.166 47.1115C178.538 47.7815 175.966 48.6533 173.472 49.7191Z" fill="#407BFF"/>
<g opacity="0.3">
<path d="M173.472 49.7191C173.472 49.7191 168.91 56.7352 179.743 94.3668L207.286 90.2898C206.9 86.4753 202.294 69.8356 202.138 51.6451C202.132 50.7666 201.948 49.8986 201.598 49.0933C201.247 48.288 200.738 47.5623 200.1 46.9598C199.462 46.3573 198.709 45.8906 197.886 45.5878C197.063 45.285 196.187 45.1524 195.312 45.198C194.513 45.2418 193.689 45.2981 192.872 45.3794C188.94 45.7307 185.031 46.309 181.166 47.1115C178.538 47.7815 175.966 48.6533 173.472 49.7191Z" fill="white"/>
</g>
<path opacity="0.2" d="M172.798 61.8128L172.892 61.7065L179.369 62.2817C180.355 66.4714 176.748 72.1868 174.845 74.8381C173.929 70.5365 173.245 66.1884 172.798 61.8128Z" fill="black"/>
<path opacity="0.2" d="M186.576 208.513L186.844 214.741H192.055L191.786 208.513H186.576Z" fill="black"/>
<path opacity="0.2" d="M223.922 200.959L219.124 202.616L221.695 208.488L226.493 206.83L223.922 200.959Z" fill="black"/>
<path d="M189.166 27.1201C190.314 32.1664 191.237 35.0616 189.484 38.3758C186.851 43.3096 180.074 42.8343 177.447 38.232C175.082 34.0861 173.597 26.5323 177.865 23.1305C178.8 22.3779 179.912 21.8769 181.094 21.6749C182.277 21.4728 183.491 21.5764 184.623 21.9758C185.754 22.3752 186.765 23.0573 187.56 23.9574C188.355 24.8576 188.908 25.9462 189.166 27.1201Z" fill="#FFC3BD"/>
<path d="M179.051 32.0663L177.135 33.2419L177.316 26.6761C176.081 26.7292 174.862 26.3756 173.846 25.6693C174.539 25.0065 185.322 21.2233 188.685 21.8799C189.035 21.7361 189.459 21.0857 189.459 21.0857C189.459 21.0857 189.59 21.9049 189.022 22.2176C189.434 22.1363 190.464 22.3364 190.751 22.9429C190.278 22.8136 189.776 22.8422 189.322 23.0242C189.322 23.0242 193.066 23.5933 191.737 28.7959C190.245 34.5301 190.738 37.8255 190.738 37.8255C190.738 37.8255 187.955 39.9829 185.534 39.5827C182.951 36.7312 179.219 33.3045 179.051 32.0663Z" fill="#263238"/>
<path d="M175.382 25.1503C172.343 25.1503 171.251 23.6621 170.471 22.4114C172.655 22.1801 177.204 20.7731 180.58 20.5355C183.955 20.2978 187.656 20.9294 186.539 22.4114C185.422 23.8934 175.382 25.1503 175.382 25.1503Z" fill="#263238"/>
<path d="M176.049 23.7934C173.553 23.4432 171.119 21.0857 172.991 18.8283C173.684 20.4854 178.358 20.2916 181.677 19.5975C186.045 18.6845 189.072 20.1603 187.524 23.143C186.676 24.7751 176.049 23.7934 176.049 23.7934Z" fill="#263238"/>
<path d="M181.746 30.5718C182.103 31.8065 182.046 33.1246 181.584 34.3237C180.96 35.8933 179.575 35.5744 178.851 34.2174C178.227 32.9668 177.753 30.6969 178.813 29.5651C179.874 28.4332 181.297 29.0898 181.746 30.5718Z" fill="#FFC3BD"/>
<path d="M189.515 92.9224C189.515 92.9224 193.983 131.036 197.228 145.968C200.778 162.326 218.294 206.924 218.294 206.924L227.03 203.898C227.03 203.898 215.798 170.318 212.815 147.45C210.525 129.891 207.262 90.2898 207.262 90.2898L189.515 92.9224Z" fill="#263238"/>
<path d="M216.06 204.123C216.016 204.123 217.851 207.875 217.851 207.875L228.053 204.554L226.855 201.503L216.06 204.123Z" fill="#407BFF"/>
<path opacity="0.3" d="M191.98 112.476C193.377 123.069 195.168 135.613 196.741 143.623C199.056 131.348 199.599 115.847 191.98 112.476Z" fill="black"/>
<path d="M179.743 94.3669C179.743 94.3669 176.037 130.173 176.623 146.081C177.21 162.627 184.922 213.54 184.922 213.54H193.74C193.74 213.54 192.117 163.59 192.492 147.344C192.922 129.629 199.549 91.4341 199.549 91.4341L179.743 94.3669Z" fill="#263238"/>
<path d="M183.206 210.02C183.169 210.02 183.706 213.684 183.706 213.684H194.432L194.725 210.413L183.206 210.02Z" fill="#407BFF"/>
<path d="M178.034 58.5111C177.06 60.0619 176.074 61.4563 175.051 62.8883C174.027 64.3203 172.954 65.7022 171.862 67.0779C169.636 69.8687 167.224 72.5053 164.643 74.9695C163.944 75.5948 163.301 76.2201 162.546 76.7891L161.997 77.2331L161.722 77.452C161.622 77.5333 161.579 77.577 161.373 77.7271C160.755 78.169 160.076 78.5186 159.357 78.7651C158.245 79.1458 157.082 79.3566 155.907 79.3905C154.912 79.4239 153.917 79.38 152.93 79.2591C149.321 78.7849 145.8 77.7865 142.478 76.2951L143.558 72.5432C146.75 72.9228 149.965 73.0774 153.18 73.006C153.891 72.9686 154.599 72.8914 155.301 72.7746C155.83 72.6971 156.344 72.5367 156.824 72.2994C156.974 72.2181 157.055 72.1368 157.036 72.118C157.017 72.0992 157.117 72.0367 157.173 71.9804L157.385 71.7866L157.803 71.3926C158.365 70.8924 158.895 70.2858 159.445 69.7355C160.524 68.5725 161.597 67.3781 162.615 66.1087C163.632 64.8393 164.661 63.5636 165.66 62.2505C166.658 60.9373 167.625 59.6054 168.599 58.2735C169.572 56.9415 170.521 55.5408 171.419 54.2464L178.034 58.5111Z" fill="#FFC3BD"/>
<path d="M181.659 56.854C183.755 63.7325 171.581 71.3551 171.581 71.3551L163.669 61.2562C165.452 57.9263 167.654 54.8392 170.221 52.0703C175.606 46.1985 180.061 51.6201 181.659 56.854Z" fill="#407BFF"/>
<g opacity="0.3">
<path d="M181.659 56.854C183.755 63.7325 171.581 71.3551 171.581 71.3551L163.669 61.2562C165.452 57.9263 167.654 54.8392 170.221 52.0703C175.606 46.1985 180.061 51.6201 181.659 56.854Z" fill="white"/>
</g>
<path d="M145.392 72.7746L138.983 71.599L139.657 77.1518C139.657 77.1518 142.989 79.0278 145.404 76.095L145.392 72.7746Z" fill="#FFC3BD"/>
<path d="M136.512 72.8496L137.898 76.8579L139.645 77.1518L138.971 71.5927L136.512 72.8496Z" fill="#FFC3BD"/>
</g>
<defs>
<clipPath id="clip0_604_2276">
<rect width="312" height="233" fill="white"/>
</clipPath>
</defs>
</svg>
