<svg width="312" height="383" viewBox="0 0 312 383" fill="none" xmlns="http://www.w3.org/2000/svg">
<g clip-path="url(#clip0_664_2393)">
<path d="M312 204.761H0V204.917H312V204.761Z" fill="#EBEBEB"/>
<path d="M280.738 214.822H260.071V214.978H280.738V214.822Z" fill="#EBEBEB"/>
<path d="M206.681 216.523H201.259V216.679H206.681V216.523Z" fill="#EBEBEB"/>
<path d="M259.447 209.019H247.472V209.175H259.447V209.019Z" fill="#EBEBEB"/>
<path d="M59.6855 210.07H32.735V210.226H59.6855V210.07Z" fill="#EBEBEB"/>
<path d="M69.1954 210.07H65.2455V210.226H69.1954V210.07Z" fill="#EBEBEB"/>
<path d="M140.494 212.708H82.0372V212.865H140.494V212.708Z" fill="#EBEBEB"/>
<path d="M147.888 176.871H27.3998C26.4559 176.87 25.5513 176.493 24.8844 175.823C24.2176 175.154 23.843 174.247 23.843 173.301V3.57057C23.8512 2.63011 24.2294 1.73087 24.8954 1.06818C25.5613 0.405492 26.4613 0.0328763 27.3998 0.0312653H147.888C148.833 0.0312653 149.739 0.407449 150.407 1.07706C151.076 1.74667 151.451 2.65486 151.451 3.60183V173.301C151.451 174.248 151.076 175.156 150.407 175.826C149.739 176.495 148.833 176.871 147.888 176.871ZM27.3998 0.156329C26.4973 0.157986 25.6323 0.518429 24.9947 1.15854C24.3571 1.79866 23.999 2.66614 23.999 3.57057V173.301C23.999 174.205 24.3571 175.073 24.9947 175.713C25.6323 176.353 26.4973 176.713 27.3998 176.715H147.888C148.791 176.713 149.657 176.353 150.295 175.713C150.934 175.073 151.293 174.206 151.295 173.301V3.57057C151.293 2.66556 150.934 1.7981 150.295 1.15816C149.657 0.518226 148.791 0.157982 147.888 0.156329H27.3998Z" fill="#EBEBEB"/>
<path d="M282.865 176.871H162.371C161.427 176.87 160.521 176.493 159.853 175.824C159.186 175.155 158.81 174.247 158.808 173.301V3.57057C158.818 2.62954 159.197 1.7303 159.864 1.06779C160.531 0.405274 161.432 0.0328588 162.371 0.0312653H282.865C283.803 0.0345197 284.701 0.407863 285.366 1.07037C286.03 1.73289 286.408 2.63119 286.416 3.57057V173.301C286.416 174.246 286.042 175.152 285.377 175.821C284.711 176.49 283.808 176.868 282.865 176.871ZM162.371 0.156329C161.468 0.157982 160.602 0.518226 159.964 1.15816C159.325 1.7981 158.966 2.66556 158.964 3.57057V173.301C158.966 174.206 159.325 175.073 159.964 175.713C160.602 176.353 161.468 176.713 162.371 176.715H282.865C283.769 176.713 284.634 176.353 285.273 175.713C285.911 175.073 286.271 174.206 286.272 173.301V3.57057C286.271 2.66556 285.911 1.7981 285.273 1.15816C284.634 0.518226 283.769 0.157982 282.865 0.156329H162.371Z" fill="#EBEBEB"/>
<path d="M136.313 144.392H57.4268V149.97H136.313V144.392Z" fill="#EBEBEB"/>
<path d="M136.313 144.392H102.011V149.97H136.313V144.392Z" fill="#E0E0E0"/>
<path d="M69.0831 149.976H57.4268V204.761H69.0831V149.976Z" fill="#EBEBEB"/>
<path d="M69.0831 155.629L57.4268 151.652V149.976H69.0831V155.629Z" fill="#E0E0E0"/>
<path d="M136.313 149.976H124.656V204.761H136.313V149.976Z" fill="#E0E0E0"/>
<path d="M113.668 149.976H102.011V204.761H113.668V149.976Z" fill="#EBEBEB"/>
<path d="M113.662 155.629L102.011 151.652V149.976H113.662V155.629Z" fill="#E0E0E0"/>
<path d="M91.728 149.976H80.0717V204.761H91.728V149.976Z" fill="#E0E0E0"/>
<path d="M143.726 20.1415H44.304V104.979H143.726V20.1415Z" fill="#EBEBEB"/>
<path d="M143.726 104.979H144.837V20.1415H143.726V104.979Z" fill="#E0E0E0"/>
<path d="M139.988 101.227V23.8934L48.0542 23.8934V101.227H139.988Z" fill="#F5F5F5"/>
<path d="M92.9073 89.4894C98.5233 70.7298 100.083 43.0595 112.027 46.8739C123.97 50.6883 108.326 91.603 108.326 91.603L92.9073 89.4894Z" fill="white"/>
<path d="M102.554 90.4211C96.8386 63.2322 98.28 27.1388 80.521 27.9643C62.7619 28.7897 80.521 91.6029 80.521 91.6029L102.554 90.4211Z" fill="white"/>
<path d="M115.103 87.3695H76.2216C75.4281 87.344 74.6565 87.6318 74.0729 88.1711C73.4893 88.7103 73.1404 89.4577 73.1016 90.2523C72.3091 108.199 75.2419 126.521 80.7019 144.399H110.473C115.933 126.489 118.866 108.199 118.073 90.2523C118.043 89.4813 117.717 88.7517 117.164 88.2149C116.611 87.6781 115.873 87.3754 115.103 87.3695Z" fill="#EBEBEB"/>
<path d="M203.549 29.6088H201.359V204.761H203.549V29.6088Z" fill="#E0E0E0"/>
<path d="M255.023 29.6088H252.832V204.761H255.023V29.6088Z" fill="#E0E0E0"/>
<path d="M188.017 29.6088H185.827V204.761H188.017V29.6088Z" fill="#EBEBEB"/>
<path d="M239.491 29.6088H237.301V204.761H239.491V29.6088Z" fill="#EBEBEB"/>
<path d="M255.023 28.4082H185.827V30.8032H255.023V28.4082Z" fill="#EBEBEB"/>
<path d="M255.023 71.2988H185.827V73.6938H255.023V71.2988Z" fill="#EBEBEB"/>
<path d="M255.023 114.189H185.827V116.584H255.023V114.189Z" fill="#EBEBEB"/>
<path d="M255.023 157.08H185.827V159.475H255.023V157.08Z" fill="#EBEBEB"/>
<path d="M255.023 199.971H185.827V202.366H255.023V199.971Z" fill="#EBEBEB"/>
<path d="M255.023 28.4082H239.491V30.8032H255.023V28.4082Z" fill="#E0E0E0"/>
<path d="M255.023 71.2988H239.491V73.6938H255.023V71.2988Z" fill="#E0E0E0"/>
<path d="M255.023 114.189H239.491V116.584H255.023V114.189Z" fill="#E0E0E0"/>
<path d="M255.023 157.08H239.491V159.475H255.023V157.08Z" fill="#E0E0E0"/>
<path d="M255.023 199.971H239.491V202.366H255.023V199.971Z" fill="#E0E0E0"/>
<path d="M213.739 42.9969V39.6202H205.421V42.9969C205.421 44.0556 205.002 45.071 204.255 45.8202C203.509 46.5693 202.496 46.991 201.44 46.9927C200.383 46.9927 199.37 47.4128 198.622 48.1608C197.875 48.9088 197.454 49.9236 197.452 50.9822V71.3176H221.713V50.9822C221.712 49.9236 221.291 48.9088 220.543 48.1608C219.796 47.4128 218.782 46.9927 217.726 46.9927C216.669 46.9927 215.654 46.5717 214.907 45.8224C214.159 45.073 213.739 44.0567 213.739 42.9969Z" fill="#F0F0F0"/>
<path d="M230.955 100.239H194.501V114.189H230.955V100.239Z" fill="#F0F0F0"/>
<path d="M230.955 114.183H237.301V100.232H230.955V114.183Z" fill="#E6E6E6"/>
<path d="M230.955 107.98H237.301V106.442H230.955V107.98Z" fill="#EBEBEB"/>
<path d="M230.955 106.448H194.501V107.986H230.955V106.448Z" fill="#F5F5F5"/>
<path d="M221.189 175.308H192.716V199.971H221.189V175.308Z" fill="#F0F0F0"/>
<path d="M221.189 199.971H226.144V175.308H221.189V199.971Z" fill="#E6E6E6"/>
<path d="M221.189 188.996H226.144V186.276H221.189V188.996Z" fill="#EBEBEB"/>
<path d="M221.189 186.282H192.716V189.003H221.189V186.282Z" fill="#F5F5F5"/>
<path d="M221.189 184.375H226.144V183.406H221.189V184.375Z" fill="#EBEBEB"/>
<path d="M221.189 183.406H192.716V184.375H221.189V183.406Z" fill="#F5F5F5"/>
<path d="M199.655 132.005H194.501V157.08H199.655V132.005Z" fill="#F0F0F0"/>
<path d="M199.655 140.941H194.501V148.144H199.655V140.941Z" fill="#FAFAFA"/>
<path d="M199.655 157.08H217.189V132.005H199.655V157.08Z" fill="#E6E6E6"/>
<path d="M207.617 128.766H201.795V157.08H207.617V128.766Z" fill="#EBEBEB"/>
<path d="M207.617 137.764H201.795V142.122H207.617V137.764Z" fill="#FAFAFA"/>
<path d="M207.617 145.043H201.795V149.401H207.617V145.043Z" fill="#FAFAFA"/>
<path d="M207.624 157.08H227.423V128.766H207.624V157.08Z" fill="#E0E0E0"/>
<path d="M214.101 132.005H210.962V157.08H214.101V132.005Z" fill="#F0F0F0"/>
<path d="M213.558 135.181H211.499V153.903H213.558V135.181Z" fill="#FAFAFA"/>
<path d="M214.094 157.08H224.759V132.005H214.094V157.08Z" fill="#E6E6E6"/>
<path d="M222.481 130.679H218.937V157.074H222.481V130.679Z" fill="#EBEBEB"/>
<path d="M222.481 139.071H218.937V143.135H222.481V139.071Z" fill="#FAFAFA"/>
<path d="M222.481 145.856H218.937V149.92H222.481V145.856Z" fill="#FAFAFA"/>
<path d="M222.481 157.08H234.524V130.685H222.481V157.08Z" fill="#E0E0E0"/>
<path d="M220.869 97.9667C223.9 94.9288 223.9 90.0035 220.869 86.9656C217.838 83.9277 212.923 83.9277 209.891 86.9656C206.86 90.0035 206.86 94.9288 209.891 97.9667C212.923 101.005 217.838 101.005 220.869 97.9667Z" fill="#F5F5F5"/>
<path d="M224.834 100.158C227.767 99.6808 229.758 96.912 229.282 93.9735C228.806 91.0351 226.043 89.0396 223.111 89.5166C220.178 89.9936 218.187 92.7624 218.663 95.7009C219.139 98.6394 221.902 100.635 224.834 100.158Z" fill="#EBEBEB"/>
<path d="M156 233C222.82 233 276.987 229.831 276.987 225.921C276.987 222.012 222.82 218.843 156 218.843C89.1806 218.843 35.0127 222.012 35.0127 225.921C35.0127 229.831 89.1806 233 156 233Z" fill="#F5F5F5"/>
<path d="M78.6926 177.428H158.839V218.912C158.839 219.443 158.735 219.969 158.532 220.46C158.329 220.951 158.032 221.397 157.657 221.772C157.282 222.148 156.837 222.446 156.347 222.649C155.857 222.853 155.332 222.957 154.802 222.957H82.7299C82.1997 222.957 81.6747 222.853 81.1849 222.649C80.6951 222.446 80.25 222.148 79.8751 221.772C79.5002 221.397 79.2028 220.951 78.9999 220.46C78.7971 219.969 78.6926 219.443 78.6926 218.912V177.428Z" fill="#407BFF"/>
<path d="M78.6926 177.428H135.408L128.432 168.48C127.664 167.498 125.767 166.704 124.188 166.704H73.1827C71.6102 166.704 70.9488 167.498 71.7163 168.48L78.6926 177.428Z" fill="#407BFF"/>
<path opacity="0.2" d="M78.6926 177.428H135.408L128.432 168.48C127.664 167.498 125.767 166.704 124.188 166.704H73.1827C71.6102 166.704 70.9488 167.498 71.7163 168.48L78.6926 177.428Z" fill="black"/>
<path d="M158.839 177.428H102.13L109.106 171.594C109.874 170.968 111.771 170.437 113.35 170.437H164.349C165.928 170.437 166.583 170.956 165.816 171.594L158.839 177.428Z" fill="#407BFF"/>
<path opacity="0.2" d="M102.13 177.428H158.839V218.912C158.839 219.443 158.735 219.969 158.532 220.46C158.329 220.951 158.032 221.397 157.657 221.772C157.282 222.148 156.837 222.446 156.347 222.649C155.857 222.853 155.332 222.957 154.802 222.957H106.167C105.637 222.957 105.112 222.853 104.622 222.649C104.133 222.446 103.688 222.148 103.313 221.772C102.938 221.397 102.64 220.951 102.437 220.46C102.235 219.969 102.13 219.443 102.13 218.912V177.428Z" fill="white"/>
<path opacity="0.5" d="M85.7313 177.428V205.867L87.6907 204.317L89.0697 205.867L90.2678 204.142L91.4971 205.867L93.2068 204.567L95.0913 205.867V177.428H85.7313Z" fill="white"/>
<path d="M98.4173 115.39L88.3397 106.911" stroke="#407BFF" stroke-miterlimit="10"/>
<path d="M103.64 119.78L100.57 117.197" stroke="#407BFF" stroke-miterlimit="10"/>
<path d="M133.829 137.533L167.076 95.8926L122.809 58.6487L93.4814 92.3721L89.1134 100.808C88.8965 101.047 88.7313 101.329 88.628 101.635C88.5248 101.942 88.4857 102.266 88.5132 102.588C88.5407 102.91 88.6343 103.223 88.788 103.508C88.9417 103.792 89.1523 104.042 89.4067 104.241L129.343 137.845C129.992 138.37 130.815 138.629 131.647 138.571C132.479 138.513 133.259 138.142 133.829 137.533Z" fill="#407BFF"/>
<path opacity="0.5" d="M111.028 106.823L106.242 114.546L108.17 114.959L108.826 116.753L110.105 116.828L110.698 118.36L112.264 118.817L113.468 120.737L118.254 113.008L111.028 106.823Z" fill="white"/>
<path opacity="0.1" d="M165.628 94.6732L135.814 128.003L93.4628 92.3721L122.809 58.6486L165.628 94.6732Z" fill="black"/>
<path d="M165.628 94.6733L135.814 128.003L148.156 128.916L177.509 95.1923L165.628 94.6733Z" fill="#407BFF"/>
<path opacity="0.3" d="M165.628 94.6733L135.814 128.003L148.156 128.916L177.509 95.1923L165.628 94.6733Z" fill="black"/>
<path d="M110.935 58.1234L81.1138 91.4529L93.4627 92.3721L122.809 58.6487L110.935 58.1234Z" fill="#407BFF"/>
<path opacity="0.4" d="M110.935 58.1234L81.1138 91.4529L93.4627 92.3721L122.809 58.6487L110.935 58.1234Z" fill="black"/>
<path opacity="0.1" d="M156.449 104.935L165.628 94.6732L122.809 58.6486L117.331 71.8804L156.449 104.935Z" fill="black"/>
<path opacity="0.2" d="M93.4628 92.3721L122.809 58.6486L117.331 71.8804L96.6639 95.0609L93.4628 92.3721Z" fill="black"/>
<path d="M175.968 31.9225C176.087 32.3227 175.968 32.7167 175.706 32.7917C175.444 32.8667 175.138 32.6041 175.02 32.2039C174.901 31.8037 175.02 31.4098 175.282 31.3285C175.544 31.2472 175.856 31.5223 175.968 31.9225Z" fill="#263238"/>
<path d="M176.012 32.7104C175.894 34.0863 175.587 35.4393 175.101 36.7312C175.434 36.8472 175.789 36.8888 176.14 36.8531C176.492 36.8175 176.831 36.7055 177.135 36.5249L176.012 32.7104Z" fill="#ED847E"/>
<path d="M176.798 29.2524C176.851 29.2219 176.891 29.1729 176.91 29.1148C176.922 29.0845 176.927 29.0521 176.926 29.0197C176.925 28.9872 176.917 28.9553 176.903 28.926C176.889 28.8967 176.869 28.8706 176.845 28.8493C176.82 28.828 176.791 28.812 176.761 28.8022C176.395 28.6617 176.001 28.6117 175.612 28.6563C175.223 28.701 174.851 28.8389 174.527 29.0586C174.484 29.1015 174.459 29.1582 174.455 29.2183C174.451 29.2784 174.469 29.3379 174.506 29.3858C174.542 29.4337 174.595 29.4668 174.654 29.4791C174.712 29.4913 174.774 29.4819 174.826 29.4525C175.085 29.2821 175.381 29.1762 175.69 29.1436C175.998 29.111 176.309 29.1526 176.598 29.2649C176.631 29.2767 176.665 29.2817 176.699 29.2796C176.734 29.2774 176.767 29.2682 176.798 29.2524Z" fill="#263238"/>
<path d="M189.846 34.5989C190.12 37.9131 190.938 43.9787 192.891 45.3794C192.891 45.3794 192.429 49.3627 185.403 50.3819C177.703 51.52 181.16 47.0928 181.16 47.0928C185.209 45.4669 184.642 42.3591 183.481 39.5327L186.451 36.1184C187.593 34.8553 189.696 32.9043 189.846 34.5989Z" fill="#FFC3BD"/>
<path d="M195.406 46.999C196.03 46.4299 194.782 44.1538 194.014 43.8348C192.005 42.9907 183.787 43.8348 180.698 46.4924C180.442 46.9322 180.287 47.4238 180.245 47.9312C180.203 48.4386 180.274 48.9491 180.455 49.4252L195.406 46.999Z" fill="white"/>
<path d="M221.576 214.147C221.373 214.239 221.154 214.29 220.931 214.297C220.708 214.303 220.486 214.265 220.278 214.184C220.196 214.119 220.136 214.03 220.106 213.929C220.075 213.829 220.077 213.721 220.11 213.621C220.126 213.54 220.161 213.463 220.21 213.396C220.26 213.329 220.324 213.273 220.397 213.234C221.071 212.84 222.737 213.359 222.805 213.384C222.828 213.39 222.849 213.403 222.864 213.42C222.88 213.438 222.89 213.46 222.893 213.484C222.896 213.509 222.892 213.534 222.881 213.556C222.87 213.578 222.852 213.597 222.83 213.609C222.432 213.83 222.011 214.011 221.576 214.147ZM220.665 213.384L220.522 213.446C220.479 213.469 220.442 213.502 220.413 213.54C220.384 213.579 220.363 213.624 220.353 213.671C220.309 213.897 220.397 213.965 220.422 213.984C220.721 214.197 221.738 213.89 222.444 213.534C221.869 213.353 221.262 213.302 220.665 213.384Z" fill="#407BFF"/>
<path d="M222.805 213.615C222.785 213.621 222.763 213.621 222.743 213.615C222.119 213.49 220.815 212.708 220.746 212.121C220.736 212.028 220.759 211.935 220.81 211.857C220.862 211.78 220.938 211.722 221.027 211.695C221.113 211.657 221.207 211.637 221.302 211.637C221.396 211.637 221.49 211.657 221.576 211.695C222.3 211.996 222.862 213.396 222.88 213.453C222.893 213.471 222.899 213.493 222.899 213.515C222.899 213.537 222.893 213.559 222.88 213.578C222.872 213.589 222.86 213.599 222.847 213.605C222.834 213.612 222.82 213.615 222.805 213.615ZM221.183 211.908C221.165 211.903 221.145 211.903 221.127 211.908C220.983 211.971 220.99 212.046 220.996 212.077C221.033 212.427 221.919 213.059 222.55 213.29C222.362 212.883 221.926 212.096 221.483 211.908C221.386 211.871 221.279 211.871 221.183 211.908Z" fill="#407BFF"/>
<path d="M185.004 220.863C184.336 220.863 183.693 220.769 183.475 220.469C183.419 220.39 183.389 220.296 183.389 220.2C183.389 220.103 183.419 220.009 183.475 219.931C183.516 219.858 183.572 219.795 183.639 219.745C183.705 219.694 183.781 219.658 183.862 219.637C184.729 219.406 186.551 220.444 186.626 220.487C186.649 220.499 186.668 220.517 186.68 220.54C186.692 220.563 186.696 220.589 186.692 220.614C186.687 220.639 186.675 220.663 186.656 220.681C186.638 220.698 186.614 220.709 186.589 220.713C186.066 220.81 185.535 220.861 185.004 220.863ZM184.18 219.85C184.1 219.846 184.019 219.857 183.943 219.881C183.843 219.903 183.755 219.964 183.699 220.05C183.612 220.206 183.643 220.281 183.699 220.325C183.943 220.662 185.259 220.669 186.195 220.531C185.574 220.176 184.889 219.944 184.18 219.85Z" fill="#407BFF"/>
<path d="M186.576 220.719H186.526C185.902 220.437 184.654 219.306 184.748 218.718C184.748 218.58 184.872 218.405 185.209 218.374C185.331 218.36 185.455 218.372 185.572 218.409C185.689 218.445 185.797 218.506 185.89 218.586C186.557 219.13 186.695 220.537 186.701 220.594C186.704 220.615 186.701 220.637 186.693 220.657C186.684 220.677 186.669 220.694 186.651 220.706C186.628 220.719 186.602 220.723 186.576 220.719ZM185.328 218.605H185.253C185.028 218.605 185.016 218.718 185.01 218.743C184.954 219.099 185.802 219.993 186.439 220.375C186.384 219.778 186.144 219.214 185.752 218.762C185.635 218.658 185.484 218.602 185.328 218.605Z" fill="#407BFF"/>
<path d="M192.304 220.594H187.094L186.576 208.513H191.786L192.304 220.594Z" fill="#FFC3BD"/>
<path d="M228.902 212.346L224.103 214.003L219.124 202.61L223.922 200.952L228.902 212.346Z" fill="#FFC3BD"/>
<path d="M222.961 212.808L228.577 211.089C228.677 211.058 228.784 211.063 228.88 211.101C228.977 211.14 229.057 211.211 229.108 211.301L231.448 215.429C231.504 215.529 231.537 215.642 231.544 215.757C231.551 215.873 231.531 215.988 231.488 216.095C231.444 216.202 231.377 216.298 231.291 216.375C231.205 216.452 231.103 216.509 230.992 216.542C229.027 217.111 228.047 217.286 225.589 218.042C224.072 218.505 220.253 219.956 218.101 220.387C215.948 220.819 215.255 218.755 216.091 218.386C219.835 216.729 221.37 214.847 222.263 213.384C222.418 213.113 222.667 212.909 222.961 212.808Z" fill="#263238"/>
<path d="M187.131 219.987H192.816C192.919 219.989 193.018 220.024 193.099 220.089C193.179 220.154 193.235 220.243 193.259 220.344L194.289 224.983C194.314 225.095 194.314 225.212 194.288 225.323C194.262 225.435 194.211 225.54 194.139 225.629C194.067 225.718 193.976 225.79 193.872 225.838C193.768 225.887 193.654 225.911 193.54 225.909C191.487 225.878 188.548 225.753 185.946 225.753C182.932 225.753 181.665 225.921 178.127 225.921C175.993 225.921 175.4 223.758 176.292 223.558C180.367 222.663 182.358 222.57 185.877 220.394C186.25 220.146 186.684 220.005 187.131 219.987Z" fill="#263238"/>
<path d="M202.263 48.7061C203.78 50.1005 205.09 51.495 206.45 52.952C207.811 54.409 209.071 55.916 210.294 57.5231C211.572 59.1557 212.731 60.8776 213.764 62.6757C214.328 63.6668 214.816 64.6994 215.224 65.7648C215.33 66.0587 215.436 66.3401 215.523 66.659C215.626 66.9816 215.711 67.3092 215.779 67.6407L215.885 68.1597L215.96 68.735C216.03 69.2622 216.03 69.7962 215.96 70.3234C215.817 71.3184 215.45 72.2677 214.887 73.0998C214.476 73.7074 213.994 74.2637 213.452 74.7569C212.579 75.5499 211.626 76.2479 210.606 76.8392C208.811 77.8685 206.932 78.7449 204.99 79.4593C201.307 80.8295 197.511 81.8757 193.646 82.5859L192.554 78.8339C195.942 77.3644 199.374 75.7761 202.538 74.0815C204.078 73.2719 205.56 72.3568 206.975 71.3426C207.564 70.9232 208.106 70.441 208.591 69.9044C208.738 69.7457 208.862 69.5668 208.959 69.3729C209.009 69.2666 208.959 69.2791 208.897 69.5042C208.853 69.9232 208.859 69.598 208.759 69.3729C208.728 69.2666 208.672 69.1227 208.616 68.9852C208.56 68.8476 208.491 68.6913 208.422 68.5412C208.084 67.8592 207.707 67.1974 207.293 66.5589C206.329 65.125 205.288 63.7451 204.173 62.4256C203.025 61.0624 201.814 59.7054 200.572 58.3735C199.331 57.0416 198.026 55.6971 196.828 54.459L202.263 48.7061Z" fill="#FFC3BD"/>
<path d="M193.983 78.2399L189.072 79.7281L192.229 84.9308C192.229 84.9308 195.131 83.7302 195.774 81.2602L193.983 78.2399Z" fill="#FFC3BD"/>
<path d="M187.088 81.5666L189.022 85.8625L192.198 84.9308L189.041 79.7281L187.088 81.5666Z" fill="#FFC3BD"/>
<path d="M190.757 50.1193C190.289 55.1219 200.847 62.8633 200.847 62.8633L211.012 55.891C209.247 52.6286 206.666 49.8814 203.524 47.9182C197.696 44.1788 191.343 43.9036 190.757 50.1193Z" fill="#407BFF"/>
<g opacity="0.3">
<path d="M190.757 50.1193C190.289 55.1219 200.847 62.8633 200.847 62.8633L211.012 55.891C209.247 52.6286 206.666 49.8814 203.524 47.9182C197.696 44.1788 191.343 43.9036 190.757 50.1193Z" fill="white"/>
</g>
<path d="M173.472 49.7191C173.472 49.7191 168.911 56.7352 179.743 94.3668L207.287 90.2898C206.9 86.4753 202.295 69.8356 202.139 51.6451C202.132 50.7666 201.948 49.8986 201.598 49.0933C201.247 48.288 200.738 47.5623 200.1 46.9598C199.462 46.3573 198.709 45.8906 197.886 45.5878C197.063 45.285 196.187 45.1524 195.312 45.198C194.513 45.2418 193.69 45.2981 192.872 45.3794C188.94 45.7307 185.032 46.309 181.166 47.1115C178.538 47.7815 175.966 48.6533 173.472 49.7191Z" fill="#407BFF"/>
<g opacity="0.3">
<path d="M173.472 49.7191C173.472 49.7191 168.911 56.7352 179.743 94.3668L207.287 90.2898C206.9 86.4753 202.295 69.8356 202.139 51.6451C202.132 50.7666 201.948 49.8986 201.598 49.0933C201.247 48.288 200.738 47.5623 200.1 46.9598C199.462 46.3573 198.709 45.8906 197.886 45.5878C197.063 45.285 196.187 45.1524 195.312 45.198C194.513 45.2418 193.69 45.2981 192.872 45.3794C188.94 45.7307 185.032 46.309 181.166 47.1115C178.538 47.7815 175.966 48.6533 173.472 49.7191Z" fill="white"/>
</g>
<path opacity="0.2" d="M172.798 61.8128L172.892 61.7065L179.369 62.2817C180.355 66.4714 176.748 72.1868 174.845 74.8381C173.929 70.5365 173.245 66.1884 172.798 61.8128Z" fill="black"/>
<path opacity="0.2" d="M186.576 208.513L186.844 214.741H192.055L191.786 208.513H186.576Z" fill="black"/>
<path opacity="0.2" d="M223.922 200.959L219.124 202.616L221.695 208.488L226.493 206.83L223.922 200.959Z" fill="black"/>
<path d="M189.166 27.1201C190.314 32.1664 191.237 35.0616 189.484 38.3758C186.851 43.3096 180.074 42.8343 177.447 38.232C175.082 34.0861 173.597 26.5323 177.865 23.1305C178.8 22.3779 179.912 21.8769 181.094 21.6749C182.277 21.4728 183.491 21.5764 184.622 21.9758C185.754 22.3752 186.765 23.0573 187.56 23.9574C188.355 24.8576 188.908 25.9462 189.166 27.1201Z" fill="#FFC3BD"/>
<path d="M179.051 32.0663L177.135 33.2419L177.316 26.6761C176.081 26.7292 174.862 26.3756 173.846 25.6693C174.539 25.0065 185.322 21.2233 188.685 21.8799C189.035 21.7361 189.459 21.0857 189.459 21.0857C189.459 21.0857 189.59 21.9049 189.022 22.2176C189.434 22.1363 190.464 22.3364 190.751 22.9429C190.278 22.8136 189.776 22.8422 189.322 23.0242C189.322 23.0242 193.066 23.5933 191.737 28.7959C190.245 34.5301 190.738 37.8255 190.738 37.8255C190.738 37.8255 187.955 39.9829 185.534 39.5827C182.951 36.7312 179.219 33.3045 179.051 32.0663Z" fill="#263238"/>
<path d="M175.381 25.1503C172.343 25.1503 171.251 23.6621 170.471 22.4114C172.655 22.1801 177.204 20.7731 180.579 20.5355C183.955 20.2978 187.656 20.9294 186.539 22.4114C185.422 23.8934 175.381 25.1503 175.381 25.1503Z" fill="#263238"/>
<path d="M176.049 23.7934C173.553 23.4432 171.12 21.0857 172.992 18.8283C173.684 20.4854 178.358 20.2916 181.678 19.5975C186.046 18.6845 189.072 20.1603 187.524 23.143C186.676 24.7751 176.049 23.7934 176.049 23.7934Z" fill="#263238"/>
<path d="M181.746 30.5718C182.103 31.8065 182.046 33.1246 181.584 34.3237C180.96 35.8933 179.575 35.5744 178.851 34.2174C178.227 32.9668 177.753 30.6969 178.813 29.5651C179.874 28.4332 181.297 29.0898 181.746 30.5718Z" fill="#FFC3BD"/>
<path d="M189.515 92.9224C189.515 92.9224 193.983 131.036 197.228 145.968C200.778 162.326 218.294 206.924 218.294 206.924L227.03 203.898C227.03 203.898 215.798 170.318 212.815 147.45C210.525 129.891 207.262 90.2898 207.262 90.2898L189.515 92.9224Z" fill="#263238"/>
<path d="M216.06 204.123C216.016 204.123 217.851 207.875 217.851 207.875L228.053 204.554L226.855 201.503L216.06 204.123Z" fill="#407BFF"/>
<path opacity="0.3" d="M191.98 112.476C193.378 123.069 195.169 135.613 196.741 143.623C199.056 131.348 199.599 115.847 191.98 112.476Z" fill="black"/>
<path d="M179.743 94.3669C179.743 94.3669 176.037 130.173 176.623 146.081C177.21 162.627 184.922 213.54 184.922 213.54H193.74C193.74 213.54 192.117 163.59 192.492 147.344C192.922 129.629 199.549 91.4341 199.549 91.4341L179.743 94.3669Z" fill="#263238"/>
<path d="M183.206 210.02C183.169 210.02 183.706 213.684 183.706 213.684H194.432L194.725 210.413L183.206 210.02Z" fill="#407BFF"/>
<path d="M178.033 58.5111C177.06 60.0619 176.074 61.4563 175.051 62.8883C174.027 64.3203 172.954 65.7022 171.862 67.0779C169.636 69.8687 167.224 72.5053 164.642 74.9695C163.944 75.5948 163.301 76.2201 162.546 76.7891L161.997 77.2331L161.722 77.452C161.622 77.5333 161.579 77.577 161.373 77.7271C160.754 78.169 160.076 78.5186 159.357 78.7651C158.245 79.1458 157.081 79.3566 155.906 79.3905C154.912 79.4239 153.917 79.38 152.93 79.2591C149.321 78.7849 145.8 77.7865 142.478 76.2951L143.557 72.5432C146.75 72.9228 149.965 73.0774 153.18 73.006C153.89 72.9686 154.599 72.8914 155.301 72.7746C155.83 72.6971 156.344 72.5367 156.824 72.2994C156.973 72.2181 157.055 72.1368 157.036 72.118C157.017 72.0992 157.117 72.0367 157.173 71.9804L157.385 71.7866L157.803 71.3926C158.365 70.8924 158.895 70.2858 159.444 69.7355C160.524 68.5725 161.597 67.3781 162.614 66.1087C163.632 64.8393 164.661 63.5636 165.66 62.2505C166.658 60.9373 167.625 59.6054 168.599 58.2735C169.572 56.9415 170.52 55.5408 171.419 54.2464L178.033 58.5111Z" fill="#FFC3BD"/>
<path d="M181.659 56.854C183.755 63.7325 171.581 71.3551 171.581 71.3551L163.669 61.2562C165.452 57.9263 167.654 54.8392 170.221 52.0703C175.606 46.1985 180.061 51.6201 181.659 56.854Z" fill="#407BFF"/>
<g opacity="0.3">
<path d="M181.659 56.854C183.755 63.7325 171.581 71.3551 171.581 71.3551L163.669 61.2562C165.452 57.9263 167.654 54.8392 170.221 52.0703C175.606 46.1985 180.061 51.6201 181.659 56.854Z" fill="white"/>
</g>
<path d="M145.392 72.7746L138.984 71.599L139.657 77.1518C139.657 77.1518 142.99 79.0278 145.404 76.095L145.392 72.7746Z" fill="#FFC3BD"/>
<path d="M136.512 72.8496L137.898 76.8579L139.645 77.1518L138.971 71.5927L136.512 72.8496Z" fill="#FFC3BD"/>
</g>
<path d="M60.3555 293H55.7383L48.2852 280.039H48.1797C48.2109 280.578 48.2383 281.121 48.2617 281.668C48.2852 282.215 48.3086 282.762 48.332 283.309C48.3555 283.848 48.3789 284.391 48.4023 284.938V293H45.1562V275.867H49.7383L57.1797 288.699H57.2617C57.2461 288.168 57.2266 287.641 57.2031 287.117C57.1797 286.594 57.1562 286.07 57.1328 285.547C57.1172 285.023 57.1016 284.5 57.0859 283.977V275.867H60.3555V293ZM76.3047 286.426C76.3047 287.52 76.1562 288.488 75.8594 289.332C75.5703 290.176 75.1445 290.891 74.582 291.477C74.0273 292.055 73.3555 292.492 72.5664 292.789C71.7852 293.086 70.9023 293.234 69.918 293.234C68.9961 293.234 68.1484 293.086 67.375 292.789C66.6094 292.492 65.9414 292.055 65.3711 291.477C64.8086 290.891 64.3711 290.176 64.0586 289.332C63.7539 288.488 63.6016 287.52 63.6016 286.426C63.6016 284.973 63.8594 283.742 64.375 282.734C64.8906 281.727 65.625 280.961 66.5781 280.438C67.5312 279.914 68.668 279.652 69.9883 279.652C71.2148 279.652 72.3008 279.914 73.2461 280.438C74.1992 280.961 74.9453 281.727 75.4844 282.734C76.0312 283.742 76.3047 284.973 76.3047 286.426ZM67.2461 286.426C67.2461 287.285 67.3398 288.008 67.5273 288.594C67.7148 289.18 68.0078 289.621 68.4062 289.918C68.8047 290.215 69.3242 290.363 69.9648 290.363C70.5977 290.363 71.1094 290.215 71.5 289.918C71.8984 289.621 72.1875 289.18 72.3672 288.594C72.5547 288.008 72.6484 287.285 72.6484 286.426C72.6484 285.559 72.5547 284.84 72.3672 284.27C72.1875 283.691 71.8984 283.258 71.5 282.969C71.1016 282.68 70.582 282.535 69.9414 282.535C68.9961 282.535 68.3086 282.859 67.8789 283.508C67.457 284.156 67.2461 285.129 67.2461 286.426ZM93.0508 278.645C92.3555 278.645 91.7383 278.781 91.1992 279.055C90.668 279.32 90.2188 279.707 89.8516 280.215C89.4922 280.723 89.2188 281.336 89.0312 282.055C88.8438 282.773 88.75 283.582 88.75 284.48C88.75 285.691 88.8984 286.727 89.1953 287.586C89.5 288.438 89.9688 289.09 90.6016 289.543C91.2344 289.988 92.0508 290.211 93.0508 290.211C93.7461 290.211 94.4414 290.133 95.1367 289.977C95.8398 289.82 96.6016 289.598 97.4219 289.309V292.355C96.6641 292.668 95.918 292.891 95.1836 293.023C94.4492 293.164 93.625 293.234 92.7109 293.234C90.9453 293.234 89.4922 292.871 88.3516 292.145C87.2188 291.41 86.3789 290.387 85.832 289.074C85.2852 287.754 85.0117 286.215 85.0117 284.457C85.0117 283.16 85.1875 281.973 85.5391 280.895C85.8906 279.816 86.4062 278.883 87.0859 278.094C87.7656 277.305 88.6055 276.695 89.6055 276.266C90.6055 275.836 91.7539 275.621 93.0508 275.621C93.9023 275.621 94.7539 275.73 95.6055 275.949C96.4648 276.16 97.2852 276.453 98.0664 276.828L96.8945 279.781C96.2539 279.477 95.6094 279.211 94.9609 278.984C94.3125 278.758 93.6758 278.645 93.0508 278.645ZM112.82 279.898V293H110.078L109.598 291.324H109.41C109.129 291.77 108.777 292.133 108.355 292.414C107.934 292.695 107.469 292.902 106.961 293.035C106.453 293.168 105.926 293.234 105.379 293.234C104.441 293.234 103.625 293.07 102.93 292.742C102.234 292.406 101.691 291.887 101.301 291.184C100.918 290.48 100.727 289.566 100.727 288.441V279.898H104.301V287.551C104.301 288.488 104.469 289.195 104.805 289.672C105.141 290.148 105.676 290.387 106.41 290.387C107.137 290.387 107.707 290.223 108.121 289.895C108.535 289.559 108.824 289.07 108.988 288.43C109.16 287.781 109.246 286.992 109.246 286.062V279.898H112.82ZM123.883 279.652C124.062 279.652 124.27 279.664 124.504 279.688C124.746 279.703 124.941 279.727 125.09 279.758L124.82 283.109C124.703 283.07 124.535 283.043 124.316 283.027C124.105 283.004 123.922 282.992 123.766 282.992C123.305 282.992 122.855 283.051 122.418 283.168C121.988 283.285 121.602 283.477 121.258 283.742C120.914 284 120.641 284.344 120.438 284.773C120.242 285.195 120.145 285.715 120.145 286.332V293H116.57V279.898H119.277L119.805 282.102H119.98C120.238 281.656 120.559 281.25 120.941 280.883C121.332 280.508 121.773 280.211 122.266 279.992C122.766 279.766 123.305 279.652 123.883 279.652ZM134.781 279.652C134.961 279.652 135.168 279.664 135.402 279.688C135.645 279.703 135.84 279.727 135.988 279.758L135.719 283.109C135.602 283.07 135.434 283.043 135.215 283.027C135.004 283.004 134.82 282.992 134.664 282.992C134.203 282.992 133.754 283.051 133.316 283.168C132.887 283.285 132.5 283.477 132.156 283.742C131.812 284 131.539 284.344 131.336 284.773C131.141 285.195 131.043 285.715 131.043 286.332V293H127.469V279.898H130.176L130.703 282.102H130.879C131.137 281.656 131.457 281.25 131.84 280.883C132.23 280.508 132.672 280.211 133.164 279.992C133.664 279.766 134.203 279.652 134.781 279.652ZM143.77 279.652C144.98 279.652 146.023 279.887 146.898 280.355C147.773 280.816 148.449 281.488 148.926 282.371C149.402 283.254 149.641 284.332 149.641 285.605V287.34H141.191C141.23 288.348 141.531 289.141 142.094 289.719C142.664 290.289 143.453 290.574 144.461 290.574C145.297 290.574 146.062 290.488 146.758 290.316C147.453 290.145 148.168 289.887 148.902 289.543V292.309C148.254 292.629 147.574 292.863 146.863 293.012C146.16 293.16 145.305 293.234 144.297 293.234C142.984 293.234 141.82 292.992 140.805 292.508C139.797 292.023 139.004 291.285 138.426 290.293C137.855 289.301 137.57 288.051 137.57 286.543C137.57 285.012 137.828 283.738 138.344 282.723C138.867 281.699 139.594 280.934 140.523 280.426C141.453 279.91 142.535 279.652 143.77 279.652ZM143.793 282.195C143.098 282.195 142.52 282.418 142.059 282.863C141.605 283.309 141.344 284.008 141.273 284.961H146.289C146.281 284.43 146.184 283.957 145.996 283.543C145.816 283.129 145.543 282.801 145.176 282.559C144.816 282.316 144.355 282.195 143.793 282.195ZM159.988 279.652C161.387 279.652 162.512 280.035 163.363 280.801C164.215 281.559 164.641 282.777 164.641 284.457V293H161.066V285.348C161.066 284.41 160.895 283.703 160.551 283.227C160.215 282.75 159.684 282.512 158.957 282.512C157.863 282.512 157.117 282.883 156.719 283.625C156.32 284.367 156.121 285.438 156.121 286.836V293H152.547V279.898H155.277L155.758 281.574H155.957C156.238 281.121 156.586 280.754 157 280.473C157.422 280.191 157.887 279.984 158.395 279.852C158.91 279.719 159.441 279.652 159.988 279.652ZM173.84 290.387C174.23 290.387 174.609 290.348 174.977 290.27C175.352 290.191 175.723 290.094 176.09 289.977V292.637C175.707 292.809 175.23 292.949 174.66 293.059C174.098 293.176 173.48 293.234 172.809 293.234C172.027 293.234 171.324 293.109 170.699 292.859C170.082 292.602 169.594 292.16 169.234 291.535C168.883 290.902 168.707 290.023 168.707 288.898V282.582H166.996V281.07L168.965 279.875L169.996 277.109H172.281V279.898H175.949V282.582H172.281V288.898C172.281 289.398 172.422 289.773 172.703 290.023C172.992 290.266 173.371 290.387 173.84 290.387ZM190.738 275.867C192.949 275.867 194.562 276.344 195.578 277.297C196.594 278.242 197.102 279.547 197.102 281.211C197.102 281.961 196.988 282.68 196.762 283.367C196.535 284.047 196.164 284.652 195.648 285.184C195.141 285.715 194.461 286.137 193.609 286.449C192.758 286.754 191.707 286.906 190.457 286.906H188.898V293H185.266V275.867H190.738ZM190.551 278.844H188.898V283.93H190.094C190.773 283.93 191.363 283.84 191.863 283.66C192.363 283.48 192.75 283.199 193.023 282.816C193.297 282.434 193.434 281.941 193.434 281.34C193.434 280.496 193.199 279.871 192.73 279.465C192.262 279.051 191.535 278.844 190.551 278.844ZM207.367 279.652C207.547 279.652 207.754 279.664 207.988 279.688C208.23 279.703 208.426 279.727 208.574 279.758L208.305 283.109C208.188 283.07 208.02 283.043 207.801 283.027C207.59 283.004 207.406 282.992 207.25 282.992C206.789 282.992 206.34 283.051 205.902 283.168C205.473 283.285 205.086 283.477 204.742 283.742C204.398 284 204.125 284.344 203.922 284.773C203.727 285.195 203.629 285.715 203.629 286.332V293H200.055V279.898H202.762L203.289 282.102H203.465C203.723 281.656 204.043 281.25 204.426 280.883C204.816 280.508 205.258 280.211 205.75 279.992C206.25 279.766 206.789 279.652 207.367 279.652ZM222.859 286.426C222.859 287.52 222.711 288.488 222.414 289.332C222.125 290.176 221.699 290.891 221.137 291.477C220.582 292.055 219.91 292.492 219.121 292.789C218.34 293.086 217.457 293.234 216.473 293.234C215.551 293.234 214.703 293.086 213.93 292.789C213.164 292.492 212.496 292.055 211.926 291.477C211.363 290.891 210.926 290.176 210.613 289.332C210.309 288.488 210.156 287.52 210.156 286.426C210.156 284.973 210.414 283.742 210.93 282.734C211.445 281.727 212.18 280.961 213.133 280.438C214.086 279.914 215.223 279.652 216.543 279.652C217.77 279.652 218.855 279.914 219.801 280.438C220.754 280.961 221.5 281.727 222.039 282.734C222.586 283.742 222.859 284.973 222.859 286.426ZM213.801 286.426C213.801 287.285 213.895 288.008 214.082 288.594C214.27 289.18 214.562 289.621 214.961 289.918C215.359 290.215 215.879 290.363 216.52 290.363C217.152 290.363 217.664 290.215 218.055 289.918C218.453 289.621 218.742 289.18 218.922 288.594C219.109 288.008 219.203 287.285 219.203 286.426C219.203 285.559 219.109 284.84 218.922 284.27C218.742 283.691 218.453 283.258 218.055 282.969C217.656 282.68 217.137 282.535 216.496 282.535C215.551 282.535 214.863 282.859 214.434 283.508C214.012 284.156 213.801 285.129 213.801 286.426ZM224.758 298.766C224.352 298.766 223.93 298.734 223.492 298.672C223.055 298.617 222.691 298.551 222.402 298.473V295.66C222.691 295.738 222.965 295.793 223.223 295.824C223.473 295.863 223.758 295.883 224.078 295.883C224.562 295.883 224.973 295.746 225.309 295.473C225.645 295.207 225.812 294.68 225.812 293.891V279.898H229.387V294.418C229.387 295.215 229.234 295.941 228.93 296.598C228.625 297.262 228.133 297.789 227.453 298.18C226.773 298.57 225.875 298.766 224.758 298.766ZM225.66 276.512C225.66 275.84 225.848 275.383 226.223 275.141C226.605 274.891 227.066 274.766 227.605 274.766C228.137 274.766 228.594 274.891 228.977 275.141C229.359 275.383 229.551 275.84 229.551 276.512C229.551 277.176 229.359 277.637 228.977 277.895C228.594 278.145 228.137 278.27 227.605 278.27C227.066 278.27 226.605 278.145 226.223 277.895C225.848 277.637 225.66 277.176 225.66 276.512ZM238.551 279.652C239.762 279.652 240.805 279.887 241.68 280.355C242.555 280.816 243.23 281.488 243.707 282.371C244.184 283.254 244.422 284.332 244.422 285.605V287.34H235.973C236.012 288.348 236.312 289.141 236.875 289.719C237.445 290.289 238.234 290.574 239.242 290.574C240.078 290.574 240.844 290.488 241.539 290.316C242.234 290.145 242.949 289.887 243.684 289.543V292.309C243.035 292.629 242.355 292.863 241.645 293.012C240.941 293.16 240.086 293.234 239.078 293.234C237.766 293.234 236.602 292.992 235.586 292.508C234.578 292.023 233.785 291.285 233.207 290.293C232.637 289.301 232.352 288.051 232.352 286.543C232.352 285.012 232.609 283.738 233.125 282.723C233.648 281.699 234.375 280.934 235.305 280.426C236.234 279.91 237.316 279.652 238.551 279.652ZM238.574 282.195C237.879 282.195 237.301 282.418 236.84 282.863C236.387 283.309 236.125 284.008 236.055 284.961H241.07C241.062 284.43 240.965 283.957 240.777 283.543C240.598 283.129 240.324 282.801 239.957 282.559C239.598 282.316 239.137 282.195 238.574 282.195ZM252.648 293.234C251.352 293.234 250.246 293 249.332 292.531C248.418 292.055 247.723 291.32 247.246 290.328C246.77 289.336 246.531 288.066 246.531 286.52C246.531 284.918 246.801 283.613 247.34 282.605C247.887 281.59 248.641 280.844 249.602 280.367C250.57 279.891 251.691 279.652 252.965 279.652C253.871 279.652 254.652 279.742 255.309 279.922C255.973 280.094 256.551 280.301 257.043 280.543L255.988 283.309C255.426 283.082 254.902 282.898 254.418 282.758C253.934 282.609 253.449 282.535 252.965 282.535C252.34 282.535 251.82 282.684 251.406 282.98C250.992 283.27 250.684 283.707 250.48 284.293C250.277 284.879 250.176 285.613 250.176 286.496C250.176 287.363 250.285 288.082 250.504 288.652C250.723 289.223 251.039 289.648 251.453 289.93C251.867 290.203 252.371 290.34 252.965 290.34C253.707 290.34 254.367 290.242 254.945 290.047C255.523 289.844 256.086 289.562 256.633 289.203V292.262C256.086 292.605 255.512 292.852 254.91 293C254.316 293.156 253.562 293.234 252.648 293.234ZM265.199 290.387C265.59 290.387 265.969 290.348 266.336 290.27C266.711 290.191 267.082 290.094 267.449 289.977V292.637C267.066 292.809 266.59 292.949 266.02 293.059C265.457 293.176 264.84 293.234 264.168 293.234C263.387 293.234 262.684 293.109 262.059 292.859C261.441 292.602 260.953 292.16 260.594 291.535C260.242 290.902 260.066 290.023 260.066 288.898V282.582H258.355V281.07L260.324 279.875L261.355 277.109H263.641V279.898H267.309V282.582H263.641V288.898C263.641 289.398 263.781 289.773 264.062 290.023C264.352 290.266 264.73 290.387 265.199 290.387Z" fill="#080808"/>
<path d="M41.1719 325.891C41.1719 326.568 41.0052 327.151 40.6719 327.641C40.3438 328.13 39.8698 328.505 39.25 328.766C38.6354 329.026 37.901 329.156 37.0469 329.156C36.6302 329.156 36.2318 329.133 35.8516 329.086C35.4714 329.039 35.112 328.971 34.7734 328.883C34.4401 328.789 34.1354 328.677 33.8594 328.547V326.781C34.3229 326.984 34.8411 327.169 35.4141 327.336C35.987 327.497 36.5703 327.578 37.1641 327.578C37.6484 327.578 38.0495 327.516 38.3672 327.391C38.6901 327.26 38.9297 327.078 39.0859 326.844C39.2422 326.604 39.3203 326.326 39.3203 326.008C39.3203 325.669 39.2292 325.383 39.0469 325.148C38.8646 324.914 38.5885 324.701 38.2188 324.508C37.8542 324.31 37.3958 324.099 36.8438 323.875C36.4688 323.724 36.1094 323.552 35.7656 323.359C35.4271 323.167 35.125 322.94 34.8594 322.68C34.5938 322.419 34.3828 322.112 34.2266 321.758C34.0755 321.398 34 320.977 34 320.492C34 319.846 34.1536 319.294 34.4609 318.836C34.7734 318.378 35.2109 318.026 35.7734 317.781C36.3411 317.536 37.0026 317.414 37.7578 317.414C38.3568 317.414 38.9193 317.477 39.4453 317.602C39.9766 317.727 40.4974 317.904 41.0078 318.133L40.4141 319.641C39.9453 319.448 39.4896 319.294 39.0469 319.18C38.6094 319.065 38.1615 319.008 37.7031 319.008C37.3073 319.008 36.9714 319.068 36.6953 319.188C36.4193 319.307 36.2083 319.477 36.0625 319.695C35.9219 319.909 35.8516 320.164 35.8516 320.461C35.8516 320.794 35.9323 321.076 36.0938 321.305C36.2604 321.529 36.5156 321.734 36.8594 321.922C37.2083 322.109 37.6562 322.318 38.2031 322.547C38.8333 322.807 39.3672 323.081 39.8047 323.367C40.2474 323.654 40.5859 323.997 40.8203 324.398C41.0547 324.794 41.1719 325.292 41.1719 325.891ZM50.8438 324.656C50.8438 325.375 50.75 326.013 50.5625 326.57C50.375 327.128 50.1016 327.599 49.7422 327.984C49.3828 328.365 48.9505 328.656 48.4453 328.859C47.9401 329.057 47.3698 329.156 46.7344 329.156C46.1406 329.156 45.5964 329.057 45.1016 328.859C44.6068 328.656 44.1771 328.365 43.8125 327.984C43.4531 327.599 43.1745 327.128 42.9766 326.57C42.7786 326.013 42.6797 325.375 42.6797 324.656C42.6797 323.703 42.8438 322.896 43.1719 322.234C43.5052 321.568 43.9792 321.06 44.5938 320.711C45.2083 320.362 45.9401 320.188 46.7891 320.188C47.5859 320.188 48.2891 320.362 48.8984 320.711C49.5078 321.06 49.9844 321.568 50.3281 322.234C50.6719 322.901 50.8438 323.708 50.8438 324.656ZM44.5703 324.656C44.5703 325.286 44.6458 325.826 44.7969 326.273C44.9531 326.721 45.1927 327.065 45.5156 327.305C45.8385 327.539 46.2552 327.656 46.7656 327.656C47.276 327.656 47.6927 327.539 48.0156 327.305C48.3385 327.065 48.5755 326.721 48.7266 326.273C48.8776 325.826 48.9531 325.286 48.9531 324.656C48.9531 324.026 48.8776 323.492 48.7266 323.055C48.5755 322.612 48.3385 322.276 48.0156 322.047C47.6927 321.812 47.2734 321.695 46.7578 321.695C45.9974 321.695 45.4427 321.951 45.0938 322.461C44.7448 322.971 44.5703 323.703 44.5703 324.656ZM57.3359 320.188C57.4818 320.188 57.6406 320.195 57.8125 320.211C57.9844 320.227 58.1328 320.247 58.2578 320.273L58.0859 321.992C57.9766 321.961 57.8411 321.938 57.6797 321.922C57.5234 321.906 57.3828 321.898 57.2578 321.898C56.9297 321.898 56.6172 321.953 56.3203 322.062C56.0234 322.167 55.7604 322.328 55.5312 322.547C55.3021 322.76 55.1224 323.029 54.9922 323.352C54.862 323.674 54.7969 324.049 54.7969 324.477V329H52.9531V320.352H54.3906L54.6406 321.875H54.7266C54.8984 321.568 55.112 321.286 55.3672 321.031C55.6224 320.776 55.9141 320.573 56.2422 320.422C56.5755 320.266 56.9401 320.188 57.3359 320.188ZM64.2422 320.188C64.388 320.188 64.5469 320.195 64.7188 320.211C64.8906 320.227 65.0391 320.247 65.1641 320.273L64.9922 321.992C64.8828 321.961 64.7474 321.938 64.5859 321.922C64.4297 321.906 64.2891 321.898 64.1641 321.898C63.8359 321.898 63.5234 321.953 63.2266 322.062C62.9297 322.167 62.6667 322.328 62.4375 322.547C62.2083 322.76 62.0286 323.029 61.8984 323.352C61.7682 323.674 61.7031 324.049 61.7031 324.477V329H59.8594V320.352H61.2969L61.5469 321.875H61.6328C61.8047 321.568 62.0182 321.286 62.2734 321.031C62.5286 320.776 62.8203 320.573 63.1484 320.422C63.4818 320.266 63.8464 320.188 64.2422 320.188ZM65.4609 320.352H67.4609L69.2344 325.289C69.3125 325.513 69.3828 325.734 69.4453 325.953C69.513 326.167 69.5703 326.378 69.6172 326.586C69.6693 326.794 69.7109 327.003 69.7422 327.211H69.7891C69.8411 326.94 69.9141 326.638 70.0078 326.305C70.1068 325.966 70.2161 325.628 70.3359 325.289L72.0391 320.352H74.0156L70.3047 330.188C70.0911 330.75 69.8281 331.229 69.5156 331.625C69.2083 332.026 68.8438 332.328 68.4219 332.531C68 332.74 67.5182 332.844 66.9766 332.844C66.7161 332.844 66.4896 332.828 66.2969 332.797C66.1042 332.771 65.9401 332.742 65.8047 332.711V331.242C65.9141 331.268 66.0521 331.292 66.2188 331.312C66.3854 331.333 66.5573 331.344 66.7344 331.344C67.0625 331.344 67.3464 331.279 67.5859 331.148C67.8255 331.018 68.0286 330.833 68.1953 330.594C68.362 330.359 68.5 330.091 68.6094 329.789L68.9141 328.977L65.4609 320.352ZM77.1797 327.141L77.2891 327.32C77.1953 327.695 77.0755 328.099 76.9297 328.531C76.7839 328.964 76.625 329.396 76.4531 329.828C76.2812 330.266 76.1068 330.677 75.9297 331.062H74.5859C74.6953 330.641 74.7995 330.198 74.8984 329.734C75.0026 329.276 75.0964 328.823 75.1797 328.375C75.2682 327.922 75.3385 327.51 75.3906 327.141H77.1797ZM87.0625 327.672C87.3021 327.672 87.5391 327.651 87.7734 327.609C88.0078 327.562 88.2214 327.508 88.4141 327.445V328.836C88.2109 328.924 87.9479 329 87.625 329.062C87.3021 329.125 86.9661 329.156 86.6172 329.156C86.1276 329.156 85.6875 329.076 85.2969 328.914C84.9062 328.747 84.5964 328.464 84.3672 328.062C84.138 327.661 84.0234 327.107 84.0234 326.398V321.75H82.8438V320.93L84.1094 320.281L84.7109 318.43H85.8672V320.352H88.3438V321.75H85.8672V326.375C85.8672 326.812 85.9766 327.138 86.1953 327.352C86.4141 327.565 86.7031 327.672 87.0625 327.672ZM92.0078 316.844V319.898C92.0078 320.216 91.9974 320.526 91.9766 320.828C91.9609 321.13 91.9427 321.365 91.9219 321.531H92.0234C92.2057 321.229 92.4297 320.982 92.6953 320.789C92.9609 320.591 93.2578 320.443 93.5859 320.344C93.9193 320.245 94.2734 320.195 94.6484 320.195C95.3099 320.195 95.8724 320.307 96.3359 320.531C96.7995 320.75 97.1536 321.091 97.3984 321.555C97.6484 322.018 97.7734 322.62 97.7734 323.359V329H95.9375V323.703C95.9375 323.031 95.7995 322.529 95.5234 322.195C95.2474 321.857 94.8203 321.688 94.2422 321.688C93.6849 321.688 93.2422 321.805 92.9141 322.039C92.5911 322.268 92.3594 322.609 92.2188 323.062C92.0781 323.51 92.0078 324.057 92.0078 324.703V329H90.1719V316.844H92.0078ZM103.789 320.188C104.56 320.188 105.221 320.346 105.773 320.664C106.326 320.982 106.75 321.432 107.047 322.016C107.344 322.599 107.492 323.297 107.492 324.109V325.094H101.719C101.74 325.932 101.964 326.578 102.391 327.031C102.823 327.484 103.427 327.711 104.203 327.711C104.755 327.711 105.25 327.659 105.688 327.555C106.13 327.445 106.586 327.286 107.055 327.078V328.57C106.622 328.773 106.182 328.922 105.734 329.016C105.286 329.109 104.75 329.156 104.125 329.156C103.276 329.156 102.529 328.992 101.883 328.664C101.242 328.331 100.74 327.836 100.375 327.18C100.016 326.523 99.8359 325.708 99.8359 324.734C99.8359 323.766 100 322.943 100.328 322.266C100.656 321.589 101.117 321.073 101.711 320.719C102.305 320.365 102.997 320.188 103.789 320.188ZM103.789 321.57C103.211 321.57 102.742 321.758 102.383 322.133C102.029 322.508 101.82 323.057 101.758 323.781H105.695C105.69 323.349 105.617 322.966 105.477 322.633C105.341 322.299 105.133 322.039 104.852 321.852C104.576 321.664 104.221 321.57 103.789 321.57ZM113.945 320.188C114.091 320.188 114.25 320.195 114.422 320.211C114.594 320.227 114.742 320.247 114.867 320.273L114.695 321.992C114.586 321.961 114.451 321.938 114.289 321.922C114.133 321.906 113.992 321.898 113.867 321.898C113.539 321.898 113.227 321.953 112.93 322.062C112.633 322.167 112.37 322.328 112.141 322.547C111.911 322.76 111.732 323.029 111.602 323.352C111.471 323.674 111.406 324.049 111.406 324.477V329H109.562V320.352H111L111.25 321.875H111.336C111.508 321.568 111.721 321.286 111.977 321.031C112.232 320.776 112.523 320.573 112.852 320.422C113.185 320.266 113.549 320.188 113.945 320.188ZM119.914 320.188C120.685 320.188 121.346 320.346 121.898 320.664C122.451 320.982 122.875 321.432 123.172 322.016C123.469 322.599 123.617 323.297 123.617 324.109V325.094H117.844C117.865 325.932 118.089 326.578 118.516 327.031C118.948 327.484 119.552 327.711 120.328 327.711C120.88 327.711 121.375 327.659 121.812 327.555C122.255 327.445 122.711 327.286 123.18 327.078V328.57C122.747 328.773 122.307 328.922 121.859 329.016C121.411 329.109 120.875 329.156 120.25 329.156C119.401 329.156 118.654 328.992 118.008 328.664C117.367 328.331 116.865 327.836 116.5 327.18C116.141 326.523 115.961 325.708 115.961 324.734C115.961 323.766 116.125 322.943 116.453 322.266C116.781 321.589 117.242 321.073 117.836 320.719C118.43 320.365 119.122 320.188 119.914 320.188ZM119.914 321.57C119.336 321.57 118.867 321.758 118.508 322.133C118.154 322.508 117.945 323.057 117.883 323.781H121.82C121.815 323.349 121.742 322.966 121.602 322.633C121.466 322.299 121.258 322.039 120.977 321.852C120.701 321.664 120.346 321.57 119.914 321.57ZM133.234 320.188C134.328 320.188 135.154 320.43 135.711 320.914C136.273 321.398 136.555 322.154 136.555 323.18V329H135.25L134.898 327.773H134.836C134.591 328.086 134.339 328.344 134.078 328.547C133.818 328.75 133.516 328.901 133.172 329C132.833 329.104 132.419 329.156 131.93 329.156C131.414 329.156 130.953 329.062 130.547 328.875C130.141 328.682 129.82 328.391 129.586 328C129.352 327.609 129.234 327.115 129.234 326.516C129.234 325.625 129.565 324.956 130.227 324.508C130.893 324.06 131.898 323.812 133.242 323.766L134.742 323.711V323.258C134.742 322.659 134.602 322.232 134.32 321.977C134.044 321.721 133.654 321.594 133.148 321.594C132.716 321.594 132.297 321.656 131.891 321.781C131.484 321.906 131.089 322.06 130.703 322.242L130.109 320.945C130.531 320.721 131.01 320.539 131.547 320.398C132.089 320.258 132.651 320.188 133.234 320.188ZM134.734 324.867L133.617 324.906C132.701 324.938 132.057 325.094 131.688 325.375C131.318 325.656 131.133 326.042 131.133 326.531C131.133 326.958 131.26 327.271 131.516 327.469C131.771 327.661 132.107 327.758 132.523 327.758C133.159 327.758 133.685 327.578 134.102 327.219C134.523 326.854 134.734 326.32 134.734 325.617V324.867ZM143.508 320.188C143.654 320.188 143.812 320.195 143.984 320.211C144.156 320.227 144.305 320.247 144.43 320.273L144.258 321.992C144.148 321.961 144.013 321.938 143.852 321.922C143.695 321.906 143.555 321.898 143.43 321.898C143.102 321.898 142.789 321.953 142.492 322.062C142.195 322.167 141.932 322.328 141.703 322.547C141.474 322.76 141.294 323.029 141.164 323.352C141.034 323.674 140.969 324.049 140.969 324.477V329H139.125V320.352H140.562L140.812 321.875H140.898C141.07 321.568 141.284 321.286 141.539 321.031C141.794 320.776 142.086 320.573 142.414 320.422C142.747 320.266 143.112 320.188 143.508 320.188ZM149.477 320.188C150.247 320.188 150.909 320.346 151.461 320.664C152.013 320.982 152.438 321.432 152.734 322.016C153.031 322.599 153.18 323.297 153.18 324.109V325.094H147.406C147.427 325.932 147.651 326.578 148.078 327.031C148.51 327.484 149.115 327.711 149.891 327.711C150.443 327.711 150.938 327.659 151.375 327.555C151.818 327.445 152.273 327.286 152.742 327.078V328.57C152.31 328.773 151.87 328.922 151.422 329.016C150.974 329.109 150.438 329.156 149.812 329.156C148.964 329.156 148.216 328.992 147.57 328.664C146.93 328.331 146.427 327.836 146.062 327.18C145.703 326.523 145.523 325.708 145.523 324.734C145.523 323.766 145.688 322.943 146.016 322.266C146.344 321.589 146.805 321.073 147.398 320.719C147.992 320.365 148.685 320.188 149.477 320.188ZM149.477 321.57C148.898 321.57 148.43 321.758 148.07 322.133C147.716 322.508 147.508 323.057 147.445 323.781H151.383C151.378 323.349 151.305 322.966 151.164 322.633C151.029 322.299 150.82 322.039 150.539 321.852C150.263 321.664 149.909 321.57 149.477 321.57ZM163.914 320.188C164.888 320.188 165.646 320.44 166.188 320.945C166.734 321.445 167.008 322.25 167.008 323.359V329H165.172V323.703C165.172 323.031 165.034 322.529 164.758 322.195C164.482 321.857 164.055 321.688 163.477 321.688C162.638 321.688 162.055 321.945 161.727 322.461C161.404 322.977 161.242 323.724 161.242 324.703V329H159.406V320.352H160.836L161.094 321.523H161.195C161.383 321.221 161.615 320.974 161.891 320.781C162.172 320.583 162.484 320.435 162.828 320.336C163.177 320.237 163.539 320.188 163.914 320.188ZM177.234 324.656C177.234 325.375 177.141 326.013 176.953 326.57C176.766 327.128 176.492 327.599 176.133 327.984C175.773 328.365 175.341 328.656 174.836 328.859C174.331 329.057 173.76 329.156 173.125 329.156C172.531 329.156 171.987 329.057 171.492 328.859C170.997 328.656 170.568 328.365 170.203 327.984C169.844 327.599 169.565 327.128 169.367 326.57C169.169 326.013 169.07 325.375 169.07 324.656C169.07 323.703 169.234 322.896 169.562 322.234C169.896 321.568 170.37 321.06 170.984 320.711C171.599 320.362 172.331 320.188 173.18 320.188C173.977 320.188 174.68 320.362 175.289 320.711C175.898 321.06 176.375 321.568 176.719 322.234C177.062 322.901 177.234 323.708 177.234 324.656ZM170.961 324.656C170.961 325.286 171.036 325.826 171.188 326.273C171.344 326.721 171.583 327.065 171.906 327.305C172.229 327.539 172.646 327.656 173.156 327.656C173.667 327.656 174.083 327.539 174.406 327.305C174.729 327.065 174.966 326.721 175.117 326.273C175.268 325.826 175.344 325.286 175.344 324.656C175.344 324.026 175.268 323.492 175.117 323.055C174.966 322.612 174.729 322.276 174.406 322.047C174.083 321.812 173.664 321.695 173.148 321.695C172.388 321.695 171.833 321.951 171.484 322.461C171.135 322.971 170.961 323.703 170.961 324.656ZM186.984 329.156C186.167 329.156 185.458 328.997 184.859 328.68C184.26 328.362 183.799 327.875 183.477 327.219C183.154 326.562 182.992 325.729 182.992 324.719C182.992 323.667 183.169 322.807 183.523 322.141C183.878 321.474 184.367 320.982 184.992 320.664C185.622 320.346 186.344 320.188 187.156 320.188C187.672 320.188 188.138 320.24 188.555 320.344C188.977 320.443 189.333 320.565 189.625 320.711L189.078 322.18C188.76 322.049 188.435 321.94 188.102 321.852C187.768 321.763 187.448 321.719 187.141 321.719C186.635 321.719 186.214 321.831 185.875 322.055C185.542 322.279 185.292 322.612 185.125 323.055C184.964 323.497 184.883 324.047 184.883 324.703C184.883 325.339 184.966 325.875 185.133 326.312C185.299 326.745 185.547 327.073 185.875 327.297C186.203 327.516 186.607 327.625 187.086 327.625C187.56 327.625 187.984 327.568 188.359 327.453C188.734 327.339 189.089 327.19 189.422 327.008V328.602C189.094 328.789 188.742 328.927 188.367 329.016C187.992 329.109 187.531 329.156 186.984 329.156ZM199.109 324.656C199.109 325.375 199.016 326.013 198.828 326.57C198.641 327.128 198.367 327.599 198.008 327.984C197.648 328.365 197.216 328.656 196.711 328.859C196.206 329.057 195.635 329.156 195 329.156C194.406 329.156 193.862 329.057 193.367 328.859C192.872 328.656 192.443 328.365 192.078 327.984C191.719 327.599 191.44 327.128 191.242 326.57C191.044 326.013 190.945 325.375 190.945 324.656C190.945 323.703 191.109 322.896 191.438 322.234C191.771 321.568 192.245 321.06 192.859 320.711C193.474 320.362 194.206 320.188 195.055 320.188C195.852 320.188 196.555 320.362 197.164 320.711C197.773 321.06 198.25 321.568 198.594 322.234C198.938 322.901 199.109 323.708 199.109 324.656ZM192.836 324.656C192.836 325.286 192.911 325.826 193.062 326.273C193.219 326.721 193.458 327.065 193.781 327.305C194.104 327.539 194.521 327.656 195.031 327.656C195.542 327.656 195.958 327.539 196.281 327.305C196.604 327.065 196.841 326.721 196.992 326.273C197.143 325.826 197.219 325.286 197.219 324.656C197.219 324.026 197.143 323.492 196.992 323.055C196.841 322.612 196.604 322.276 196.281 322.047C195.958 321.812 195.539 321.695 195.023 321.695C194.263 321.695 193.708 321.951 193.359 322.461C193.01 322.971 192.836 323.703 192.836 324.656ZM204.125 329.156C203.094 329.156 202.266 328.781 201.641 328.031C201.021 327.276 200.711 326.164 200.711 324.695C200.711 323.211 201.026 322.089 201.656 321.328C202.292 320.568 203.128 320.188 204.164 320.188C204.602 320.188 204.984 320.247 205.312 320.367C205.641 320.482 205.922 320.638 206.156 320.836C206.396 321.034 206.599 321.255 206.766 321.5H206.852C206.826 321.339 206.794 321.107 206.758 320.805C206.727 320.497 206.711 320.214 206.711 319.953V316.844H208.555V329H207.117L206.789 327.82H206.711C206.555 328.07 206.357 328.297 206.117 328.5C205.883 328.698 205.602 328.857 205.273 328.977C204.951 329.096 204.568 329.156 204.125 329.156ZM204.641 327.664C205.427 327.664 205.982 327.438 206.305 326.984C206.628 326.531 206.794 325.852 206.805 324.945V324.703C206.805 323.734 206.648 322.992 206.336 322.477C206.023 321.956 205.453 321.695 204.625 321.695C203.964 321.695 203.458 321.964 203.109 322.5C202.766 323.031 202.594 323.773 202.594 324.727C202.594 325.68 202.766 326.409 203.109 326.914C203.458 327.414 203.969 327.664 204.641 327.664ZM214.633 320.188C215.404 320.188 216.065 320.346 216.617 320.664C217.169 320.982 217.594 321.432 217.891 322.016C218.188 322.599 218.336 323.297 218.336 324.109V325.094H212.562C212.583 325.932 212.807 326.578 213.234 327.031C213.667 327.484 214.271 327.711 215.047 327.711C215.599 327.711 216.094 327.659 216.531 327.555C216.974 327.445 217.43 327.286 217.898 327.078V328.57C217.466 328.773 217.026 328.922 216.578 329.016C216.13 329.109 215.594 329.156 214.969 329.156C214.12 329.156 213.372 328.992 212.727 328.664C212.086 328.331 211.583 327.836 211.219 327.18C210.859 326.523 210.68 325.708 210.68 324.734C210.68 323.766 210.844 322.943 211.172 322.266C211.5 321.589 211.961 321.073 212.555 320.719C213.148 320.365 213.841 320.188 214.633 320.188ZM214.633 321.57C214.055 321.57 213.586 321.758 213.227 322.133C212.872 322.508 212.664 323.057 212.602 323.781H216.539C216.534 323.349 216.461 322.966 216.32 322.633C216.185 322.299 215.977 322.039 215.695 321.852C215.419 321.664 215.065 321.57 214.633 321.57ZM228.047 329.156C227.229 329.156 226.521 328.997 225.922 328.68C225.323 328.362 224.862 327.875 224.539 327.219C224.216 326.562 224.055 325.729 224.055 324.719C224.055 323.667 224.232 322.807 224.586 322.141C224.94 321.474 225.43 320.982 226.055 320.664C226.685 320.346 227.406 320.188 228.219 320.188C228.734 320.188 229.201 320.24 229.617 320.344C230.039 320.443 230.396 320.565 230.688 320.711L230.141 322.18C229.823 322.049 229.497 321.94 229.164 321.852C228.831 321.763 228.51 321.719 228.203 321.719C227.698 321.719 227.276 321.831 226.938 322.055C226.604 322.279 226.354 322.612 226.188 323.055C226.026 323.497 225.945 324.047 225.945 324.703C225.945 325.339 226.029 325.875 226.195 326.312C226.362 326.745 226.609 327.073 226.938 327.297C227.266 327.516 227.669 327.625 228.148 327.625C228.622 327.625 229.047 327.568 229.422 327.453C229.797 327.339 230.151 327.19 230.484 327.008V328.602C230.156 328.789 229.805 328.927 229.43 329.016C229.055 329.109 228.594 329.156 228.047 329.156ZM240.172 324.656C240.172 325.375 240.078 326.013 239.891 326.57C239.703 327.128 239.43 327.599 239.07 327.984C238.711 328.365 238.279 328.656 237.773 328.859C237.268 329.057 236.698 329.156 236.062 329.156C235.469 329.156 234.924 329.057 234.43 328.859C233.935 328.656 233.505 328.365 233.141 327.984C232.781 327.599 232.503 327.128 232.305 326.57C232.107 326.013 232.008 325.375 232.008 324.656C232.008 323.703 232.172 322.896 232.5 322.234C232.833 321.568 233.307 321.06 233.922 320.711C234.536 320.362 235.268 320.188 236.117 320.188C236.914 320.188 237.617 320.362 238.227 320.711C238.836 321.06 239.312 321.568 239.656 322.234C240 322.901 240.172 323.708 240.172 324.656ZM233.898 324.656C233.898 325.286 233.974 325.826 234.125 326.273C234.281 326.721 234.521 327.065 234.844 327.305C235.167 327.539 235.583 327.656 236.094 327.656C236.604 327.656 237.021 327.539 237.344 327.305C237.667 327.065 237.904 326.721 238.055 326.273C238.206 325.826 238.281 325.286 238.281 324.656C238.281 324.026 238.206 323.492 238.055 323.055C237.904 322.612 237.667 322.276 237.344 322.047C237.021 321.812 236.602 321.695 236.086 321.695C235.326 321.695 234.771 321.951 234.422 322.461C234.073 322.971 233.898 323.703 233.898 324.656ZM244.125 329H242.281V316.844H244.125V329ZM248.594 329H246.75V316.844H248.594V329ZM254.609 320.188C255.703 320.188 256.529 320.43 257.086 320.914C257.648 321.398 257.93 322.154 257.93 323.18V329H256.625L256.273 327.773H256.211C255.966 328.086 255.714 328.344 255.453 328.547C255.193 328.75 254.891 328.901 254.547 329C254.208 329.104 253.794 329.156 253.305 329.156C252.789 329.156 252.328 329.062 251.922 328.875C251.516 328.682 251.195 328.391 250.961 328C250.727 327.609 250.609 327.115 250.609 326.516C250.609 325.625 250.94 324.956 251.602 324.508C252.268 324.06 253.273 323.812 254.617 323.766L256.117 323.711V323.258C256.117 322.659 255.977 322.232 255.695 321.977C255.419 321.721 255.029 321.594 254.523 321.594C254.091 321.594 253.672 321.656 253.266 321.781C252.859 321.906 252.464 322.06 252.078 322.242L251.484 320.945C251.906 320.721 252.385 320.539 252.922 320.398C253.464 320.258 254.026 320.188 254.609 320.188ZM256.109 324.867L254.992 324.906C254.076 324.938 253.432 325.094 253.062 325.375C252.693 325.656 252.508 326.042 252.508 326.531C252.508 326.958 252.635 327.271 252.891 327.469C253.146 327.661 253.482 327.758 253.898 327.758C254.534 327.758 255.06 327.578 255.477 327.219C255.898 326.854 256.109 326.32 256.109 325.617V324.867ZM262.336 316.844V319.773C262.336 320.112 262.326 320.445 262.305 320.773C262.289 321.096 262.273 321.349 262.258 321.531H262.336C262.57 321.156 262.896 320.841 263.312 320.586C263.734 320.326 264.273 320.195 264.93 320.195C265.956 320.195 266.781 320.573 267.406 321.328C268.031 322.078 268.344 323.19 268.344 324.664C268.344 325.643 268.201 326.466 267.914 327.133C267.628 327.799 267.224 328.305 266.703 328.648C266.188 328.987 265.581 329.156 264.883 329.156C264.227 329.156 263.695 329.036 263.289 328.797C262.888 328.552 262.573 328.268 262.344 327.945H262.211L261.875 329H260.5V316.844H262.336ZM264.445 321.688C263.924 321.688 263.51 321.792 263.203 322C262.901 322.208 262.682 322.521 262.547 322.938C262.411 323.349 262.341 323.872 262.336 324.508V324.672C262.336 325.635 262.487 326.372 262.789 326.883C263.096 327.393 263.654 327.648 264.461 327.648C265.102 327.648 265.594 327.391 265.938 326.875C266.281 326.354 266.453 325.609 266.453 324.641C266.453 323.661 266.281 322.924 265.938 322.43C265.599 321.935 265.102 321.688 264.445 321.688ZM278.125 324.656C278.125 325.375 278.031 326.013 277.844 326.57C277.656 327.128 277.383 327.599 277.023 327.984C276.664 328.365 276.232 328.656 275.727 328.859C275.221 329.057 274.651 329.156 274.016 329.156C273.422 329.156 272.878 329.057 272.383 328.859C271.888 328.656 271.458 328.365 271.094 327.984C270.734 327.599 270.456 327.128 270.258 326.57C270.06 326.013 269.961 325.375 269.961 324.656C269.961 323.703 270.125 322.896 270.453 322.234C270.786 321.568 271.26 321.06 271.875 320.711C272.49 320.362 273.221 320.188 274.07 320.188C274.867 320.188 275.57 320.362 276.18 320.711C276.789 321.06 277.266 321.568 277.609 322.234C277.953 322.901 278.125 323.708 278.125 324.656ZM271.852 324.656C271.852 325.286 271.927 325.826 272.078 326.273C272.234 326.721 272.474 327.065 272.797 327.305C273.12 327.539 273.536 327.656 274.047 327.656C274.557 327.656 274.974 327.539 275.297 327.305C275.62 327.065 275.857 326.721 276.008 326.273C276.159 325.826 276.234 325.286 276.234 324.656C276.234 324.026 276.159 323.492 276.008 323.055C275.857 322.612 275.62 322.276 275.297 322.047C274.974 321.812 274.555 321.695 274.039 321.695C273.279 321.695 272.724 321.951 272.375 322.461C272.026 322.971 271.852 323.703 271.852 324.656ZM46.3359 344.188C47.362 344.188 48.1849 344.562 48.8047 345.312C49.4297 346.062 49.7422 347.177 49.7422 348.656C49.7422 349.635 49.5964 350.461 49.3047 351.133C49.0182 351.799 48.6146 352.305 48.0938 352.648C47.5781 352.987 46.9766 353.156 46.2891 353.156C45.8516 353.156 45.4714 353.099 45.1484 352.984C44.8255 352.87 44.5495 352.721 44.3203 352.539C44.0911 352.352 43.8984 352.148 43.7422 351.93H43.6328C43.6589 352.138 43.6823 352.37 43.7031 352.625C43.7292 352.875 43.7422 353.104 43.7422 353.312V356.836H41.8984V344.352H43.3984L43.6562 345.547H43.7422C43.9036 345.302 44.099 345.076 44.3281 344.867C44.5625 344.659 44.8438 344.495 45.1719 344.375C45.5052 344.25 45.8932 344.188 46.3359 344.188ZM45.8438 345.688C45.3385 345.688 44.9323 345.789 44.625 345.992C44.3229 346.19 44.1016 346.49 43.9609 346.891C43.8255 347.292 43.7526 347.794 43.7422 348.398V348.656C43.7422 349.297 43.8073 349.841 43.9375 350.289C44.0729 350.732 44.2943 351.07 44.6016 351.305C44.9141 351.534 45.3359 351.648 45.8672 351.648C46.3151 351.648 46.6849 351.526 46.9766 351.281C47.2734 351.036 47.4948 350.688 47.6406 350.234C47.7865 349.781 47.8594 349.247 47.8594 348.633C47.8594 347.701 47.6927 346.977 47.3594 346.461C47.0312 345.945 46.526 345.688 45.8438 345.688ZM56.25 344.188C56.3958 344.188 56.5547 344.195 56.7266 344.211C56.8984 344.227 57.0469 344.247 57.1719 344.273L57 345.992C56.8906 345.961 56.7552 345.938 56.5938 345.922C56.4375 345.906 56.2969 345.898 56.1719 345.898C55.8438 345.898 55.5312 345.953 55.2344 346.062C54.9375 346.167 54.6745 346.328 54.4453 346.547C54.2161 346.76 54.0365 347.029 53.9062 347.352C53.776 347.674 53.7109 348.049 53.7109 348.477V353H51.8672V344.352H53.3047L53.5547 345.875H53.6406C53.8125 345.568 54.026 345.286 54.2812 345.031C54.5365 344.776 54.8281 344.573 55.1562 344.422C55.4896 344.266 55.8542 344.188 56.25 344.188ZM66.4297 348.656C66.4297 349.375 66.3359 350.013 66.1484 350.57C65.9609 351.128 65.6875 351.599 65.3281 351.984C64.9688 352.365 64.5365 352.656 64.0312 352.859C63.526 353.057 62.9557 353.156 62.3203 353.156C61.7266 353.156 61.1823 353.057 60.6875 352.859C60.1927 352.656 59.763 352.365 59.3984 351.984C59.0391 351.599 58.7604 351.128 58.5625 350.57C58.3646 350.013 58.2656 349.375 58.2656 348.656C58.2656 347.703 58.4297 346.896 58.7578 346.234C59.0911 345.568 59.5651 345.06 60.1797 344.711C60.7943 344.362 61.526 344.188 62.375 344.188C63.1719 344.188 63.875 344.362 64.4844 344.711C65.0938 345.06 65.5703 345.568 65.9141 346.234C66.2578 346.901 66.4297 347.708 66.4297 348.656ZM60.1562 348.656C60.1562 349.286 60.2318 349.826 60.3828 350.273C60.5391 350.721 60.7786 351.065 61.1016 351.305C61.4245 351.539 61.8411 351.656 62.3516 351.656C62.862 351.656 63.2786 351.539 63.6016 351.305C63.9245 351.065 64.1615 350.721 64.3125 350.273C64.4635 349.826 64.5391 349.286 64.5391 348.656C64.5391 348.026 64.4635 347.492 64.3125 347.055C64.1615 346.612 63.9245 346.276 63.6016 346.047C63.2786 345.812 62.8594 345.695 62.3438 345.695C61.5833 345.695 61.0286 345.951 60.6797 346.461C60.3307 346.971 60.1562 347.703 60.1562 348.656ZM67.6719 356.844C67.401 356.844 67.1432 356.823 66.8984 356.781C66.6536 356.745 66.4479 356.701 66.2812 356.648V355.18C66.4583 355.232 66.6302 355.271 66.7969 355.297C66.9635 355.323 67.1536 355.336 67.3672 355.336C67.7057 355.336 67.9844 355.242 68.2031 355.055C68.4271 354.867 68.5391 354.51 68.5391 353.984V344.352H70.375V354.148C70.375 354.674 70.2812 355.141 70.0938 355.547C69.9115 355.953 69.6198 356.271 69.2188 356.5C68.8229 356.729 68.3073 356.844 67.6719 356.844ZM68.4297 342.047C68.4297 341.677 68.5286 341.417 68.7266 341.266C68.9297 341.115 69.1771 341.039 69.4688 341.039C69.75 341.039 69.9922 341.115 70.1953 341.266C70.4036 341.417 70.5078 341.677 70.5078 342.047C70.5078 342.411 70.4036 342.672 70.1953 342.828C69.9922 342.979 69.75 343.055 69.4688 343.055C69.1771 343.055 68.9297 342.979 68.7266 342.828C68.5286 342.672 68.4297 342.411 68.4297 342.047ZM76.4531 344.188C77.224 344.188 77.8854 344.346 78.4375 344.664C78.9896 344.982 79.4141 345.432 79.7109 346.016C80.0078 346.599 80.1562 347.297 80.1562 348.109V349.094H74.3828C74.4036 349.932 74.6276 350.578 75.0547 351.031C75.487 351.484 76.0911 351.711 76.8672 351.711C77.4193 351.711 77.9141 351.659 78.3516 351.555C78.7943 351.445 79.25 351.286 79.7188 351.078V352.57C79.2865 352.773 78.8464 352.922 78.3984 353.016C77.9505 353.109 77.4141 353.156 76.7891 353.156C75.9401 353.156 75.1927 352.992 74.5469 352.664C73.9062 352.331 73.4036 351.836 73.0391 351.18C72.6797 350.523 72.5 349.708 72.5 348.734C72.5 347.766 72.6641 346.943 72.9922 346.266C73.3203 345.589 73.7812 345.073 74.375 344.719C74.9688 344.365 75.6615 344.188 76.4531 344.188ZM76.4531 345.57C75.875 345.57 75.4062 345.758 75.0469 346.133C74.6927 346.508 74.4844 347.057 74.4219 347.781H78.3594C78.3542 347.349 78.2812 346.966 78.1406 346.633C78.0052 346.299 77.7969 346.039 77.5156 345.852C77.2396 345.664 76.8854 345.57 76.4531 345.57ZM85.7109 353.156C84.8932 353.156 84.1849 352.997 83.5859 352.68C82.987 352.362 82.526 351.875 82.2031 351.219C81.8802 350.562 81.7188 349.729 81.7188 348.719C81.7188 347.667 81.8958 346.807 82.25 346.141C82.6042 345.474 83.0938 344.982 83.7188 344.664C84.349 344.346 85.0703 344.188 85.8828 344.188C86.3984 344.188 86.8646 344.24 87.2812 344.344C87.7031 344.443 88.0599 344.565 88.3516 344.711L87.8047 346.18C87.487 346.049 87.1615 345.94 86.8281 345.852C86.4948 345.763 86.1745 345.719 85.8672 345.719C85.362 345.719 84.9401 345.831 84.6016 346.055C84.2682 346.279 84.0182 346.612 83.8516 347.055C83.6901 347.497 83.6094 348.047 83.6094 348.703C83.6094 349.339 83.6927 349.875 83.8594 350.312C84.026 350.745 84.2734 351.073 84.6016 351.297C84.9297 351.516 85.3333 351.625 85.8125 351.625C86.2865 351.625 86.7109 351.568 87.0859 351.453C87.4609 351.339 87.8151 351.19 88.1484 351.008V352.602C87.8203 352.789 87.4688 352.927 87.0938 353.016C86.7188 353.109 86.2578 353.156 85.7109 353.156ZM93.3984 351.672C93.638 351.672 93.875 351.651 94.1094 351.609C94.3438 351.562 94.5573 351.508 94.75 351.445V352.836C94.5469 352.924 94.2839 353 93.9609 353.062C93.638 353.125 93.3021 353.156 92.9531 353.156C92.4635 353.156 92.0234 353.076 91.6328 352.914C91.2422 352.747 90.9323 352.464 90.7031 352.062C90.474 351.661 90.3594 351.107 90.3594 350.398V345.75H89.1797V344.93L90.4453 344.281L91.0469 342.43H92.2031V344.352H94.6797V345.75H92.2031V350.375C92.2031 350.812 92.3125 351.138 92.5312 351.352C92.75 351.565 93.0391 351.672 93.3984 351.672ZM104.055 344.188C105.148 344.188 105.974 344.43 106.531 344.914C107.094 345.398 107.375 346.154 107.375 347.18V353H106.07L105.719 351.773H105.656C105.411 352.086 105.159 352.344 104.898 352.547C104.638 352.75 104.336 352.901 103.992 353C103.654 353.104 103.24 353.156 102.75 353.156C102.234 353.156 101.773 353.062 101.367 352.875C100.961 352.682 100.641 352.391 100.406 352C100.172 351.609 100.055 351.115 100.055 350.516C100.055 349.625 100.385 348.956 101.047 348.508C101.714 348.06 102.719 347.812 104.062 347.766L105.562 347.711V347.258C105.562 346.659 105.422 346.232 105.141 345.977C104.865 345.721 104.474 345.594 103.969 345.594C103.536 345.594 103.117 345.656 102.711 345.781C102.305 345.906 101.909 346.06 101.523 346.242L100.93 344.945C101.352 344.721 101.831 344.539 102.367 344.398C102.909 344.258 103.471 344.188 104.055 344.188ZM105.555 348.867L104.438 348.906C103.521 348.938 102.878 349.094 102.508 349.375C102.138 349.656 101.953 350.042 101.953 350.531C101.953 350.958 102.081 351.271 102.336 351.469C102.591 351.661 102.927 351.758 103.344 351.758C103.979 351.758 104.505 351.578 104.922 351.219C105.344 350.854 105.555 350.32 105.555 349.617V348.867ZM113.164 351.672C113.404 351.672 113.641 351.651 113.875 351.609C114.109 351.562 114.323 351.508 114.516 351.445V352.836C114.312 352.924 114.049 353 113.727 353.062C113.404 353.125 113.068 353.156 112.719 353.156C112.229 353.156 111.789 353.076 111.398 352.914C111.008 352.747 110.698 352.464 110.469 352.062C110.24 351.661 110.125 351.107 110.125 350.398V345.75H108.945V344.93L110.211 344.281L110.812 342.43H111.969V344.352H114.445V345.75H111.969V350.375C111.969 350.812 112.078 351.138 112.297 351.352C112.516 351.565 112.805 351.672 113.164 351.672ZM123.648 351.672C123.888 351.672 124.125 351.651 124.359 351.609C124.594 351.562 124.807 351.508 125 351.445V352.836C124.797 352.924 124.534 353 124.211 353.062C123.888 353.125 123.552 353.156 123.203 353.156C122.714 353.156 122.273 353.076 121.883 352.914C121.492 352.747 121.182 352.464 120.953 352.062C120.724 351.661 120.609 351.107 120.609 350.398V345.75H119.43V344.93L120.695 344.281L121.297 342.43H122.453V344.352H124.93V345.75H122.453V350.375C122.453 350.812 122.562 351.138 122.781 351.352C123 351.565 123.289 351.672 123.648 351.672ZM128.594 340.844V343.898C128.594 344.216 128.583 344.526 128.562 344.828C128.547 345.13 128.529 345.365 128.508 345.531H128.609C128.792 345.229 129.016 344.982 129.281 344.789C129.547 344.591 129.844 344.443 130.172 344.344C130.505 344.245 130.859 344.195 131.234 344.195C131.896 344.195 132.458 344.307 132.922 344.531C133.385 344.75 133.74 345.091 133.984 345.555C134.234 346.018 134.359 346.62 134.359 347.359V353H132.523V347.703C132.523 347.031 132.385 346.529 132.109 346.195C131.833 345.857 131.406 345.688 130.828 345.688C130.271 345.688 129.828 345.805 129.5 346.039C129.177 346.268 128.945 346.609 128.805 347.062C128.664 347.51 128.594 348.057 128.594 348.703V353H126.758V340.844H128.594ZM140.375 344.188C141.146 344.188 141.807 344.346 142.359 344.664C142.911 344.982 143.336 345.432 143.633 346.016C143.93 346.599 144.078 347.297 144.078 348.109V349.094H138.305C138.326 349.932 138.549 350.578 138.977 351.031C139.409 351.484 140.013 351.711 140.789 351.711C141.341 351.711 141.836 351.659 142.273 351.555C142.716 351.445 143.172 351.286 143.641 351.078V352.57C143.208 352.773 142.768 352.922 142.32 353.016C141.872 353.109 141.336 353.156 140.711 353.156C139.862 353.156 139.115 352.992 138.469 352.664C137.828 352.331 137.326 351.836 136.961 351.18C136.602 350.523 136.422 349.708 136.422 348.734C136.422 347.766 136.586 346.943 136.914 346.266C137.242 345.589 137.703 345.073 138.297 344.719C138.891 344.365 139.583 344.188 140.375 344.188ZM140.375 345.57C139.797 345.57 139.328 345.758 138.969 346.133C138.615 346.508 138.406 347.057 138.344 347.781H142.281C142.276 347.349 142.203 346.966 142.062 346.633C141.927 346.299 141.719 346.039 141.438 345.852C141.161 345.664 140.807 345.57 140.375 345.57ZM160.078 344.188C161.047 344.188 161.776 344.438 162.266 344.938C162.76 345.438 163.008 346.24 163.008 347.344V353H161.172V347.672C161.172 347.016 161.044 346.521 160.789 346.188C160.534 345.854 160.146 345.688 159.625 345.688C158.896 345.688 158.37 345.922 158.047 346.391C157.729 346.854 157.57 347.529 157.57 348.414V353H155.734V347.672C155.734 347.234 155.677 346.87 155.562 346.578C155.453 346.281 155.284 346.06 155.055 345.914C154.826 345.763 154.536 345.688 154.188 345.688C153.682 345.688 153.279 345.802 152.977 346.031C152.68 346.26 152.466 346.599 152.336 347.047C152.206 347.49 152.141 348.034 152.141 348.68V353H150.305V344.352H151.734L151.992 345.516H152.094C152.271 345.214 152.49 344.966 152.75 344.773C153.016 344.576 153.31 344.43 153.633 344.336C153.956 344.237 154.292 344.188 154.641 344.188C155.286 344.188 155.831 344.302 156.273 344.531C156.716 344.755 157.047 345.099 157.266 345.562H157.406C157.677 345.094 158.055 344.747 158.539 344.523C159.023 344.299 159.536 344.188 160.078 344.188ZM173.227 348.656C173.227 349.375 173.133 350.013 172.945 350.57C172.758 351.128 172.484 351.599 172.125 351.984C171.766 352.365 171.333 352.656 170.828 352.859C170.323 353.057 169.753 353.156 169.117 353.156C168.523 353.156 167.979 353.057 167.484 352.859C166.99 352.656 166.56 352.365 166.195 351.984C165.836 351.599 165.557 351.128 165.359 350.57C165.161 350.013 165.062 349.375 165.062 348.656C165.062 347.703 165.227 346.896 165.555 346.234C165.888 345.568 166.362 345.06 166.977 344.711C167.591 344.362 168.323 344.188 169.172 344.188C169.969 344.188 170.672 344.362 171.281 344.711C171.891 345.06 172.367 345.568 172.711 346.234C173.055 346.901 173.227 347.708 173.227 348.656ZM166.953 348.656C166.953 349.286 167.029 349.826 167.18 350.273C167.336 350.721 167.576 351.065 167.898 351.305C168.221 351.539 168.638 351.656 169.148 351.656C169.659 351.656 170.076 351.539 170.398 351.305C170.721 351.065 170.958 350.721 171.109 350.273C171.26 349.826 171.336 349.286 171.336 348.656C171.336 348.026 171.26 347.492 171.109 347.055C170.958 346.612 170.721 346.276 170.398 346.047C170.076 345.812 169.656 345.695 169.141 345.695C168.38 345.695 167.826 345.951 167.477 346.461C167.128 346.971 166.953 347.703 166.953 348.656ZM185.109 344.188C186.078 344.188 186.807 344.438 187.297 344.938C187.792 345.438 188.039 346.24 188.039 347.344V353H186.203V347.672C186.203 347.016 186.076 346.521 185.82 346.188C185.565 345.854 185.177 345.688 184.656 345.688C183.927 345.688 183.401 345.922 183.078 346.391C182.76 346.854 182.602 347.529 182.602 348.414V353H180.766V347.672C180.766 347.234 180.708 346.87 180.594 346.578C180.484 346.281 180.315 346.06 180.086 345.914C179.857 345.763 179.568 345.688 179.219 345.688C178.714 345.688 178.31 345.802 178.008 346.031C177.711 346.26 177.497 346.599 177.367 347.047C177.237 347.49 177.172 348.034 177.172 348.68V353H175.336V344.352H176.766L177.023 345.516H177.125C177.302 345.214 177.521 344.966 177.781 344.773C178.047 344.576 178.341 344.43 178.664 344.336C178.987 344.237 179.323 344.188 179.672 344.188C180.318 344.188 180.862 344.302 181.305 344.531C181.747 344.755 182.078 345.099 182.297 345.562H182.438C182.708 345.094 183.086 344.747 183.57 344.523C184.055 344.299 184.568 344.188 185.109 344.188ZM194.047 344.188C194.818 344.188 195.479 344.346 196.031 344.664C196.583 344.982 197.008 345.432 197.305 346.016C197.602 346.599 197.75 347.297 197.75 348.109V349.094H191.977C191.997 349.932 192.221 350.578 192.648 351.031C193.081 351.484 193.685 351.711 194.461 351.711C195.013 351.711 195.508 351.659 195.945 351.555C196.388 351.445 196.844 351.286 197.312 351.078V352.57C196.88 352.773 196.44 352.922 195.992 353.016C195.544 353.109 195.008 353.156 194.383 353.156C193.534 353.156 192.786 352.992 192.141 352.664C191.5 352.331 190.997 351.836 190.633 351.18C190.273 350.523 190.094 349.708 190.094 348.734C190.094 347.766 190.258 346.943 190.586 346.266C190.914 345.589 191.375 345.073 191.969 344.719C192.562 344.365 193.255 344.188 194.047 344.188ZM194.047 345.57C193.469 345.57 193 345.758 192.641 346.133C192.286 346.508 192.078 347.057 192.016 347.781H195.953C195.948 347.349 195.875 346.966 195.734 346.633C195.599 346.299 195.391 346.039 195.109 345.852C194.833 345.664 194.479 345.57 194.047 345.57ZM204.328 344.188C205.302 344.188 206.06 344.44 206.602 344.945C207.148 345.445 207.422 346.25 207.422 347.359V353H205.586V347.703C205.586 347.031 205.448 346.529 205.172 346.195C204.896 345.857 204.469 345.688 203.891 345.688C203.052 345.688 202.469 345.945 202.141 346.461C201.818 346.977 201.656 347.724 201.656 348.703V353H199.82V344.352H201.25L201.508 345.523H201.609C201.797 345.221 202.029 344.974 202.305 344.781C202.586 344.583 202.898 344.435 203.242 344.336C203.591 344.237 203.953 344.188 204.328 344.188ZM213.211 351.672C213.451 351.672 213.688 351.651 213.922 351.609C214.156 351.562 214.37 351.508 214.562 351.445V352.836C214.359 352.924 214.096 353 213.773 353.062C213.451 353.125 213.115 353.156 212.766 353.156C212.276 353.156 211.836 353.076 211.445 352.914C211.055 352.747 210.745 352.464 210.516 352.062C210.286 351.661 210.172 351.107 210.172 350.398V345.75H208.992V344.93L210.258 344.281L210.859 342.43H212.016V344.352H214.492V345.75H212.016V350.375C212.016 350.812 212.125 351.138 212.344 351.352C212.562 351.565 212.852 351.672 213.211 351.672ZM216.055 352.031C216.055 351.604 216.164 351.305 216.383 351.133C216.607 350.956 216.878 350.867 217.195 350.867C217.513 350.867 217.784 350.956 218.008 351.133C218.237 351.305 218.352 351.604 218.352 352.031C218.352 352.448 218.237 352.75 218.008 352.938C217.784 353.12 217.513 353.211 217.195 353.211C216.878 353.211 216.607 353.12 216.383 352.938C216.164 352.75 216.055 352.448 216.055 352.031ZM233.766 353H231.609L228.055 347.812L226.93 348.727V353H225.055V341.578H226.93V347.039C227.159 346.758 227.391 346.477 227.625 346.195C227.859 345.914 228.094 345.633 228.328 345.352L231.547 341.578H233.664L229.398 346.578L233.766 353ZM236.922 344.352V353H235.086V344.352H236.922ZM236.016 341.039C236.297 341.039 236.539 341.115 236.742 341.266C236.951 341.417 237.055 341.677 237.055 342.047C237.055 342.411 236.951 342.672 236.742 342.828C236.539 342.979 236.297 343.055 236.016 343.055C235.724 343.055 235.477 342.979 235.273 342.828C235.076 342.672 234.977 342.411 234.977 342.047C234.977 341.677 235.076 341.417 235.273 341.266C235.477 341.115 235.724 341.039 236.016 341.039ZM244.062 344.188C245.036 344.188 245.794 344.44 246.336 344.945C246.883 345.445 247.156 346.25 247.156 347.359V353H245.32V347.703C245.32 347.031 245.182 346.529 244.906 346.195C244.63 345.857 244.203 345.688 243.625 345.688C242.786 345.688 242.203 345.945 241.875 346.461C241.552 346.977 241.391 347.724 241.391 348.703V353H239.555V344.352H240.984L241.242 345.523H241.344C241.531 345.221 241.763 344.974 242.039 344.781C242.32 344.583 242.633 344.435 242.977 344.336C243.326 344.237 243.688 344.188 244.062 344.188ZM252.633 353.156C251.602 353.156 250.773 352.781 250.148 352.031C249.529 351.276 249.219 350.164 249.219 348.695C249.219 347.211 249.534 346.089 250.164 345.328C250.799 344.568 251.635 344.188 252.672 344.188C253.109 344.188 253.492 344.247 253.82 344.367C254.148 344.482 254.43 344.638 254.664 344.836C254.904 345.034 255.107 345.255 255.273 345.5H255.359C255.333 345.339 255.302 345.107 255.266 344.805C255.234 344.497 255.219 344.214 255.219 343.953V340.844H257.062V353H255.625L255.297 351.82H255.219C255.062 352.07 254.865 352.297 254.625 352.5C254.391 352.698 254.109 352.857 253.781 352.977C253.458 353.096 253.076 353.156 252.633 353.156ZM253.148 351.664C253.935 351.664 254.49 351.438 254.812 350.984C255.135 350.531 255.302 349.852 255.312 348.945V348.703C255.312 347.734 255.156 346.992 254.844 346.477C254.531 345.956 253.961 345.695 253.133 345.695C252.471 345.695 251.966 345.964 251.617 346.5C251.273 347.031 251.102 347.773 251.102 348.727C251.102 349.68 251.273 350.409 251.617 350.914C251.966 351.414 252.477 351.664 253.148 351.664ZM261.539 353H259.695V340.844H261.539V353ZM262.859 344.352H264.859L266.633 349.289C266.711 349.513 266.781 349.734 266.844 349.953C266.911 350.167 266.969 350.378 267.016 350.586C267.068 350.794 267.109 351.003 267.141 351.211H267.188C267.24 350.94 267.312 350.638 267.406 350.305C267.505 349.966 267.615 349.628 267.734 349.289L269.438 344.352H271.414L267.703 354.188C267.49 354.75 267.227 355.229 266.914 355.625C266.607 356.026 266.242 356.328 265.82 356.531C265.398 356.74 264.917 356.844 264.375 356.844C264.115 356.844 263.888 356.828 263.695 356.797C263.503 356.771 263.339 356.742 263.203 356.711V355.242C263.312 355.268 263.451 355.292 263.617 355.312C263.784 355.333 263.956 355.344 264.133 355.344C264.461 355.344 264.745 355.279 264.984 355.148C265.224 355.018 265.427 354.833 265.594 354.594C265.76 354.359 265.898 354.091 266.008 353.789L266.312 352.977L262.859 344.352ZM100.195 377.156C99.3776 377.156 98.6693 376.997 98.0703 376.68C97.4714 376.362 97.0104 375.875 96.6875 375.219C96.3646 374.562 96.2031 373.729 96.2031 372.719C96.2031 371.667 96.3802 370.807 96.7344 370.141C97.0885 369.474 97.5781 368.982 98.2031 368.664C98.8333 368.346 99.5547 368.188 100.367 368.188C100.883 368.188 101.349 368.24 101.766 368.344C102.188 368.443 102.544 368.565 102.836 368.711L102.289 370.18C101.971 370.049 101.646 369.94 101.312 369.852C100.979 369.763 100.659 369.719 100.352 369.719C99.8464 369.719 99.4245 369.831 99.0859 370.055C98.7526 370.279 98.5026 370.612 98.3359 371.055C98.1745 371.497 98.0938 372.047 98.0938 372.703C98.0938 373.339 98.1771 373.875 98.3438 374.312C98.5104 374.745 98.7578 375.073 99.0859 375.297C99.4141 375.516 99.8177 375.625 100.297 375.625C100.771 375.625 101.195 375.568 101.57 375.453C101.945 375.339 102.299 375.19 102.633 375.008V376.602C102.305 376.789 101.953 376.927 101.578 377.016C101.203 377.109 100.742 377.156 100.195 377.156ZM106.5 364.844V367.898C106.5 368.216 106.49 368.526 106.469 368.828C106.453 369.13 106.435 369.365 106.414 369.531H106.516C106.698 369.229 106.922 368.982 107.188 368.789C107.453 368.591 107.75 368.443 108.078 368.344C108.411 368.245 108.766 368.195 109.141 368.195C109.802 368.195 110.365 368.307 110.828 368.531C111.292 368.75 111.646 369.091 111.891 369.555C112.141 370.018 112.266 370.62 112.266 371.359V377H110.43V371.703C110.43 371.031 110.292 370.529 110.016 370.195C109.74 369.857 109.312 369.688 108.734 369.688C108.177 369.688 107.734 369.805 107.406 370.039C107.083 370.268 106.852 370.609 106.711 371.062C106.57 371.51 106.5 372.057 106.5 372.703V377H104.664V364.844H106.5ZM118.281 368.188C119.052 368.188 119.714 368.346 120.266 368.664C120.818 368.982 121.242 369.432 121.539 370.016C121.836 370.599 121.984 371.297 121.984 372.109V373.094H116.211C116.232 373.932 116.456 374.578 116.883 375.031C117.315 375.484 117.919 375.711 118.695 375.711C119.247 375.711 119.742 375.659 120.18 375.555C120.622 375.445 121.078 375.286 121.547 375.078V376.57C121.115 376.773 120.674 376.922 120.227 377.016C119.779 377.109 119.242 377.156 118.617 377.156C117.768 377.156 117.021 376.992 116.375 376.664C115.734 376.331 115.232 375.836 114.867 375.18C114.508 374.523 114.328 373.708 114.328 372.734C114.328 371.766 114.492 370.943 114.82 370.266C115.148 369.589 115.609 369.073 116.203 368.719C116.797 368.365 117.49 368.188 118.281 368.188ZM118.281 369.57C117.703 369.57 117.234 369.758 116.875 370.133C116.521 370.508 116.312 371.057 116.25 371.781H120.188C120.182 371.349 120.109 370.966 119.969 370.633C119.833 370.299 119.625 370.039 119.344 369.852C119.068 369.664 118.714 369.57 118.281 369.57ZM127.539 377.156C126.721 377.156 126.013 376.997 125.414 376.68C124.815 376.362 124.354 375.875 124.031 375.219C123.708 374.562 123.547 373.729 123.547 372.719C123.547 371.667 123.724 370.807 124.078 370.141C124.432 369.474 124.922 368.982 125.547 368.664C126.177 368.346 126.898 368.188 127.711 368.188C128.227 368.188 128.693 368.24 129.109 368.344C129.531 368.443 129.888 368.565 130.18 368.711L129.633 370.18C129.315 370.049 128.99 369.94 128.656 369.852C128.323 369.763 128.003 369.719 127.695 369.719C127.19 369.719 126.768 369.831 126.43 370.055C126.096 370.279 125.846 370.612 125.68 371.055C125.518 371.497 125.438 372.047 125.438 372.703C125.438 373.339 125.521 373.875 125.688 374.312C125.854 374.745 126.102 375.073 126.43 375.297C126.758 375.516 127.161 375.625 127.641 375.625C128.115 375.625 128.539 375.568 128.914 375.453C129.289 375.339 129.643 375.19 129.977 375.008V376.602C129.648 376.789 129.297 376.927 128.922 377.016C128.547 377.109 128.086 377.156 127.539 377.156ZM133.844 364.844V370.719C133.844 370.984 133.833 371.276 133.812 371.594C133.792 371.906 133.771 372.201 133.75 372.477H133.789C133.924 372.294 134.086 372.081 134.273 371.836C134.466 371.591 134.648 371.378 134.82 371.195L137.461 368.352H139.57L136.109 372.07L139.797 377H137.641L134.875 373.203L133.844 374.086V377H132.008V364.844H133.844ZM147.172 364.844V367.773C147.172 368.112 147.161 368.445 147.141 368.773C147.125 369.096 147.109 369.349 147.094 369.531H147.172C147.406 369.156 147.732 368.841 148.148 368.586C148.57 368.326 149.109 368.195 149.766 368.195C150.792 368.195 151.617 368.573 152.242 369.328C152.867 370.078 153.18 371.19 153.18 372.664C153.18 373.643 153.036 374.466 152.75 375.133C152.464 375.799 152.06 376.305 151.539 376.648C151.023 376.987 150.417 377.156 149.719 377.156C149.062 377.156 148.531 377.036 148.125 376.797C147.724 376.552 147.409 376.268 147.18 375.945H147.047L146.711 377H145.336V364.844H147.172ZM149.281 369.688C148.76 369.688 148.346 369.792 148.039 370C147.737 370.208 147.518 370.521 147.383 370.938C147.247 371.349 147.177 371.872 147.172 372.508V372.672C147.172 373.635 147.323 374.372 147.625 374.883C147.932 375.393 148.49 375.648 149.297 375.648C149.938 375.648 150.43 375.391 150.773 374.875C151.117 374.354 151.289 373.609 151.289 372.641C151.289 371.661 151.117 370.924 150.773 370.43C150.435 369.935 149.938 369.688 149.281 369.688ZM158.695 368.188C159.789 368.188 160.615 368.43 161.172 368.914C161.734 369.398 162.016 370.154 162.016 371.18V377H160.711L160.359 375.773H160.297C160.052 376.086 159.799 376.344 159.539 376.547C159.279 376.75 158.977 376.901 158.633 377C158.294 377.104 157.88 377.156 157.391 377.156C156.875 377.156 156.414 377.062 156.008 376.875C155.602 376.682 155.281 376.391 155.047 376C154.812 375.609 154.695 375.115 154.695 374.516C154.695 373.625 155.026 372.956 155.688 372.508C156.354 372.06 157.359 371.812 158.703 371.766L160.203 371.711V371.258C160.203 370.659 160.062 370.232 159.781 369.977C159.505 369.721 159.115 369.594 158.609 369.594C158.177 369.594 157.758 369.656 157.352 369.781C156.945 369.906 156.549 370.06 156.164 370.242L155.57 368.945C155.992 368.721 156.471 368.539 157.008 368.398C157.549 368.258 158.112 368.188 158.695 368.188ZM160.195 372.867L159.078 372.906C158.161 372.938 157.518 373.094 157.148 373.375C156.779 373.656 156.594 374.042 156.594 374.531C156.594 374.958 156.721 375.271 156.977 375.469C157.232 375.661 157.568 375.758 157.984 375.758C158.62 375.758 159.146 375.578 159.562 375.219C159.984 374.854 160.195 374.32 160.195 373.617V372.867ZM168.07 377.156C167.253 377.156 166.544 376.997 165.945 376.68C165.346 376.362 164.885 375.875 164.562 375.219C164.24 374.562 164.078 373.729 164.078 372.719C164.078 371.667 164.255 370.807 164.609 370.141C164.964 369.474 165.453 368.982 166.078 368.664C166.708 368.346 167.43 368.188 168.242 368.188C168.758 368.188 169.224 368.24 169.641 368.344C170.062 368.443 170.419 368.565 170.711 368.711L170.164 370.18C169.846 370.049 169.521 369.94 169.188 369.852C168.854 369.763 168.534 369.719 168.227 369.719C167.721 369.719 167.299 369.831 166.961 370.055C166.628 370.279 166.378 370.612 166.211 371.055C166.049 371.497 165.969 372.047 165.969 372.703C165.969 373.339 166.052 373.875 166.219 374.312C166.385 374.745 166.633 375.073 166.961 375.297C167.289 375.516 167.693 375.625 168.172 375.625C168.646 375.625 169.07 375.568 169.445 375.453C169.82 375.339 170.174 375.19 170.508 375.008V376.602C170.18 376.789 169.828 376.927 169.453 377.016C169.078 377.109 168.617 377.156 168.07 377.156ZM174.375 364.844V370.719C174.375 370.984 174.365 371.276 174.344 371.594C174.323 371.906 174.302 372.201 174.281 372.477H174.32C174.456 372.294 174.617 372.081 174.805 371.836C174.997 371.591 175.18 371.378 175.352 371.195L177.992 368.352H180.102L176.641 372.07L180.328 377H178.172L175.406 373.203L174.375 374.086V377H172.539V364.844H174.375ZM187.711 377H185.867V364.844H187.711V377ZM193.727 368.188C194.82 368.188 195.646 368.43 196.203 368.914C196.766 369.398 197.047 370.154 197.047 371.18V377H195.742L195.391 375.773H195.328C195.083 376.086 194.831 376.344 194.57 376.547C194.31 376.75 194.008 376.901 193.664 377C193.326 377.104 192.911 377.156 192.422 377.156C191.906 377.156 191.445 377.062 191.039 376.875C190.633 376.682 190.312 376.391 190.078 376C189.844 375.609 189.727 375.115 189.727 374.516C189.727 373.625 190.057 372.956 190.719 372.508C191.385 372.06 192.391 371.812 193.734 371.766L195.234 371.711V371.258C195.234 370.659 195.094 370.232 194.812 369.977C194.536 369.721 194.146 369.594 193.641 369.594C193.208 369.594 192.789 369.656 192.383 369.781C191.977 369.906 191.581 370.06 191.195 370.242L190.602 368.945C191.023 368.721 191.503 368.539 192.039 368.398C192.581 368.258 193.143 368.188 193.727 368.188ZM195.227 372.867L194.109 372.906C193.193 372.938 192.549 373.094 192.18 373.375C191.81 373.656 191.625 374.042 191.625 374.531C191.625 374.958 191.753 375.271 192.008 375.469C192.263 375.661 192.599 375.758 193.016 375.758C193.651 375.758 194.177 375.578 194.594 375.219C195.016 374.854 195.227 374.32 195.227 373.617V372.867ZM202.836 375.672C203.076 375.672 203.312 375.651 203.547 375.609C203.781 375.562 203.995 375.508 204.188 375.445V376.836C203.984 376.924 203.721 377 203.398 377.062C203.076 377.125 202.74 377.156 202.391 377.156C201.901 377.156 201.461 377.076 201.07 376.914C200.68 376.747 200.37 376.464 200.141 376.062C199.911 375.661 199.797 375.107 199.797 374.398V369.75H198.617V368.93L199.883 368.281L200.484 366.43H201.641V368.352H204.117V369.75H201.641V374.375C201.641 374.812 201.75 375.138 201.969 375.352C202.188 375.565 202.477 375.672 202.836 375.672ZM209.391 368.188C210.161 368.188 210.823 368.346 211.375 368.664C211.927 368.982 212.352 369.432 212.648 370.016C212.945 370.599 213.094 371.297 213.094 372.109V373.094H207.32C207.341 373.932 207.565 374.578 207.992 375.031C208.424 375.484 209.029 375.711 209.805 375.711C210.357 375.711 210.852 375.659 211.289 375.555C211.732 375.445 212.188 375.286 212.656 375.078V376.57C212.224 376.773 211.784 376.922 211.336 377.016C210.888 377.109 210.352 377.156 209.727 377.156C208.878 377.156 208.13 376.992 207.484 376.664C206.844 376.331 206.341 375.836 205.977 375.18C205.617 374.523 205.438 373.708 205.438 372.734C205.438 371.766 205.602 370.943 205.93 370.266C206.258 369.589 206.719 369.073 207.312 368.719C207.906 368.365 208.599 368.188 209.391 368.188ZM209.391 369.57C208.812 369.57 208.344 369.758 207.984 370.133C207.63 370.508 207.422 371.057 207.359 371.781H211.297C211.292 371.349 211.219 370.966 211.078 370.633C210.943 370.299 210.734 370.039 210.453 369.852C210.177 369.664 209.823 369.57 209.391 369.57ZM219.547 368.188C219.693 368.188 219.852 368.195 220.023 368.211C220.195 368.227 220.344 368.247 220.469 368.273L220.297 369.992C220.188 369.961 220.052 369.938 219.891 369.922C219.734 369.906 219.594 369.898 219.469 369.898C219.141 369.898 218.828 369.953 218.531 370.062C218.234 370.167 217.971 370.328 217.742 370.547C217.513 370.76 217.333 371.029 217.203 371.352C217.073 371.674 217.008 372.049 217.008 372.477V377H215.164V368.352H216.602L216.852 369.875H216.938C217.109 369.568 217.323 369.286 217.578 369.031C217.833 368.776 218.125 368.573 218.453 368.422C218.786 368.266 219.151 368.188 219.547 368.188Z" fill="#A1A1A1"/>
<defs>
<clipPath id="clip0_664_2393">
<rect width="312" height="233" fill="white"/>
</clipPath>
</defs>
</svg>
