<svg width="273" height="65" viewBox="0 0 273 65" fill="none" xmlns="http://www.w3.org/2000/svg">
<path d="M21.6719 9.89062C21.6719 10.5677 21.5052 11.151 21.1719 11.6406C20.8438 12.1302 20.3698 12.5052 19.75 12.7656C19.1354 13.026 18.401 13.1562 17.5469 13.1562C17.1302 13.1562 16.7318 13.1328 16.3516 13.0859C15.9714 13.0391 15.612 12.9714 15.2734 12.8828C14.9401 12.7891 14.6354 12.6771 14.3594 12.5469V10.7812C14.8229 10.9844 15.3411 11.1693 15.9141 11.3359C16.487 11.4974 17.0703 11.5781 17.6641 11.5781C18.1484 11.5781 18.5495 11.5156 18.8672 11.3906C19.1901 11.2604 19.4297 11.0781 19.5859 10.8438C19.7422 10.6042 19.8203 10.3255 19.8203 10.0078C19.8203 9.66927 19.7292 9.38281 19.5469 9.14844C19.3646 8.91406 19.0885 8.70052 18.7188 8.50781C18.3542 8.3099 17.8958 8.09896 17.3438 7.875C16.9688 7.72396 16.6094 7.55208 16.2656 7.35938C15.9271 7.16667 15.625 6.9401 15.3594 6.67969C15.0938 6.41927 14.8828 6.11198 14.7266 5.75781C14.5755 5.39844 14.5 4.97656 14.5 4.49219C14.5 3.84635 14.6536 3.29427 14.9609 2.83594C15.2734 2.3776 15.7109 2.02604 16.2734 1.78125C16.8411 1.53646 17.5026 1.41406 18.2578 1.41406C18.8568 1.41406 19.4193 1.47656 19.9453 1.60156C20.4766 1.72656 20.9974 1.90365 21.5078 2.13281L20.9141 3.64062C20.4453 3.44792 19.9896 3.29427 19.5469 3.17969C19.1094 3.0651 18.6615 3.00781 18.2031 3.00781C17.8073 3.00781 17.4714 3.06771 17.1953 3.1875C16.9193 3.30729 16.7083 3.47656 16.5625 3.69531C16.4219 3.90885 16.3516 4.16406 16.3516 4.46094C16.3516 4.79427 16.4323 5.07552 16.5938 5.30469C16.7604 5.52865 17.0156 5.73438 17.3594 5.92188C17.7083 6.10938 18.1562 6.31771 18.7031 6.54688C19.3333 6.80729 19.8672 7.08073 20.3047 7.36719C20.7474 7.65365 21.0859 7.9974 21.3203 8.39844C21.5547 8.79427 21.6719 9.29167 21.6719 9.89062ZM31.3438 8.65625C31.3438 9.375 31.25 10.013 31.0625 10.5703C30.875 11.1276 30.6016 11.599 30.2422 11.9844C29.8828 12.3646 29.4505 12.6562 28.9453 12.8594C28.4401 13.0573 27.8698 13.1562 27.2344 13.1562C26.6406 13.1562 26.0964 13.0573 25.6016 12.8594C25.1068 12.6562 24.6771 12.3646 24.3125 11.9844C23.9531 11.599 23.6745 11.1276 23.4766 10.5703C23.2786 10.013 23.1797 9.375 23.1797 8.65625C23.1797 7.70312 23.3438 6.89583 23.6719 6.23438C24.0052 5.56771 24.4792 5.0599 25.0938 4.71094C25.7083 4.36198 26.4401 4.1875 27.2891 4.1875C28.0859 4.1875 28.7891 4.36198 29.3984 4.71094C30.0078 5.0599 30.4844 5.56771 30.8281 6.23438C31.1719 6.90104 31.3438 7.70833 31.3438 8.65625ZM25.0703 8.65625C25.0703 9.28646 25.1458 9.82552 25.2969 10.2734C25.4531 10.7214 25.6927 11.0651 26.0156 11.3047C26.3385 11.5391 26.7552 11.6562 27.2656 11.6562C27.776 11.6562 28.1927 11.5391 28.5156 11.3047C28.8385 11.0651 29.0755 10.7214 29.2266 10.2734C29.3776 9.82552 29.4531 9.28646 29.4531 8.65625C29.4531 8.02604 29.3776 7.49219 29.2266 7.05469C29.0755 6.61198 28.8385 6.27604 28.5156 6.04688C28.1927 5.8125 27.7734 5.69531 27.2578 5.69531C26.4974 5.69531 25.9427 5.95052 25.5938 6.46094C25.2448 6.97135 25.0703 7.70312 25.0703 8.65625ZM37.8359 4.1875C37.9818 4.1875 38.1406 4.19531 38.3125 4.21094C38.4844 4.22656 38.6328 4.2474 38.7578 4.27344L38.5859 5.99219C38.4766 5.96094 38.3411 5.9375 38.1797 5.92188C38.0234 5.90625 37.8828 5.89844 37.7578 5.89844C37.4297 5.89844 37.1172 5.95312 36.8203 6.0625C36.5234 6.16667 36.2604 6.32812 36.0312 6.54688C35.8021 6.76042 35.6224 7.02865 35.4922 7.35156C35.362 7.67448 35.2969 8.04948 35.2969 8.47656V13H33.4531V4.35156H34.8906L35.1406 5.875H35.2266C35.3984 5.56771 35.612 5.28646 35.8672 5.03125C36.1224 4.77604 36.4141 4.57292 36.7422 4.42188C37.0755 4.26562 37.4401 4.1875 37.8359 4.1875ZM44.7422 4.1875C44.888 4.1875 45.0469 4.19531 45.2188 4.21094C45.3906 4.22656 45.5391 4.2474 45.6641 4.27344L45.4922 5.99219C45.3828 5.96094 45.2474 5.9375 45.0859 5.92188C44.9297 5.90625 44.7891 5.89844 44.6641 5.89844C44.3359 5.89844 44.0234 5.95312 43.7266 6.0625C43.4297 6.16667 43.1667 6.32812 42.9375 6.54688C42.7083 6.76042 42.5286 7.02865 42.3984 7.35156C42.2682 7.67448 42.2031 8.04948 42.2031 8.47656V13H40.3594V4.35156H41.7969L42.0469 5.875H42.1328C42.3047 5.56771 42.5182 5.28646 42.7734 5.03125C43.0286 4.77604 43.3203 4.57292 43.6484 4.42188C43.9818 4.26562 44.3464 4.1875 44.7422 4.1875ZM45.9609 4.35156H47.9609L49.7344 9.28906C49.8125 9.51302 49.8828 9.73438 49.9453 9.95312C50.013 10.1667 50.0703 10.3776 50.1172 10.5859C50.1693 10.7943 50.2109 11.0026 50.2422 11.2109H50.2891C50.3411 10.9401 50.4141 10.638 50.5078 10.3047C50.6068 9.96615 50.7161 9.6276 50.8359 9.28906L52.5391 4.35156H54.5156L50.8047 14.1875C50.5911 14.75 50.3281 15.2292 50.0156 15.625C49.7083 16.026 49.3438 16.3281 48.9219 16.5312C48.5 16.7396 48.0182 16.8438 47.4766 16.8438C47.2161 16.8438 46.9896 16.8281 46.7969 16.7969C46.6042 16.7708 46.4401 16.7422 46.3047 16.7109V15.2422C46.4141 15.2682 46.5521 15.2917 46.7188 15.3125C46.8854 15.3333 47.0573 15.3438 47.2344 15.3438C47.5625 15.3438 47.8464 15.2786 48.0859 15.1484C48.3255 15.0182 48.5286 14.8333 48.6953 14.5938C48.862 14.3594 49 14.0911 49.1094 13.7891L49.4141 12.9766L45.9609 4.35156ZM57.6797 11.1406L57.7891 11.3203C57.6953 11.6953 57.5755 12.099 57.4297 12.5312C57.2839 12.9635 57.125 13.3958 56.9531 13.8281C56.7812 14.2656 56.6068 14.6771 56.4297 15.0625H55.0859C55.1953 14.6406 55.2995 14.1979 55.3984 13.7344C55.5026 13.276 55.5964 12.8229 55.6797 12.375C55.7682 11.9219 55.8385 11.5104 55.8906 11.1406H57.6797ZM67.5625 11.6719C67.8021 11.6719 68.0391 11.651 68.2734 11.6094C68.5078 11.5625 68.7214 11.5078 68.9141 11.4453V12.8359C68.7109 12.9245 68.4479 13 68.125 13.0625C67.8021 13.125 67.4661 13.1562 67.1172 13.1562C66.6276 13.1562 66.1875 13.0755 65.7969 12.9141C65.4062 12.7474 65.0964 12.4635 64.8672 12.0625C64.638 11.6615 64.5234 11.1068 64.5234 10.3984V5.75H63.3438V4.92969L64.6094 4.28125L65.2109 2.42969H66.3672V4.35156H68.8438V5.75H66.3672V10.375C66.3672 10.8125 66.4766 11.138 66.6953 11.3516C66.9141 11.5651 67.2031 11.6719 67.5625 11.6719ZM72.5078 0.84375V3.89844C72.5078 4.21615 72.4974 4.52604 72.4766 4.82812C72.4609 5.13021 72.4427 5.36458 72.4219 5.53125H72.5234C72.7057 5.22917 72.9297 4.98177 73.1953 4.78906C73.4609 4.59115 73.7578 4.44271 74.0859 4.34375C74.4193 4.24479 74.7734 4.19531 75.1484 4.19531C75.8099 4.19531 76.3724 4.30729 76.8359 4.53125C77.2995 4.75 77.6536 5.09115 77.8984 5.55469C78.1484 6.01823 78.2734 6.61979 78.2734 7.35938V13H76.4375V7.70312C76.4375 7.03125 76.2995 6.52865 76.0234 6.19531C75.7474 5.85677 75.3203 5.6875 74.7422 5.6875C74.1849 5.6875 73.7422 5.80469 73.4141 6.03906C73.0911 6.26823 72.8594 6.60938 72.7188 7.0625C72.5781 7.51042 72.5078 8.05729 72.5078 8.70312V13H70.6719V0.84375H72.5078ZM84.2891 4.1875C85.0599 4.1875 85.7214 4.34635 86.2734 4.66406C86.8255 4.98177 87.25 5.43229 87.5469 6.01562C87.8438 6.59896 87.9922 7.29688 87.9922 8.10938V9.09375H82.2188C82.2396 9.93229 82.4635 10.5781 82.8906 11.0312C83.3229 11.4844 83.9271 11.7109 84.7031 11.7109C85.2552 11.7109 85.75 11.6589 86.1875 11.5547C86.6302 11.4453 87.0859 11.2865 87.5547 11.0781V12.5703C87.1224 12.7734 86.6823 12.9219 86.2344 13.0156C85.7865 13.1094 85.25 13.1562 84.625 13.1562C83.776 13.1562 83.0286 12.9922 82.3828 12.6641C81.7422 12.3307 81.2396 11.8359 80.875 11.1797C80.5156 10.5234 80.3359 9.70833 80.3359 8.73438C80.3359 7.76562 80.5 6.94271 80.8281 6.26562C81.1562 5.58854 81.6172 5.07292 82.2109 4.71875C82.8047 4.36458 83.4974 4.1875 84.2891 4.1875ZM84.2891 5.57031C83.7109 5.57031 83.2422 5.75781 82.8828 6.13281C82.5286 6.50781 82.3203 7.05729 82.2578 7.78125H86.1953C86.1901 7.34896 86.1172 6.96615 85.9766 6.63281C85.8411 6.29948 85.6328 6.03906 85.3516 5.85156C85.0755 5.66406 84.7214 5.57031 84.2891 5.57031ZM94.4453 4.1875C94.5911 4.1875 94.75 4.19531 94.9219 4.21094C95.0938 4.22656 95.2422 4.2474 95.3672 4.27344L95.1953 5.99219C95.0859 5.96094 94.9505 5.9375 94.7891 5.92188C94.6328 5.90625 94.4922 5.89844 94.3672 5.89844C94.0391 5.89844 93.7266 5.95312 93.4297 6.0625C93.1328 6.16667 92.8698 6.32812 92.6406 6.54688C92.4115 6.76042 92.2318 7.02865 92.1016 7.35156C91.9714 7.67448 91.9062 8.04948 91.9062 8.47656V13H90.0625V4.35156H91.5L91.75 5.875H91.8359C92.0078 5.56771 92.2214 5.28646 92.4766 5.03125C92.7318 4.77604 93.0234 4.57292 93.3516 4.42188C93.6849 4.26562 94.0495 4.1875 94.4453 4.1875ZM100.414 4.1875C101.185 4.1875 101.846 4.34635 102.398 4.66406C102.951 4.98177 103.375 5.43229 103.672 6.01562C103.969 6.59896 104.117 7.29688 104.117 8.10938V9.09375H98.3438C98.3646 9.93229 98.5885 10.5781 99.0156 11.0312C99.4479 11.4844 100.052 11.7109 100.828 11.7109C101.38 11.7109 101.875 11.6589 102.312 11.5547C102.755 11.4453 103.211 11.2865 103.68 11.0781V12.5703C103.247 12.7734 102.807 12.9219 102.359 13.0156C101.911 13.1094 101.375 13.1562 100.75 13.1562C99.901 13.1562 99.1536 12.9922 98.5078 12.6641C97.8672 12.3307 97.3646 11.8359 97 11.1797C96.6406 10.5234 96.4609 9.70833 96.4609 8.73438C96.4609 7.76562 96.625 6.94271 96.9531 6.26562C97.2812 5.58854 97.7422 5.07292 98.3359 4.71875C98.9297 4.36458 99.6224 4.1875 100.414 4.1875ZM100.414 5.57031C99.8359 5.57031 99.3672 5.75781 99.0078 6.13281C98.6536 6.50781 98.4453 7.05729 98.3828 7.78125H102.32C102.315 7.34896 102.242 6.96615 102.102 6.63281C101.966 6.29948 101.758 6.03906 101.477 5.85156C101.201 5.66406 100.846 5.57031 100.414 5.57031ZM113.734 4.1875C114.828 4.1875 115.654 4.42969 116.211 4.91406C116.773 5.39844 117.055 6.15365 117.055 7.17969V13H115.75L115.398 11.7734H115.336C115.091 12.0859 114.839 12.3438 114.578 12.5469C114.318 12.75 114.016 12.901 113.672 13C113.333 13.1042 112.919 13.1562 112.43 13.1562C111.914 13.1562 111.453 13.0625 111.047 12.875C110.641 12.6823 110.32 12.3906 110.086 12C109.852 11.6094 109.734 11.1146 109.734 10.5156C109.734 9.625 110.065 8.95573 110.727 8.50781C111.393 8.0599 112.398 7.8125 113.742 7.76562L115.242 7.71094V7.25781C115.242 6.65885 115.102 6.23177 114.82 5.97656C114.544 5.72135 114.154 5.59375 113.648 5.59375C113.216 5.59375 112.797 5.65625 112.391 5.78125C111.984 5.90625 111.589 6.0599 111.203 6.24219L110.609 4.94531C111.031 4.72135 111.51 4.53906 112.047 4.39844C112.589 4.25781 113.151 4.1875 113.734 4.1875ZM115.234 8.86719L114.117 8.90625C113.201 8.9375 112.557 9.09375 112.188 9.375C111.818 9.65625 111.633 10.0417 111.633 10.5312C111.633 10.9583 111.76 11.2708 112.016 11.4688C112.271 11.6615 112.607 11.7578 113.023 11.7578C113.659 11.7578 114.185 11.5781 114.602 11.2188C115.023 10.8542 115.234 10.3203 115.234 9.61719V8.86719ZM124.008 4.1875C124.154 4.1875 124.312 4.19531 124.484 4.21094C124.656 4.22656 124.805 4.2474 124.93 4.27344L124.758 5.99219C124.648 5.96094 124.513 5.9375 124.352 5.92188C124.195 5.90625 124.055 5.89844 123.93 5.89844C123.602 5.89844 123.289 5.95312 122.992 6.0625C122.695 6.16667 122.432 6.32812 122.203 6.54688C121.974 6.76042 121.794 7.02865 121.664 7.35156C121.534 7.67448 121.469 8.04948 121.469 8.47656V13H119.625V4.35156H121.062L121.312 5.875H121.398C121.57 5.56771 121.784 5.28646 122.039 5.03125C122.294 4.77604 122.586 4.57292 122.914 4.42188C123.247 4.26562 123.612 4.1875 124.008 4.1875ZM129.977 4.1875C130.747 4.1875 131.409 4.34635 131.961 4.66406C132.513 4.98177 132.938 5.43229 133.234 6.01562C133.531 6.59896 133.68 7.29688 133.68 8.10938V9.09375H127.906C127.927 9.93229 128.151 10.5781 128.578 11.0312C129.01 11.4844 129.615 11.7109 130.391 11.7109C130.943 11.7109 131.438 11.6589 131.875 11.5547C132.318 11.4453 132.773 11.2865 133.242 11.0781V12.5703C132.81 12.7734 132.37 12.9219 131.922 13.0156C131.474 13.1094 130.938 13.1562 130.312 13.1562C129.464 13.1562 128.716 12.9922 128.07 12.6641C127.43 12.3307 126.927 11.8359 126.562 11.1797C126.203 10.5234 126.023 9.70833 126.023 8.73438C126.023 7.76562 126.188 6.94271 126.516 6.26562C126.844 5.58854 127.305 5.07292 127.898 4.71875C128.492 4.36458 129.185 4.1875 129.977 4.1875ZM129.977 5.57031C129.398 5.57031 128.93 5.75781 128.57 6.13281C128.216 6.50781 128.008 7.05729 127.945 7.78125H131.883C131.878 7.34896 131.805 6.96615 131.664 6.63281C131.529 6.29948 131.32 6.03906 131.039 5.85156C130.763 5.66406 130.409 5.57031 129.977 5.57031ZM144.414 4.1875C145.388 4.1875 146.146 4.4401 146.688 4.94531C147.234 5.44531 147.508 6.25 147.508 7.35938V13H145.672V7.70312C145.672 7.03125 145.534 6.52865 145.258 6.19531C144.982 5.85677 144.555 5.6875 143.977 5.6875C143.138 5.6875 142.555 5.94531 142.227 6.46094C141.904 6.97656 141.742 7.72396 141.742 8.70312V13H139.906V4.35156H141.336L141.594 5.52344H141.695C141.883 5.22135 142.115 4.97396 142.391 4.78125C142.672 4.58333 142.984 4.4349 143.328 4.33594C143.677 4.23698 144.039 4.1875 144.414 4.1875ZM157.734 8.65625C157.734 9.375 157.641 10.013 157.453 10.5703C157.266 11.1276 156.992 11.599 156.633 11.9844C156.273 12.3646 155.841 12.6562 155.336 12.8594C154.831 13.0573 154.26 13.1562 153.625 13.1562C153.031 13.1562 152.487 13.0573 151.992 12.8594C151.497 12.6562 151.068 12.3646 150.703 11.9844C150.344 11.599 150.065 11.1276 149.867 10.5703C149.669 10.013 149.57 9.375 149.57 8.65625C149.57 7.70312 149.734 6.89583 150.062 6.23438C150.396 5.56771 150.87 5.0599 151.484 4.71094C152.099 4.36198 152.831 4.1875 153.68 4.1875C154.477 4.1875 155.18 4.36198 155.789 4.71094C156.398 5.0599 156.875 5.56771 157.219 6.23438C157.562 6.90104 157.734 7.70833 157.734 8.65625ZM151.461 8.65625C151.461 9.28646 151.536 9.82552 151.688 10.2734C151.844 10.7214 152.083 11.0651 152.406 11.3047C152.729 11.5391 153.146 11.6562 153.656 11.6562C154.167 11.6562 154.583 11.5391 154.906 11.3047C155.229 11.0651 155.466 10.7214 155.617 10.2734C155.768 9.82552 155.844 9.28646 155.844 8.65625C155.844 8.02604 155.768 7.49219 155.617 7.05469C155.466 6.61198 155.229 6.27604 154.906 6.04688C154.583 5.8125 154.164 5.69531 153.648 5.69531C152.888 5.69531 152.333 5.95052 151.984 6.46094C151.635 6.97135 151.461 7.70312 151.461 8.65625ZM167.484 13.1562C166.667 13.1562 165.958 12.9974 165.359 12.6797C164.76 12.362 164.299 11.875 163.977 11.2188C163.654 10.5625 163.492 9.72917 163.492 8.71875C163.492 7.66667 163.669 6.80729 164.023 6.14062C164.378 5.47396 164.867 4.98177 165.492 4.66406C166.122 4.34635 166.844 4.1875 167.656 4.1875C168.172 4.1875 168.638 4.23958 169.055 4.34375C169.477 4.44271 169.833 4.5651 170.125 4.71094L169.578 6.17969C169.26 6.04948 168.935 5.9401 168.602 5.85156C168.268 5.76302 167.948 5.71875 167.641 5.71875C167.135 5.71875 166.714 5.83073 166.375 6.05469C166.042 6.27865 165.792 6.61198 165.625 7.05469C165.464 7.4974 165.383 8.04688 165.383 8.70312C165.383 9.33854 165.466 9.875 165.633 10.3125C165.799 10.7448 166.047 11.0729 166.375 11.2969C166.703 11.5156 167.107 11.625 167.586 11.625C168.06 11.625 168.484 11.5677 168.859 11.4531C169.234 11.3385 169.589 11.1901 169.922 11.0078V12.6016C169.594 12.7891 169.242 12.9271 168.867 13.0156C168.492 13.1094 168.031 13.1562 167.484 13.1562ZM179.609 8.65625C179.609 9.375 179.516 10.013 179.328 10.5703C179.141 11.1276 178.867 11.599 178.508 11.9844C178.148 12.3646 177.716 12.6562 177.211 12.8594C176.706 13.0573 176.135 13.1562 175.5 13.1562C174.906 13.1562 174.362 13.0573 173.867 12.8594C173.372 12.6562 172.943 12.3646 172.578 11.9844C172.219 11.599 171.94 11.1276 171.742 10.5703C171.544 10.013 171.445 9.375 171.445 8.65625C171.445 7.70312 171.609 6.89583 171.938 6.23438C172.271 5.56771 172.745 5.0599 173.359 4.71094C173.974 4.36198 174.706 4.1875 175.555 4.1875C176.352 4.1875 177.055 4.36198 177.664 4.71094C178.273 5.0599 178.75 5.56771 179.094 6.23438C179.438 6.90104 179.609 7.70833 179.609 8.65625ZM173.336 8.65625C173.336 9.28646 173.411 9.82552 173.562 10.2734C173.719 10.7214 173.958 11.0651 174.281 11.3047C174.604 11.5391 175.021 11.6562 175.531 11.6562C176.042 11.6562 176.458 11.5391 176.781 11.3047C177.104 11.0651 177.341 10.7214 177.492 10.2734C177.643 9.82552 177.719 9.28646 177.719 8.65625C177.719 8.02604 177.643 7.49219 177.492 7.05469C177.341 6.61198 177.104 6.27604 176.781 6.04688C176.458 5.8125 176.039 5.69531 175.523 5.69531C174.763 5.69531 174.208 5.95052 173.859 6.46094C173.51 6.97135 173.336 7.70312 173.336 8.65625ZM184.625 13.1562C183.594 13.1562 182.766 12.7812 182.141 12.0312C181.521 11.276 181.211 10.1641 181.211 8.69531C181.211 7.21094 181.526 6.08854 182.156 5.32812C182.792 4.56771 183.628 4.1875 184.664 4.1875C185.102 4.1875 185.484 4.2474 185.812 4.36719C186.141 4.48177 186.422 4.63802 186.656 4.83594C186.896 5.03385 187.099 5.25521 187.266 5.5H187.352C187.326 5.33854 187.294 5.10677 187.258 4.80469C187.227 4.4974 187.211 4.21354 187.211 3.95312V0.84375H189.055V13H187.617L187.289 11.8203H187.211C187.055 12.0703 186.857 12.2969 186.617 12.5C186.383 12.6979 186.102 12.8568 185.773 12.9766C185.451 13.0964 185.068 13.1562 184.625 13.1562ZM185.141 11.6641C185.927 11.6641 186.482 11.4375 186.805 10.9844C187.128 10.5312 187.294 9.85156 187.305 8.94531V8.70312C187.305 7.73438 187.148 6.99219 186.836 6.47656C186.523 5.95573 185.953 5.69531 185.125 5.69531C184.464 5.69531 183.958 5.96354 183.609 6.5C183.266 7.03125 183.094 7.77344 183.094 8.72656C183.094 9.67969 183.266 10.4089 183.609 10.9141C183.958 11.4141 184.469 11.6641 185.141 11.6641ZM195.133 4.1875C195.904 4.1875 196.565 4.34635 197.117 4.66406C197.669 4.98177 198.094 5.43229 198.391 6.01562C198.688 6.59896 198.836 7.29688 198.836 8.10938V9.09375H193.062C193.083 9.93229 193.307 10.5781 193.734 11.0312C194.167 11.4844 194.771 11.7109 195.547 11.7109C196.099 11.7109 196.594 11.6589 197.031 11.5547C197.474 11.4453 197.93 11.2865 198.398 11.0781V12.5703C197.966 12.7734 197.526 12.9219 197.078 13.0156C196.63 13.1094 196.094 13.1562 195.469 13.1562C194.62 13.1562 193.872 12.9922 193.227 12.6641C192.586 12.3307 192.083 11.8359 191.719 11.1797C191.359 10.5234 191.18 9.70833 191.18 8.73438C191.18 7.76562 191.344 6.94271 191.672 6.26562C192 5.58854 192.461 5.07292 193.055 4.71875C193.648 4.36458 194.341 4.1875 195.133 4.1875ZM195.133 5.57031C194.555 5.57031 194.086 5.75781 193.727 6.13281C193.372 6.50781 193.164 7.05729 193.102 7.78125H197.039C197.034 7.34896 196.961 6.96615 196.82 6.63281C196.685 6.29948 196.477 6.03906 196.195 5.85156C195.919 5.66406 195.565 5.57031 195.133 5.57031ZM208.547 13.1562C207.729 13.1562 207.021 12.9974 206.422 12.6797C205.823 12.362 205.362 11.875 205.039 11.2188C204.716 10.5625 204.555 9.72917 204.555 8.71875C204.555 7.66667 204.732 6.80729 205.086 6.14062C205.44 5.47396 205.93 4.98177 206.555 4.66406C207.185 4.34635 207.906 4.1875 208.719 4.1875C209.234 4.1875 209.701 4.23958 210.117 4.34375C210.539 4.44271 210.896 4.5651 211.188 4.71094L210.641 6.17969C210.323 6.04948 209.997 5.9401 209.664 5.85156C209.331 5.76302 209.01 5.71875 208.703 5.71875C208.198 5.71875 207.776 5.83073 207.438 6.05469C207.104 6.27865 206.854 6.61198 206.688 7.05469C206.526 7.4974 206.445 8.04688 206.445 8.70312C206.445 9.33854 206.529 9.875 206.695 10.3125C206.862 10.7448 207.109 11.0729 207.438 11.2969C207.766 11.5156 208.169 11.625 208.648 11.625C209.122 11.625 209.547 11.5677 209.922 11.4531C210.297 11.3385 210.651 11.1901 210.984 11.0078V12.6016C210.656 12.7891 210.305 12.9271 209.93 13.0156C209.555 13.1094 209.094 13.1562 208.547 13.1562ZM220.672 8.65625C220.672 9.375 220.578 10.013 220.391 10.5703C220.203 11.1276 219.93 11.599 219.57 11.9844C219.211 12.3646 218.779 12.6562 218.273 12.8594C217.768 13.0573 217.198 13.1562 216.562 13.1562C215.969 13.1562 215.424 13.0573 214.93 12.8594C214.435 12.6562 214.005 12.3646 213.641 11.9844C213.281 11.599 213.003 11.1276 212.805 10.5703C212.607 10.013 212.508 9.375 212.508 8.65625C212.508 7.70312 212.672 6.89583 213 6.23438C213.333 5.56771 213.807 5.0599 214.422 4.71094C215.036 4.36198 215.768 4.1875 216.617 4.1875C217.414 4.1875 218.117 4.36198 218.727 4.71094C219.336 5.0599 219.812 5.56771 220.156 6.23438C220.5 6.90104 220.672 7.70833 220.672 8.65625ZM214.398 8.65625C214.398 9.28646 214.474 9.82552 214.625 10.2734C214.781 10.7214 215.021 11.0651 215.344 11.3047C215.667 11.5391 216.083 11.6562 216.594 11.6562C217.104 11.6562 217.521 11.5391 217.844 11.3047C218.167 11.0651 218.404 10.7214 218.555 10.2734C218.706 9.82552 218.781 9.28646 218.781 8.65625C218.781 8.02604 218.706 7.49219 218.555 7.05469C218.404 6.61198 218.167 6.27604 217.844 6.04688C217.521 5.8125 217.102 5.69531 216.586 5.69531C215.826 5.69531 215.271 5.95052 214.922 6.46094C214.573 6.97135 214.398 7.70312 214.398 8.65625ZM224.625 13H222.781V0.84375H224.625V13ZM229.094 13H227.25V0.84375H229.094V13ZM235.109 4.1875C236.203 4.1875 237.029 4.42969 237.586 4.91406C238.148 5.39844 238.43 6.15365 238.43 7.17969V13H237.125L236.773 11.7734H236.711C236.466 12.0859 236.214 12.3438 235.953 12.5469C235.693 12.75 235.391 12.901 235.047 13C234.708 13.1042 234.294 13.1562 233.805 13.1562C233.289 13.1562 232.828 13.0625 232.422 12.875C232.016 12.6823 231.695 12.3906 231.461 12C231.227 11.6094 231.109 11.1146 231.109 10.5156C231.109 9.625 231.44 8.95573 232.102 8.50781C232.768 8.0599 233.773 7.8125 235.117 7.76562L236.617 7.71094V7.25781C236.617 6.65885 236.477 6.23177 236.195 5.97656C235.919 5.72135 235.529 5.59375 235.023 5.59375C234.591 5.59375 234.172 5.65625 233.766 5.78125C233.359 5.90625 232.964 6.0599 232.578 6.24219L231.984 4.94531C232.406 4.72135 232.885 4.53906 233.422 4.39844C233.964 4.25781 234.526 4.1875 235.109 4.1875ZM236.609 8.86719L235.492 8.90625C234.576 8.9375 233.932 9.09375 233.562 9.375C233.193 9.65625 233.008 10.0417 233.008 10.5312C233.008 10.9583 233.135 11.2708 233.391 11.4688C233.646 11.6615 233.982 11.7578 234.398 11.7578C235.034 11.7578 235.56 11.5781 235.977 11.2188C236.398 10.8542 236.609 10.3203 236.609 9.61719V8.86719ZM242.836 0.84375V3.77344C242.836 4.11198 242.826 4.44531 242.805 4.77344C242.789 5.09635 242.773 5.34896 242.758 5.53125H242.836C243.07 5.15625 243.396 4.84115 243.812 4.58594C244.234 4.32552 244.773 4.19531 245.43 4.19531C246.456 4.19531 247.281 4.57292 247.906 5.32812C248.531 6.07812 248.844 7.1901 248.844 8.66406C248.844 9.64323 248.701 10.4661 248.414 11.1328C248.128 11.7995 247.724 12.3047 247.203 12.6484C246.688 12.987 246.081 13.1562 245.383 13.1562C244.727 13.1562 244.195 13.0365 243.789 12.7969C243.388 12.5521 243.073 12.2682 242.844 11.9453H242.711L242.375 13H241V0.84375H242.836ZM244.945 5.6875C244.424 5.6875 244.01 5.79167 243.703 6C243.401 6.20833 243.182 6.52083 243.047 6.9375C242.911 7.34896 242.841 7.8724 242.836 8.50781V8.67188C242.836 9.63542 242.987 10.3724 243.289 10.8828C243.596 11.3932 244.154 11.6484 244.961 11.6484C245.602 11.6484 246.094 11.3906 246.438 10.875C246.781 10.3542 246.953 9.60938 246.953 8.64062C246.953 7.66146 246.781 6.92448 246.438 6.42969C246.099 5.9349 245.602 5.6875 244.945 5.6875ZM258.625 8.65625C258.625 9.375 258.531 10.013 258.344 10.5703C258.156 11.1276 257.883 11.599 257.523 11.9844C257.164 12.3646 256.732 12.6562 256.227 12.8594C255.721 13.0573 255.151 13.1562 254.516 13.1562C253.922 13.1562 253.378 13.0573 252.883 12.8594C252.388 12.6562 251.958 12.3646 251.594 11.9844C251.234 11.599 250.956 11.1276 250.758 10.5703C250.56 10.013 250.461 9.375 250.461 8.65625C250.461 7.70312 250.625 6.89583 250.953 6.23438C251.286 5.56771 251.76 5.0599 252.375 4.71094C252.99 4.36198 253.721 4.1875 254.57 4.1875C255.367 4.1875 256.07 4.36198 256.68 4.71094C257.289 5.0599 257.766 5.56771 258.109 6.23438C258.453 6.90104 258.625 7.70833 258.625 8.65625ZM252.352 8.65625C252.352 9.28646 252.427 9.82552 252.578 10.2734C252.734 10.7214 252.974 11.0651 253.297 11.3047C253.62 11.5391 254.036 11.6562 254.547 11.6562C255.057 11.6562 255.474 11.5391 255.797 11.3047C256.12 11.0651 256.357 10.7214 256.508 10.2734C256.659 9.82552 256.734 9.28646 256.734 8.65625C256.734 8.02604 256.659 7.49219 256.508 7.05469C256.357 6.61198 256.12 6.27604 255.797 6.04688C255.474 5.8125 255.055 5.69531 254.539 5.69531C253.779 5.69531 253.224 5.95052 252.875 6.46094C252.526 6.97135 252.352 7.70312 252.352 8.65625ZM2.14844 28.3516V37H0.3125V28.3516H2.14844ZM1.24219 25.0391C1.52344 25.0391 1.76562 25.1146 1.96875 25.2656C2.17708 25.4167 2.28125 25.6771 2.28125 26.0469C2.28125 26.4115 2.17708 26.6719 1.96875 26.8281C1.76562 26.9792 1.52344 27.0547 1.24219 27.0547C0.950521 27.0547 0.703125 26.9792 0.5 26.8281C0.302083 26.6719 0.203125 26.4115 0.203125 26.0469C0.203125 25.6771 0.302083 25.4167 0.5 25.2656C0.703125 25.1146 0.950521 25.0391 1.24219 25.0391ZM9.28906 28.1875C10.263 28.1875 11.0208 28.4401 11.5625 28.9453C12.1094 29.4453 12.3828 30.25 12.3828 31.3594V37H10.5469V31.7031C10.5469 31.0312 10.4089 30.5286 10.1328 30.1953C9.85677 29.8568 9.42969 29.6875 8.85156 29.6875C8.01302 29.6875 7.42969 29.9453 7.10156 30.4609C6.77865 30.9766 6.61719 31.724 6.61719 32.7031V37H4.78125V28.3516H6.21094L6.46875 29.5234H6.57031C6.75781 29.2214 6.98958 28.974 7.26562 28.7812C7.54688 28.5833 7.85938 28.4349 8.20312 28.3359C8.55208 28.237 8.91406 28.1875 9.28906 28.1875ZM18.1719 35.6719C18.4115 35.6719 18.6484 35.651 18.8828 35.6094C19.1172 35.5625 19.3307 35.5078 19.5234 35.4453V36.8359C19.3203 36.9245 19.0573 37 18.7344 37.0625C18.4115 37.125 18.0755 37.1562 17.7266 37.1562C17.237 37.1562 16.7969 37.0755 16.4062 36.9141C16.0156 36.7474 15.7057 36.4635 15.4766 36.0625C15.2474 35.6615 15.1328 35.1068 15.1328 34.3984V29.75H13.9531V28.9297L15.2188 28.2812L15.8203 26.4297H16.9766V28.3516H19.4531V29.75H16.9766V34.375C16.9766 34.8125 17.0859 35.138 17.3047 35.3516C17.5234 35.5651 17.8125 35.6719 18.1719 35.6719ZM24.7266 28.1875C25.4974 28.1875 26.1589 28.3464 26.7109 28.6641C27.263 28.9818 27.6875 29.4323 27.9844 30.0156C28.2812 30.599 28.4297 31.2969 28.4297 32.1094V33.0938H22.6562C22.6771 33.9323 22.901 34.5781 23.3281 35.0312C23.7604 35.4844 24.3646 35.7109 25.1406 35.7109C25.6927 35.7109 26.1875 35.6589 26.625 35.5547C27.0677 35.4453 27.5234 35.2865 27.9922 35.0781V36.5703C27.5599 36.7734 27.1198 36.9219 26.6719 37.0156C26.224 37.1094 25.6875 37.1562 25.0625 37.1562C24.2135 37.1562 23.4661 36.9922 22.8203 36.6641C22.1797 36.3307 21.6771 35.8359 21.3125 35.1797C20.9531 34.5234 20.7734 33.7083 20.7734 32.7344C20.7734 31.7656 20.9375 30.9427 21.2656 30.2656C21.5938 29.5885 22.0547 29.0729 22.6484 28.7188C23.2422 28.3646 23.9349 28.1875 24.7266 28.1875ZM24.7266 29.5703C24.1484 29.5703 23.6797 29.7578 23.3203 30.1328C22.9661 30.5078 22.7578 31.0573 22.6953 31.7812H26.6328C26.6276 31.349 26.5547 30.9661 26.4141 30.6328C26.2786 30.2995 26.0703 30.0391 25.7891 29.8516C25.513 29.6641 25.1589 29.5703 24.7266 29.5703ZM34.8828 28.1875C35.0286 28.1875 35.1875 28.1953 35.3594 28.2109C35.5312 28.2266 35.6797 28.2474 35.8047 28.2734L35.6328 29.9922C35.5234 29.9609 35.388 29.9375 35.2266 29.9219C35.0703 29.9062 34.9297 29.8984 34.8047 29.8984C34.4766 29.8984 34.1641 29.9531 33.8672 30.0625C33.5703 30.1667 33.3073 30.3281 33.0781 30.5469C32.849 30.7604 32.6693 31.0286 32.5391 31.3516C32.4089 31.6745 32.3438 32.0495 32.3438 32.4766V37H30.5V28.3516H31.9375L32.1875 29.875H32.2734C32.4453 29.5677 32.6589 29.2865 32.9141 29.0312C33.1693 28.776 33.4609 28.5729 33.7891 28.4219C34.1224 28.2656 34.487 28.1875 34.8828 28.1875ZM41.9141 28.1875C42.888 28.1875 43.6458 28.4401 44.1875 28.9453C44.7344 29.4453 45.0078 30.25 45.0078 31.3594V37H43.1719V31.7031C43.1719 31.0312 43.0339 30.5286 42.7578 30.1953C42.4818 29.8568 42.0547 29.6875 41.4766 29.6875C40.638 29.6875 40.0547 29.9453 39.7266 30.4609C39.4036 30.9766 39.2422 31.724 39.2422 32.7031V37H37.4062V28.3516H38.8359L39.0938 29.5234H39.1953C39.3828 29.2214 39.6146 28.974 39.8906 28.7812C40.1719 28.5833 40.4844 28.4349 40.8281 28.3359C41.1771 28.237 41.5391 28.1875 41.9141 28.1875ZM53.3906 34.5312C53.3906 35.099 53.2526 35.5781 52.9766 35.9688C52.7005 36.3594 52.2969 36.6562 51.7656 36.8594C51.2396 37.0573 50.5938 37.1562 49.8281 37.1562C49.224 37.1562 48.7031 37.112 48.2656 37.0234C47.8333 36.9401 47.4245 36.8099 47.0391 36.6328V35.0469C47.4505 35.2396 47.9115 35.4062 48.4219 35.5469C48.9375 35.6875 49.4245 35.7578 49.8828 35.7578C50.487 35.7578 50.9219 35.6641 51.1875 35.4766C51.4531 35.2839 51.5859 35.0286 51.5859 34.7109C51.5859 34.5234 51.5312 34.3568 51.4219 34.2109C51.3177 34.0599 51.1198 33.9062 50.8281 33.75C50.5417 33.5885 50.1198 33.3958 49.5625 33.1719C49.0156 32.9531 48.5547 32.7344 48.1797 32.5156C47.8047 32.2969 47.5208 32.0339 47.3281 31.7266C47.1354 31.4141 47.0391 31.0156 47.0391 30.5312C47.0391 29.7656 47.3411 29.1849 47.9453 28.7891C48.5547 28.388 49.3594 28.1875 50.3594 28.1875C50.8906 28.1875 51.3906 28.2422 51.8594 28.3516C52.3333 28.4557 52.7969 28.6094 53.25 28.8125L52.6719 30.1953C52.2812 30.0234 51.888 29.8828 51.4922 29.7734C51.1016 29.6589 50.7031 29.6016 50.2969 29.6016C49.8229 29.6016 49.4609 29.6745 49.2109 29.8203C48.9661 29.9661 48.8438 30.1745 48.8438 30.4453C48.8438 30.6484 48.9036 30.8203 49.0234 30.9609C49.1432 31.1016 49.349 31.2422 49.6406 31.3828C49.9375 31.5234 50.349 31.6979 50.875 31.9062C51.3906 32.1042 51.8359 32.3125 52.2109 32.5312C52.5911 32.7448 52.8828 33.0078 53.0859 33.3203C53.2891 33.6328 53.3906 34.0365 53.3906 34.5312ZM57.2109 24.8438V27.8984C57.2109 28.2161 57.2005 28.526 57.1797 28.8281C57.1641 29.1302 57.1458 29.3646 57.125 29.5312H57.2266C57.4089 29.2292 57.6328 28.9818 57.8984 28.7891C58.1641 28.5911 58.4609 28.4427 58.7891 28.3438C59.1224 28.2448 59.4766 28.1953 59.8516 28.1953C60.513 28.1953 61.0755 28.3073 61.5391 28.5312C62.0026 28.75 62.3568 29.0911 62.6016 29.5547C62.8516 30.0182 62.9766 30.6198 62.9766 31.3594V37H61.1406V31.7031C61.1406 31.0312 61.0026 30.5286 60.7266 30.1953C60.4505 29.8568 60.0234 29.6875 59.4453 29.6875C58.888 29.6875 58.4453 29.8047 58.1172 30.0391C57.7943 30.2682 57.5625 30.6094 57.4219 31.0625C57.2812 31.5104 57.2109 32.0573 57.2109 32.7031V37H55.375V24.8438H57.2109ZM67.3828 28.3516V37H65.5469V28.3516H67.3828ZM66.4766 25.0391C66.7578 25.0391 67 25.1146 67.2031 25.2656C67.4115 25.4167 67.5156 25.6771 67.5156 26.0469C67.5156 26.4115 67.4115 26.6719 67.2031 26.8281C67 26.9792 66.7578 27.0547 66.4766 27.0547C66.1849 27.0547 65.9375 26.9792 65.7344 26.8281C65.5365 26.6719 65.4375 26.4115 65.4375 26.0469C65.4375 25.6771 65.5365 25.4167 65.7344 25.2656C65.9375 25.1146 66.1849 25.0391 66.4766 25.0391ZM74.4531 28.1875C75.4792 28.1875 76.3021 28.5625 76.9219 29.3125C77.5469 30.0625 77.8594 31.1771 77.8594 32.6562C77.8594 33.6354 77.7135 34.4609 77.4219 35.1328C77.1354 35.7995 76.7318 36.3047 76.2109 36.6484C75.6953 36.987 75.0938 37.1562 74.4062 37.1562C73.9688 37.1562 73.5885 37.099 73.2656 36.9844C72.9427 36.8698 72.6667 36.7214 72.4375 36.5391C72.2083 36.3516 72.0156 36.1484 71.8594 35.9297H71.75C71.776 36.138 71.7995 36.3698 71.8203 36.625C71.8464 36.875 71.8594 37.1042 71.8594 37.3125V40.8359H70.0156V28.3516H71.5156L71.7734 29.5469H71.8594C72.0208 29.3021 72.2161 29.0755 72.4453 28.8672C72.6797 28.6589 72.9609 28.4948 73.2891 28.375C73.6224 28.25 74.0104 28.1875 74.4531 28.1875ZM73.9609 29.6875C73.4557 29.6875 73.0495 29.7891 72.7422 29.9922C72.4401 30.1901 72.2188 30.4896 72.0781 30.8906C71.9427 31.2917 71.8698 31.7943 71.8594 32.3984V32.6562C71.8594 33.2969 71.9245 33.8411 72.0547 34.2891C72.1901 34.7318 72.4115 35.0703 72.7188 35.3047C73.0312 35.5339 73.4531 35.6484 73.9844 35.6484C74.4323 35.6484 74.8021 35.526 75.0938 35.2812C75.3906 35.0365 75.612 34.6875 75.7578 34.2344C75.9036 33.7812 75.9766 33.2474 75.9766 32.6328C75.9766 31.7005 75.8099 30.9766 75.4766 30.4609C75.1484 29.9453 74.6432 29.6875 73.9609 29.6875ZM88.5781 28.1875C89.6042 28.1875 90.4271 28.5625 91.0469 29.3125C91.6719 30.0625 91.9844 31.1771 91.9844 32.6562C91.9844 33.6354 91.8385 34.4609 91.5469 35.1328C91.2604 35.7995 90.8568 36.3047 90.3359 36.6484C89.8203 36.987 89.2188 37.1562 88.5312 37.1562C88.0938 37.1562 87.7135 37.099 87.3906 36.9844C87.0677 36.8698 86.7917 36.7214 86.5625 36.5391C86.3333 36.3516 86.1406 36.1484 85.9844 35.9297H85.875C85.901 36.138 85.9245 36.3698 85.9453 36.625C85.9714 36.875 85.9844 37.1042 85.9844 37.3125V40.8359H84.1406V28.3516H85.6406L85.8984 29.5469H85.9844C86.1458 29.3021 86.3411 29.0755 86.5703 28.8672C86.8047 28.6589 87.0859 28.4948 87.4141 28.375C87.7474 28.25 88.1354 28.1875 88.5781 28.1875ZM88.0859 29.6875C87.5807 29.6875 87.1745 29.7891 86.8672 29.9922C86.5651 30.1901 86.3438 30.4896 86.2031 30.8906C86.0677 31.2917 85.9948 31.7943 85.9844 32.3984V32.6562C85.9844 33.2969 86.0495 33.8411 86.1797 34.2891C86.3151 34.7318 86.5365 35.0703 86.8438 35.3047C87.1562 35.5339 87.5781 35.6484 88.1094 35.6484C88.5573 35.6484 88.9271 35.526 89.2188 35.2812C89.5156 35.0365 89.737 34.6875 89.8828 34.2344C90.0286 33.7812 90.1016 33.2474 90.1016 32.6328C90.1016 31.7005 89.9349 30.9766 89.6016 30.4609C89.2734 29.9453 88.7682 29.6875 88.0859 29.6875ZM98.4922 28.1875C98.638 28.1875 98.7969 28.1953 98.9688 28.2109C99.1406 28.2266 99.2891 28.2474 99.4141 28.2734L99.2422 29.9922C99.1328 29.9609 98.9974 29.9375 98.8359 29.9219C98.6797 29.9062 98.5391 29.8984 98.4141 29.8984C98.0859 29.8984 97.7734 29.9531 97.4766 30.0625C97.1797 30.1667 96.9167 30.3281 96.6875 30.5469C96.4583 30.7604 96.2786 31.0286 96.1484 31.3516C96.0182 31.6745 95.9531 32.0495 95.9531 32.4766V37H94.1094V28.3516H95.5469L95.7969 29.875H95.8828C96.0547 29.5677 96.2682 29.2865 96.5234 29.0312C96.7786 28.776 97.0703 28.5729 97.3984 28.4219C97.7318 28.2656 98.0964 28.1875 98.4922 28.1875ZM108.672 32.6562C108.672 33.375 108.578 34.013 108.391 34.5703C108.203 35.1276 107.93 35.599 107.57 35.9844C107.211 36.3646 106.779 36.6562 106.273 36.8594C105.768 37.0573 105.198 37.1562 104.562 37.1562C103.969 37.1562 103.424 37.0573 102.93 36.8594C102.435 36.6562 102.005 36.3646 101.641 35.9844C101.281 35.599 101.003 35.1276 100.805 34.5703C100.607 34.013 100.508 33.375 100.508 32.6562C100.508 31.7031 100.672 30.8958 101 30.2344C101.333 29.5677 101.807 29.0599 102.422 28.7109C103.036 28.362 103.768 28.1875 104.617 28.1875C105.414 28.1875 106.117 28.362 106.727 28.7109C107.336 29.0599 107.812 29.5677 108.156 30.2344C108.5 30.901 108.672 31.7083 108.672 32.6562ZM102.398 32.6562C102.398 33.2865 102.474 33.8255 102.625 34.2734C102.781 34.7214 103.021 35.0651 103.344 35.3047C103.667 35.5391 104.083 35.6562 104.594 35.6562C105.104 35.6562 105.521 35.5391 105.844 35.3047C106.167 35.0651 106.404 34.7214 106.555 34.2734C106.706 33.8255 106.781 33.2865 106.781 32.6562C106.781 32.026 106.706 31.4922 106.555 31.0547C106.404 30.612 106.167 30.276 105.844 30.0469C105.521 29.8125 105.102 29.6953 104.586 29.6953C103.826 29.6953 103.271 29.9505 102.922 30.4609C102.573 30.9714 102.398 31.7031 102.398 32.6562ZM113.25 40.8438C112.078 40.8438 111.18 40.6328 110.555 40.2109C109.93 39.7891 109.617 39.1979 109.617 38.4375C109.617 37.9062 109.784 37.4557 110.117 37.0859C110.451 36.7214 110.927 36.4688 111.547 36.3281C111.312 36.224 111.109 36.0625 110.938 35.8438C110.771 35.6198 110.688 35.3724 110.688 35.1016C110.688 34.7786 110.779 34.5026 110.961 34.2734C111.143 34.0443 111.417 33.8229 111.781 33.6094C111.328 33.4167 110.964 33.1042 110.688 32.6719C110.417 32.2344 110.281 31.7214 110.281 31.1328C110.281 30.5078 110.414 29.9766 110.68 29.5391C110.945 29.0964 111.333 28.7604 111.844 28.5312C112.354 28.2969 112.971 28.1797 113.695 28.1797C113.852 28.1797 114.021 28.1901 114.203 28.2109C114.391 28.2266 114.562 28.2474 114.719 28.2734C114.88 28.2943 115.003 28.3177 115.086 28.3438H118.078V29.3672L116.609 29.6406C116.75 29.8385 116.862 30.0651 116.945 30.3203C117.029 30.5703 117.07 30.8438 117.07 31.1406C117.07 32.0365 116.76 32.7422 116.141 33.2578C115.526 33.7682 114.677 34.0234 113.594 34.0234C113.333 34.013 113.081 33.9922 112.836 33.9609C112.648 34.0755 112.505 34.2031 112.406 34.3438C112.307 34.4792 112.258 34.6328 112.258 34.8047C112.258 34.9453 112.307 35.0599 112.406 35.1484C112.505 35.2318 112.651 35.2943 112.844 35.3359C113.042 35.3776 113.281 35.3984 113.562 35.3984H115.055C116.003 35.3984 116.727 35.599 117.227 36C117.727 36.401 117.977 36.9896 117.977 37.7656C117.977 38.75 117.57 39.5078 116.758 40.0391C115.945 40.5755 114.776 40.8438 113.25 40.8438ZM113.32 39.5547C113.961 39.5547 114.5 39.4922 114.938 39.3672C115.375 39.2422 115.706 39.0625 115.93 38.8281C116.154 38.599 116.266 38.3255 116.266 38.0078C116.266 37.7266 116.195 37.5104 116.055 37.3594C115.914 37.2083 115.703 37.1042 115.422 37.0469C115.141 36.9896 114.792 36.9609 114.375 36.9609H113.016C112.677 36.9609 112.378 37.013 112.117 37.1172C111.857 37.2266 111.654 37.3828 111.508 37.5859C111.367 37.7891 111.297 38.0339 111.297 38.3203C111.297 38.7161 111.471 39.0208 111.82 39.2344C112.174 39.4479 112.674 39.5547 113.32 39.5547ZM113.68 32.8203C114.216 32.8203 114.615 32.6745 114.875 32.3828C115.135 32.0859 115.266 31.6693 115.266 31.1328C115.266 30.5495 115.13 30.112 114.859 29.8203C114.594 29.5286 114.198 29.3828 113.672 29.3828C113.156 29.3828 112.763 29.5312 112.492 29.8281C112.227 30.125 112.094 30.5651 112.094 31.1484C112.094 31.6745 112.227 32.0859 112.492 32.3828C112.763 32.6745 113.159 32.8203 113.68 32.8203ZM124.039 28.1875C124.185 28.1875 124.344 28.1953 124.516 28.2109C124.688 28.2266 124.836 28.2474 124.961 28.2734L124.789 29.9922C124.68 29.9609 124.544 29.9375 124.383 29.9219C124.227 29.9062 124.086 29.8984 123.961 29.8984C123.633 29.8984 123.32 29.9531 123.023 30.0625C122.727 30.1667 122.464 30.3281 122.234 30.5469C122.005 30.7604 121.826 31.0286 121.695 31.3516C121.565 31.6745 121.5 32.0495 121.5 32.4766V37H119.656V28.3516H121.094L121.344 29.875H121.43C121.602 29.5677 121.815 29.2865 122.07 29.0312C122.326 28.776 122.617 28.5729 122.945 28.4219C123.279 28.2656 123.643 28.1875 124.039 28.1875ZM129.953 28.1875C131.047 28.1875 131.872 28.4297 132.43 28.9141C132.992 29.3984 133.273 30.1536 133.273 31.1797V37H131.969L131.617 35.7734H131.555C131.31 36.0859 131.057 36.3438 130.797 36.5469C130.536 36.75 130.234 36.901 129.891 37C129.552 37.1042 129.138 37.1562 128.648 37.1562C128.133 37.1562 127.672 37.0625 127.266 36.875C126.859 36.6823 126.539 36.3906 126.305 36C126.07 35.6094 125.953 35.1146 125.953 34.5156C125.953 33.625 126.284 32.9557 126.945 32.5078C127.612 32.0599 128.617 31.8125 129.961 31.7656L131.461 31.7109V31.2578C131.461 30.6589 131.32 30.2318 131.039 29.9766C130.763 29.7214 130.372 29.5938 129.867 29.5938C129.435 29.5938 129.016 29.6562 128.609 29.7812C128.203 29.9062 127.807 30.0599 127.422 30.2422L126.828 28.9453C127.25 28.7214 127.729 28.5391 128.266 28.3984C128.807 28.2578 129.37 28.1875 129.953 28.1875ZM131.453 32.8672L130.336 32.9062C129.419 32.9375 128.776 33.0938 128.406 33.375C128.036 33.6562 127.852 34.0417 127.852 34.5312C127.852 34.9583 127.979 35.2708 128.234 35.4688C128.49 35.6615 128.826 35.7578 129.242 35.7578C129.878 35.7578 130.404 35.5781 130.82 35.2188C131.242 34.8542 131.453 34.3203 131.453 33.6172V32.8672ZM145.617 28.1875C146.586 28.1875 147.315 28.4375 147.805 28.9375C148.299 29.4375 148.547 30.2396 148.547 31.3438V37H146.711V31.6719C146.711 31.0156 146.583 30.5208 146.328 30.1875C146.073 29.8542 145.685 29.6875 145.164 29.6875C144.435 29.6875 143.909 29.9219 143.586 30.3906C143.268 30.8542 143.109 31.5286 143.109 32.4141V37H141.273V31.6719C141.273 31.2344 141.216 30.8698 141.102 30.5781C140.992 30.2812 140.823 30.0599 140.594 29.9141C140.365 29.763 140.076 29.6875 139.727 29.6875C139.221 29.6875 138.818 29.8021 138.516 30.0312C138.219 30.2604 138.005 30.599 137.875 31.0469C137.745 31.4896 137.68 32.0339 137.68 32.6797V37H135.844V28.3516H137.273L137.531 29.5156H137.633C137.81 29.2135 138.029 28.9661 138.289 28.7734C138.555 28.5755 138.849 28.4297 139.172 28.3359C139.495 28.237 139.831 28.1875 140.18 28.1875C140.826 28.1875 141.37 28.3021 141.812 28.5312C142.255 28.7552 142.586 29.099 142.805 29.5625H142.945C143.216 29.0938 143.594 28.7474 144.078 28.5234C144.562 28.2995 145.076 28.1875 145.617 28.1875ZM158.656 28.1875C159.75 28.1875 160.576 28.4297 161.133 28.9141C161.695 29.3984 161.977 30.1536 161.977 31.1797V37H160.672L160.32 35.7734H160.258C160.013 36.0859 159.76 36.3438 159.5 36.5469C159.24 36.75 158.938 36.901 158.594 37C158.255 37.1042 157.841 37.1562 157.352 37.1562C156.836 37.1562 156.375 37.0625 155.969 36.875C155.562 36.6823 155.242 36.3906 155.008 36C154.773 35.6094 154.656 35.1146 154.656 34.5156C154.656 33.625 154.987 32.9557 155.648 32.5078C156.315 32.0599 157.32 31.8125 158.664 31.7656L160.164 31.7109V31.2578C160.164 30.6589 160.023 30.2318 159.742 29.9766C159.466 29.7214 159.076 29.5938 158.57 29.5938C158.138 29.5938 157.719 29.6562 157.312 29.7812C156.906 29.9062 156.51 30.0599 156.125 30.2422L155.531 28.9453C155.953 28.7214 156.432 28.5391 156.969 28.3984C157.51 28.2578 158.073 28.1875 158.656 28.1875ZM160.156 32.8672L159.039 32.9062C158.122 32.9375 157.479 33.0938 157.109 33.375C156.74 33.6562 156.555 34.0417 156.555 34.5312C156.555 34.9583 156.682 35.2708 156.938 35.4688C157.193 35.6615 157.529 35.7578 157.945 35.7578C158.581 35.7578 159.107 35.5781 159.523 35.2188C159.945 34.8542 160.156 34.3203 160.156 33.6172V32.8672ZM167.766 35.6719C168.005 35.6719 168.242 35.651 168.477 35.6094C168.711 35.5625 168.924 35.5078 169.117 35.4453V36.8359C168.914 36.9245 168.651 37 168.328 37.0625C168.005 37.125 167.669 37.1562 167.32 37.1562C166.831 37.1562 166.391 37.0755 166 36.9141C165.609 36.7474 165.299 36.4635 165.07 36.0625C164.841 35.6615 164.727 35.1068 164.727 34.3984V29.75H163.547V28.9297L164.812 28.2812L165.414 26.4297H166.57V28.3516H169.047V29.75H166.57V34.375C166.57 34.8125 166.68 35.138 166.898 35.3516C167.117 35.5651 167.406 35.6719 167.766 35.6719ZM178.25 35.6719C178.49 35.6719 178.727 35.651 178.961 35.6094C179.195 35.5625 179.409 35.5078 179.602 35.4453V36.8359C179.398 36.9245 179.135 37 178.812 37.0625C178.49 37.125 178.154 37.1562 177.805 37.1562C177.315 37.1562 176.875 37.0755 176.484 36.9141C176.094 36.7474 175.784 36.4635 175.555 36.0625C175.326 35.6615 175.211 35.1068 175.211 34.3984V29.75H174.031V28.9297L175.297 28.2812L175.898 26.4297H177.055V28.3516H179.531V29.75H177.055V34.375C177.055 34.8125 177.164 35.138 177.383 35.3516C177.602 35.5651 177.891 35.6719 178.25 35.6719ZM183.195 24.8438V27.8984C183.195 28.2161 183.185 28.526 183.164 28.8281C183.148 29.1302 183.13 29.3646 183.109 29.5312H183.211C183.393 29.2292 183.617 28.9818 183.883 28.7891C184.148 28.5911 184.445 28.4427 184.773 28.3438C185.107 28.2448 185.461 28.1953 185.836 28.1953C186.497 28.1953 187.06 28.3073 187.523 28.5312C187.987 28.75 188.341 29.0911 188.586 29.5547C188.836 30.0182 188.961 30.6198 188.961 31.3594V37H187.125V31.7031C187.125 31.0312 186.987 30.5286 186.711 30.1953C186.435 29.8568 186.008 29.6875 185.43 29.6875C184.872 29.6875 184.43 29.8047 184.102 30.0391C183.779 30.2682 183.547 30.6094 183.406 31.0625C183.266 31.5104 183.195 32.0573 183.195 32.7031V37H181.359V24.8438H183.195ZM194.977 28.1875C195.747 28.1875 196.409 28.3464 196.961 28.6641C197.513 28.9818 197.938 29.4323 198.234 30.0156C198.531 30.599 198.68 31.2969 198.68 32.1094V33.0938H192.906C192.927 33.9323 193.151 34.5781 193.578 35.0312C194.01 35.4844 194.615 35.7109 195.391 35.7109C195.943 35.7109 196.438 35.6589 196.875 35.5547C197.318 35.4453 197.773 35.2865 198.242 35.0781V36.5703C197.81 36.7734 197.37 36.9219 196.922 37.0156C196.474 37.1094 195.938 37.1562 195.312 37.1562C194.464 37.1562 193.716 36.9922 193.07 36.6641C192.43 36.3307 191.927 35.8359 191.562 35.1797C191.203 34.5234 191.023 33.7083 191.023 32.7344C191.023 31.7656 191.188 30.9427 191.516 30.2656C191.844 29.5885 192.305 29.0729 192.898 28.7188C193.492 28.3646 194.185 28.1875 194.977 28.1875ZM194.977 29.5703C194.398 29.5703 193.93 29.7578 193.57 30.1328C193.216 30.5078 193.008 31.0573 192.945 31.7812H196.883C196.878 31.349 196.805 30.9661 196.664 30.6328C196.529 30.2995 196.32 30.0391 196.039 29.8516C195.763 29.6641 195.409 29.5703 194.977 29.5703ZM214.68 28.1875C215.648 28.1875 216.378 28.4375 216.867 28.9375C217.362 29.4375 217.609 30.2396 217.609 31.3438V37H215.773V31.6719C215.773 31.0156 215.646 30.5208 215.391 30.1875C215.135 29.8542 214.747 29.6875 214.227 29.6875C213.497 29.6875 212.971 29.9219 212.648 30.3906C212.331 30.8542 212.172 31.5286 212.172 32.4141V37H210.336V31.6719C210.336 31.2344 210.279 30.8698 210.164 30.5781C210.055 30.2812 209.885 30.0599 209.656 29.9141C209.427 29.763 209.138 29.6875 208.789 29.6875C208.284 29.6875 207.88 29.8021 207.578 30.0312C207.281 30.2604 207.068 30.599 206.938 31.0469C206.807 31.4896 206.742 32.0339 206.742 32.6797V37H204.906V28.3516H206.336L206.594 29.5156H206.695C206.872 29.2135 207.091 28.9661 207.352 28.7734C207.617 28.5755 207.911 28.4297 208.234 28.3359C208.557 28.237 208.893 28.1875 209.242 28.1875C209.888 28.1875 210.432 28.3021 210.875 28.5312C211.318 28.7552 211.648 29.099 211.867 29.5625H212.008C212.279 29.0938 212.656 28.7474 213.141 28.5234C213.625 28.2995 214.138 28.1875 214.68 28.1875ZM227.828 32.6562C227.828 33.375 227.734 34.013 227.547 34.5703C227.359 35.1276 227.086 35.599 226.727 35.9844C226.367 36.3646 225.935 36.6562 225.43 36.8594C224.924 37.0573 224.354 37.1562 223.719 37.1562C223.125 37.1562 222.581 37.0573 222.086 36.8594C221.591 36.6562 221.161 36.3646 220.797 35.9844C220.438 35.599 220.159 35.1276 219.961 34.5703C219.763 34.013 219.664 33.375 219.664 32.6562C219.664 31.7031 219.828 30.8958 220.156 30.2344C220.49 29.5677 220.964 29.0599 221.578 28.7109C222.193 28.362 222.924 28.1875 223.773 28.1875C224.57 28.1875 225.273 28.362 225.883 28.7109C226.492 29.0599 226.969 29.5677 227.312 30.2344C227.656 30.901 227.828 31.7083 227.828 32.6562ZM221.555 32.6562C221.555 33.2865 221.63 33.8255 221.781 34.2734C221.938 34.7214 222.177 35.0651 222.5 35.3047C222.823 35.5391 223.24 35.6562 223.75 35.6562C224.26 35.6562 224.677 35.5391 225 35.3047C225.323 35.0651 225.56 34.7214 225.711 34.2734C225.862 33.8255 225.938 33.2865 225.938 32.6562C225.938 32.026 225.862 31.4922 225.711 31.0547C225.56 30.612 225.323 30.276 225 30.0469C224.677 29.8125 224.258 29.6953 223.742 29.6953C222.982 29.6953 222.427 29.9505 222.078 30.4609C221.729 30.9714 221.555 31.7031 221.555 32.6562ZM239.711 28.1875C240.68 28.1875 241.409 28.4375 241.898 28.9375C242.393 29.4375 242.641 30.2396 242.641 31.3438V37H240.805V31.6719C240.805 31.0156 240.677 30.5208 240.422 30.1875C240.167 29.8542 239.779 29.6875 239.258 29.6875C238.529 29.6875 238.003 29.9219 237.68 30.3906C237.362 30.8542 237.203 31.5286 237.203 32.4141V37H235.367V31.6719C235.367 31.2344 235.31 30.8698 235.195 30.5781C235.086 30.2812 234.917 30.0599 234.688 29.9141C234.458 29.763 234.169 29.6875 233.82 29.6875C233.315 29.6875 232.911 29.8021 232.609 30.0312C232.312 30.2604 232.099 30.599 231.969 31.0469C231.839 31.4896 231.773 32.0339 231.773 32.6797V37H229.938V28.3516H231.367L231.625 29.5156H231.727C231.904 29.2135 232.122 28.9661 232.383 28.7734C232.648 28.5755 232.943 28.4297 233.266 28.3359C233.589 28.237 233.924 28.1875 234.273 28.1875C234.919 28.1875 235.464 28.3021 235.906 28.5312C236.349 28.7552 236.68 29.099 236.898 29.5625H237.039C237.31 29.0938 237.688 28.7474 238.172 28.5234C238.656 28.2995 239.169 28.1875 239.711 28.1875ZM248.648 28.1875C249.419 28.1875 250.081 28.3464 250.633 28.6641C251.185 28.9818 251.609 29.4323 251.906 30.0156C252.203 30.599 252.352 31.2969 252.352 32.1094V33.0938H246.578C246.599 33.9323 246.823 34.5781 247.25 35.0312C247.682 35.4844 248.286 35.7109 249.062 35.7109C249.615 35.7109 250.109 35.6589 250.547 35.5547C250.99 35.4453 251.445 35.2865 251.914 35.0781V36.5703C251.482 36.7734 251.042 36.9219 250.594 37.0156C250.146 37.1094 249.609 37.1562 248.984 37.1562C248.135 37.1562 247.388 36.9922 246.742 36.6641C246.102 36.3307 245.599 35.8359 245.234 35.1797C244.875 34.5234 244.695 33.7083 244.695 32.7344C244.695 31.7656 244.859 30.9427 245.188 30.2656C245.516 29.5885 245.977 29.0729 246.57 28.7188C247.164 28.3646 247.857 28.1875 248.648 28.1875ZM248.648 29.5703C248.07 29.5703 247.602 29.7578 247.242 30.1328C246.888 30.5078 246.68 31.0573 246.617 31.7812H250.555C250.549 31.349 250.477 30.9661 250.336 30.6328C250.201 30.2995 249.992 30.0391 249.711 29.8516C249.435 29.6641 249.081 29.5703 248.648 29.5703ZM258.93 28.1875C259.904 28.1875 260.661 28.4401 261.203 28.9453C261.75 29.4453 262.023 30.25 262.023 31.3594V37H260.188V31.7031C260.188 31.0312 260.049 30.5286 259.773 30.1953C259.497 29.8568 259.07 29.6875 258.492 29.6875C257.654 29.6875 257.07 29.9453 256.742 30.4609C256.419 30.9766 256.258 31.724 256.258 32.7031V37H254.422V28.3516H255.852L256.109 29.5234H256.211C256.398 29.2214 256.63 28.974 256.906 28.7812C257.188 28.5833 257.5 28.4349 257.844 28.3359C258.193 28.237 258.555 28.1875 258.93 28.1875ZM267.812 35.6719C268.052 35.6719 268.289 35.651 268.523 35.6094C268.758 35.5625 268.971 35.5078 269.164 35.4453V36.8359C268.961 36.9245 268.698 37 268.375 37.0625C268.052 37.125 267.716 37.1562 267.367 37.1562C266.878 37.1562 266.438 37.0755 266.047 36.9141C265.656 36.7474 265.346 36.4635 265.117 36.0625C264.888 35.6615 264.773 35.1068 264.773 34.3984V29.75H263.594V28.9297L264.859 28.2812L265.461 26.4297H266.617V28.3516H269.094V29.75H266.617V34.375C266.617 34.8125 266.727 35.138 266.945 35.3516C267.164 35.5651 267.453 35.6719 267.812 35.6719ZM270.656 36.0312C270.656 35.6042 270.766 35.3047 270.984 35.1328C271.208 34.9557 271.479 34.8672 271.797 34.8672C272.115 34.8672 272.385 34.9557 272.609 35.1328C272.839 35.3047 272.953 35.6042 272.953 36.0312C272.953 36.4479 272.839 36.75 272.609 36.9375C272.385 37.1198 272.115 37.2109 271.797 37.2109C271.479 37.2109 271.208 37.1198 270.984 36.9375C270.766 36.75 270.656 36.4479 270.656 36.0312ZM58.0234 61H55.8672L52.3125 55.8125L51.1875 56.7266V61H49.3125V49.5781H51.1875V55.0391C51.4167 54.7578 51.6484 54.4766 51.8828 54.1953C52.1172 53.9141 52.3516 53.6328 52.5859 53.3516L55.8047 49.5781H57.9219L53.6562 54.5781L58.0234 61ZM61.1797 52.3516V61H59.3438V52.3516H61.1797ZM60.2734 49.0391C60.5547 49.0391 60.7969 49.1146 61 49.2656C61.2083 49.4167 61.3125 49.6771 61.3125 50.0469C61.3125 50.4115 61.2083 50.6719 61 50.8281C60.7969 50.9792 60.5547 51.0547 60.2734 51.0547C59.9818 51.0547 59.7344 50.9792 59.5312 50.8281C59.3333 50.6719 59.2344 50.4115 59.2344 50.0469C59.2344 49.6771 59.3333 49.4167 59.5312 49.2656C59.7344 49.1146 59.9818 49.0391 60.2734 49.0391ZM68.3203 52.1875C69.2943 52.1875 70.0521 52.4401 70.5938 52.9453C71.1406 53.4453 71.4141 54.25 71.4141 55.3594V61H69.5781V55.7031C69.5781 55.0312 69.4401 54.5286 69.1641 54.1953C68.888 53.8568 68.4609 53.6875 67.8828 53.6875C67.0443 53.6875 66.4609 53.9453 66.1328 54.4609C65.8099 54.9766 65.6484 55.724 65.6484 56.7031V61H63.8125V52.3516H65.2422L65.5 53.5234H65.6016C65.7891 53.2214 66.0208 52.974 66.2969 52.7812C66.5781 52.5833 66.8906 52.4349 67.2344 52.3359C67.5833 52.237 67.9453 52.1875 68.3203 52.1875ZM76.8906 61.1562C75.8594 61.1562 75.0312 60.7812 74.4062 60.0312C73.7865 59.276 73.4766 58.1641 73.4766 56.6953C73.4766 55.2109 73.7917 54.0885 74.4219 53.3281C75.0573 52.5677 75.8932 52.1875 76.9297 52.1875C77.3672 52.1875 77.75 52.2474 78.0781 52.3672C78.4062 52.4818 78.6875 52.638 78.9219 52.8359C79.1615 53.0339 79.3646 53.2552 79.5312 53.5H79.6172C79.5911 53.3385 79.5599 53.1068 79.5234 52.8047C79.4922 52.4974 79.4766 52.2135 79.4766 51.9531V48.8438H81.3203V61H79.8828L79.5547 59.8203H79.4766C79.3203 60.0703 79.1224 60.2969 78.8828 60.5C78.6484 60.6979 78.3672 60.8568 78.0391 60.9766C77.7161 61.0964 77.3333 61.1562 76.8906 61.1562ZM77.4062 59.6641C78.1927 59.6641 78.7474 59.4375 79.0703 58.9844C79.3932 58.5312 79.5599 57.8516 79.5703 56.9453V56.7031C79.5703 55.7344 79.4141 54.9922 79.1016 54.4766C78.7891 53.9557 78.2188 53.6953 77.3906 53.6953C76.7292 53.6953 76.224 53.9635 75.875 54.5C75.5312 55.0312 75.3594 55.7734 75.3594 56.7266C75.3594 57.6797 75.5312 58.4089 75.875 58.9141C76.224 59.4141 76.7344 59.6641 77.4062 59.6641ZM85.7969 61H83.9531V48.8438H85.7969V61ZM87.1172 52.3516H89.1172L90.8906 57.2891C90.9688 57.513 91.0391 57.7344 91.1016 57.9531C91.1693 58.1667 91.2266 58.3776 91.2734 58.5859C91.3255 58.7943 91.3672 59.0026 91.3984 59.2109H91.4453C91.4974 58.9401 91.5703 58.638 91.6641 58.3047C91.763 57.9661 91.8724 57.6276 91.9922 57.2891L93.6953 52.3516H95.6719L91.9609 62.1875C91.7474 62.75 91.4844 63.2292 91.1719 63.625C90.8646 64.026 90.5 64.3281 90.0781 64.5312C89.6562 64.7396 89.1745 64.8438 88.6328 64.8438C88.3724 64.8438 88.1458 64.8281 87.9531 64.7969C87.7604 64.7708 87.5964 64.7422 87.4609 64.7109V63.2422C87.5703 63.2682 87.7083 63.2917 87.875 63.3125C88.0417 63.3333 88.2135 63.3438 88.3906 63.3438C88.7188 63.3438 89.0026 63.2786 89.2422 63.1484C89.4818 63.0182 89.6849 62.8333 89.8516 62.5938C90.0182 62.3594 90.1562 62.0911 90.2656 61.7891L90.5703 60.9766L87.1172 52.3516ZM104.625 61.1562C103.807 61.1562 103.099 60.9974 102.5 60.6797C101.901 60.362 101.44 59.875 101.117 59.2188C100.794 58.5625 100.633 57.7292 100.633 56.7188C100.633 55.6667 100.81 54.8073 101.164 54.1406C101.518 53.474 102.008 52.9818 102.633 52.6641C103.263 52.3464 103.984 52.1875 104.797 52.1875C105.312 52.1875 105.779 52.2396 106.195 52.3438C106.617 52.4427 106.974 52.5651 107.266 52.7109L106.719 54.1797C106.401 54.0495 106.076 53.9401 105.742 53.8516C105.409 53.763 105.089 53.7188 104.781 53.7188C104.276 53.7188 103.854 53.8307 103.516 54.0547C103.182 54.2786 102.932 54.612 102.766 55.0547C102.604 55.4974 102.523 56.0469 102.523 56.7031C102.523 57.3385 102.607 57.875 102.773 58.3125C102.94 58.7448 103.188 59.0729 103.516 59.2969C103.844 59.5156 104.247 59.625 104.727 59.625C105.201 59.625 105.625 59.5677 106 59.4531C106.375 59.3385 106.729 59.1901 107.062 59.0078V60.6016C106.734 60.7891 106.383 60.9271 106.008 61.0156C105.633 61.1094 105.172 61.1562 104.625 61.1562ZM110.93 48.8438V51.8984C110.93 52.2161 110.919 52.526 110.898 52.8281C110.883 53.1302 110.865 53.3646 110.844 53.5312H110.945C111.128 53.2292 111.352 52.9818 111.617 52.7891C111.883 52.5911 112.18 52.4427 112.508 52.3438C112.841 52.2448 113.195 52.1953 113.57 52.1953C114.232 52.1953 114.794 52.3073 115.258 52.5312C115.721 52.75 116.076 53.0911 116.32 53.5547C116.57 54.0182 116.695 54.6198 116.695 55.3594V61H114.859V55.7031C114.859 55.0312 114.721 54.5286 114.445 54.1953C114.169 53.8568 113.742 53.6875 113.164 53.6875C112.607 53.6875 112.164 53.8047 111.836 54.0391C111.513 54.2682 111.281 54.6094 111.141 55.0625C111 55.5104 110.93 56.0573 110.93 56.7031V61H109.094V48.8438H110.93ZM122.711 52.1875C123.482 52.1875 124.143 52.3464 124.695 52.6641C125.247 52.9818 125.672 53.4323 125.969 54.0156C126.266 54.599 126.414 55.2969 126.414 56.1094V57.0938H120.641C120.661 57.9323 120.885 58.5781 121.312 59.0312C121.745 59.4844 122.349 59.7109 123.125 59.7109C123.677 59.7109 124.172 59.6589 124.609 59.5547C125.052 59.4453 125.508 59.2865 125.977 59.0781V60.5703C125.544 60.7734 125.104 60.9219 124.656 61.0156C124.208 61.1094 123.672 61.1562 123.047 61.1562C122.198 61.1562 121.451 60.9922 120.805 60.6641C120.164 60.3307 119.661 59.8359 119.297 59.1797C118.938 58.5234 118.758 57.7083 118.758 56.7344C118.758 55.7656 118.922 54.9427 119.25 54.2656C119.578 53.5885 120.039 53.0729 120.633 52.7188C121.227 52.3646 121.919 52.1875 122.711 52.1875ZM122.711 53.5703C122.133 53.5703 121.664 53.7578 121.305 54.1328C120.951 54.5078 120.742 55.0573 120.68 55.7812H124.617C124.612 55.349 124.539 54.9661 124.398 54.6328C124.263 54.2995 124.055 54.0391 123.773 53.8516C123.497 53.6641 123.143 53.5703 122.711 53.5703ZM131.969 61.1562C131.151 61.1562 130.443 60.9974 129.844 60.6797C129.245 60.362 128.784 59.875 128.461 59.2188C128.138 58.5625 127.977 57.7292 127.977 56.7188C127.977 55.6667 128.154 54.8073 128.508 54.1406C128.862 53.474 129.352 52.9818 129.977 52.6641C130.607 52.3464 131.328 52.1875 132.141 52.1875C132.656 52.1875 133.122 52.2396 133.539 52.3438C133.961 52.4427 134.318 52.5651 134.609 52.7109L134.062 54.1797C133.745 54.0495 133.419 53.9401 133.086 53.8516C132.753 53.763 132.432 53.7188 132.125 53.7188C131.62 53.7188 131.198 53.8307 130.859 54.0547C130.526 54.2786 130.276 54.612 130.109 55.0547C129.948 55.4974 129.867 56.0469 129.867 56.7031C129.867 57.3385 129.951 57.875 130.117 58.3125C130.284 58.7448 130.531 59.0729 130.859 59.2969C131.188 59.5156 131.591 59.625 132.07 59.625C132.544 59.625 132.969 59.5677 133.344 59.4531C133.719 59.3385 134.073 59.1901 134.406 59.0078V60.6016C134.078 60.7891 133.727 60.9271 133.352 61.0156C132.977 61.1094 132.516 61.1562 131.969 61.1562ZM138.273 48.8438V54.7188C138.273 54.9844 138.263 55.276 138.242 55.5938C138.221 55.9062 138.201 56.2005 138.18 56.4766H138.219C138.354 56.2943 138.516 56.0807 138.703 55.8359C138.896 55.5911 139.078 55.3776 139.25 55.1953L141.891 52.3516H144L140.539 56.0703L144.227 61H142.07L139.305 57.2031L138.273 58.0859V61H136.438V48.8438H138.273ZM151.602 48.8438V51.7734C151.602 52.112 151.591 52.4453 151.57 52.7734C151.555 53.0964 151.539 53.349 151.523 53.5312H151.602C151.836 53.1562 152.161 52.8411 152.578 52.5859C153 52.3255 153.539 52.1953 154.195 52.1953C155.221 52.1953 156.047 52.5729 156.672 53.3281C157.297 54.0781 157.609 55.1901 157.609 56.6641C157.609 57.6432 157.466 58.4661 157.18 59.1328C156.893 59.7995 156.49 60.3047 155.969 60.6484C155.453 60.987 154.846 61.1562 154.148 61.1562C153.492 61.1562 152.961 61.0365 152.555 60.7969C152.154 60.5521 151.839 60.2682 151.609 59.9453H151.477L151.141 61H149.766V48.8438H151.602ZM153.711 53.6875C153.19 53.6875 152.776 53.7917 152.469 54C152.167 54.2083 151.948 54.5208 151.812 54.9375C151.677 55.349 151.607 55.8724 151.602 56.5078V56.6719C151.602 57.6354 151.753 58.3724 152.055 58.8828C152.362 59.3932 152.919 59.6484 153.727 59.6484C154.367 59.6484 154.859 59.3906 155.203 58.875C155.547 58.3542 155.719 57.6094 155.719 56.6406C155.719 55.6615 155.547 54.9245 155.203 54.4297C154.865 53.9349 154.367 53.6875 153.711 53.6875ZM163.125 52.1875C164.219 52.1875 165.044 52.4297 165.602 52.9141C166.164 53.3984 166.445 54.1536 166.445 55.1797V61H165.141L164.789 59.7734H164.727C164.482 60.0859 164.229 60.3438 163.969 60.5469C163.708 60.75 163.406 60.901 163.062 61C162.724 61.1042 162.31 61.1562 161.82 61.1562C161.305 61.1562 160.844 61.0625 160.438 60.875C160.031 60.6823 159.711 60.3906 159.477 60C159.242 59.6094 159.125 59.1146 159.125 58.5156C159.125 57.625 159.456 56.9557 160.117 56.5078C160.784 56.0599 161.789 55.8125 163.133 55.7656L164.633 55.7109V55.2578C164.633 54.6589 164.492 54.2318 164.211 53.9766C163.935 53.7214 163.544 53.5938 163.039 53.5938C162.607 53.5938 162.188 53.6562 161.781 53.7812C161.375 53.9062 160.979 54.0599 160.594 54.2422L160 52.9453C160.422 52.7214 160.901 52.5391 161.438 52.3984C161.979 52.2578 162.542 52.1875 163.125 52.1875ZM164.625 56.8672L163.508 56.9062C162.591 56.9375 161.948 57.0938 161.578 57.375C161.208 57.6562 161.023 58.0417 161.023 58.5312C161.023 58.9583 161.151 59.2708 161.406 59.4688C161.661 59.6615 161.997 59.7578 162.414 59.7578C163.049 59.7578 163.576 59.5781 163.992 59.2188C164.414 58.8542 164.625 58.3203 164.625 57.6172V56.8672ZM172.5 61.1562C171.682 61.1562 170.974 60.9974 170.375 60.6797C169.776 60.362 169.315 59.875 168.992 59.2188C168.669 58.5625 168.508 57.7292 168.508 56.7188C168.508 55.6667 168.685 54.8073 169.039 54.1406C169.393 53.474 169.883 52.9818 170.508 52.6641C171.138 52.3464 171.859 52.1875 172.672 52.1875C173.188 52.1875 173.654 52.2396 174.07 52.3438C174.492 52.4427 174.849 52.5651 175.141 52.7109L174.594 54.1797C174.276 54.0495 173.951 53.9401 173.617 53.8516C173.284 53.763 172.964 53.7188 172.656 53.7188C172.151 53.7188 171.729 53.8307 171.391 54.0547C171.057 54.2786 170.807 54.612 170.641 55.0547C170.479 55.4974 170.398 56.0469 170.398 56.7031C170.398 57.3385 170.482 57.875 170.648 58.3125C170.815 58.7448 171.062 59.0729 171.391 59.2969C171.719 59.5156 172.122 59.625 172.602 59.625C173.076 59.625 173.5 59.5677 173.875 59.4531C174.25 59.3385 174.604 59.1901 174.938 59.0078V60.6016C174.609 60.7891 174.258 60.9271 173.883 61.0156C173.508 61.1094 173.047 61.1562 172.5 61.1562ZM178.805 48.8438V54.7188C178.805 54.9844 178.794 55.276 178.773 55.5938C178.753 55.9062 178.732 56.2005 178.711 56.4766H178.75C178.885 56.2943 179.047 56.0807 179.234 55.8359C179.427 55.5911 179.609 55.3776 179.781 55.1953L182.422 52.3516H184.531L181.07 56.0703L184.758 61H182.602L179.836 57.2031L178.805 58.0859V61H176.969V48.8438H178.805ZM192.141 61H190.297V48.8438H192.141V61ZM198.156 52.1875C199.25 52.1875 200.076 52.4297 200.633 52.9141C201.195 53.3984 201.477 54.1536 201.477 55.1797V61H200.172L199.82 59.7734H199.758C199.513 60.0859 199.26 60.3438 199 60.5469C198.74 60.75 198.438 60.901 198.094 61C197.755 61.1042 197.341 61.1562 196.852 61.1562C196.336 61.1562 195.875 61.0625 195.469 60.875C195.062 60.6823 194.742 60.3906 194.508 60C194.273 59.6094 194.156 59.1146 194.156 58.5156C194.156 57.625 194.487 56.9557 195.148 56.5078C195.815 56.0599 196.82 55.8125 198.164 55.7656L199.664 55.7109V55.2578C199.664 54.6589 199.523 54.2318 199.242 53.9766C198.966 53.7214 198.576 53.5938 198.07 53.5938C197.638 53.5938 197.219 53.6562 196.812 53.7812C196.406 53.9062 196.01 54.0599 195.625 54.2422L195.031 52.9453C195.453 52.7214 195.932 52.5391 196.469 52.3984C197.01 52.2578 197.573 52.1875 198.156 52.1875ZM199.656 56.8672L198.539 56.9062C197.622 56.9375 196.979 57.0938 196.609 57.375C196.24 57.6562 196.055 58.0417 196.055 58.5312C196.055 58.9583 196.182 59.2708 196.438 59.4688C196.693 59.6615 197.029 59.7578 197.445 59.7578C198.081 59.7578 198.607 59.5781 199.023 59.2188C199.445 58.8542 199.656 58.3203 199.656 57.6172V56.8672ZM207.266 59.6719C207.505 59.6719 207.742 59.651 207.977 59.6094C208.211 59.5625 208.424 59.5078 208.617 59.4453V60.8359C208.414 60.9245 208.151 61 207.828 61.0625C207.505 61.125 207.169 61.1562 206.82 61.1562C206.331 61.1562 205.891 61.0755 205.5 60.9141C205.109 60.7474 204.799 60.4635 204.57 60.0625C204.341 59.6615 204.227 59.1068 204.227 58.3984V53.75H203.047V52.9297L204.312 52.2812L204.914 50.4297H206.07V52.3516H208.547V53.75H206.07V58.375C206.07 58.8125 206.18 59.138 206.398 59.3516C206.617 59.5651 206.906 59.6719 207.266 59.6719ZM213.82 52.1875C214.591 52.1875 215.253 52.3464 215.805 52.6641C216.357 52.9818 216.781 53.4323 217.078 54.0156C217.375 54.599 217.523 55.2969 217.523 56.1094V57.0938H211.75C211.771 57.9323 211.995 58.5781 212.422 59.0312C212.854 59.4844 213.458 59.7109 214.234 59.7109C214.786 59.7109 215.281 59.6589 215.719 59.5547C216.161 59.4453 216.617 59.2865 217.086 59.0781V60.5703C216.654 60.7734 216.214 60.9219 215.766 61.0156C215.318 61.1094 214.781 61.1562 214.156 61.1562C213.307 61.1562 212.56 60.9922 211.914 60.6641C211.273 60.3307 210.771 59.8359 210.406 59.1797C210.047 58.5234 209.867 57.7083 209.867 56.7344C209.867 55.7656 210.031 54.9427 210.359 54.2656C210.688 53.5885 211.148 53.0729 211.742 52.7188C212.336 52.3646 213.029 52.1875 213.82 52.1875ZM213.82 53.5703C213.242 53.5703 212.773 53.7578 212.414 54.1328C212.06 54.5078 211.852 55.0573 211.789 55.7812H215.727C215.721 55.349 215.648 54.9661 215.508 54.6328C215.372 54.2995 215.164 54.0391 214.883 53.8516C214.607 53.6641 214.253 53.5703 213.82 53.5703ZM223.977 52.1875C224.122 52.1875 224.281 52.1953 224.453 52.2109C224.625 52.2266 224.773 52.2474 224.898 52.2734L224.727 53.9922C224.617 53.9609 224.482 53.9375 224.32 53.9219C224.164 53.9062 224.023 53.8984 223.898 53.8984C223.57 53.8984 223.258 53.9531 222.961 54.0625C222.664 54.1667 222.401 54.3281 222.172 54.5469C221.943 54.7604 221.763 55.0286 221.633 55.3516C221.503 55.6745 221.438 56.0495 221.438 56.4766V61H219.594V52.3516H221.031L221.281 53.875H221.367C221.539 53.5677 221.753 53.2865 222.008 53.0312C222.263 52.776 222.555 52.5729 222.883 52.4219C223.216 52.2656 223.581 52.1875 223.977 52.1875Z" fill="#A1A1A1"/>
</svg>
