<svg width="263" height="25" viewBox="0 0 263 25" fill="none" xmlns="http://www.w3.org/2000/svg">
<path d="M15.3555 19H10.7383L3.28516 6.03906H3.17969C3.21094 6.57812 3.23828 7.12109 3.26172 7.66797C3.28516 8.21484 3.30859 8.76172 3.33203 9.30859C3.35547 9.84766 3.37891 10.3906 3.40234 10.9375V19H0.15625V1.86719H4.73828L12.1797 14.6992H12.2617C12.2461 14.168 12.2266 13.6406 12.2031 13.1172C12.1797 12.5938 12.1562 12.0703 12.1328 11.5469C12.1172 11.0234 12.1016 10.5 12.0859 9.97656V1.86719H15.3555V19ZM31.3047 12.4258C31.3047 13.5195 31.1562 14.4883 30.8594 15.332C30.5703 16.1758 30.1445 16.8906 29.582 17.4766C29.0273 18.0547 28.3555 18.4922 27.5664 18.7891C26.7852 19.0859 25.9023 19.2344 24.918 19.2344C23.9961 19.2344 23.1484 19.0859 22.375 18.7891C21.6094 18.4922 20.9414 18.0547 20.3711 17.4766C19.8086 16.8906 19.3711 16.1758 19.0586 15.332C18.7539 14.4883 18.6016 13.5195 18.6016 12.4258C18.6016 10.9727 18.8594 9.74219 19.375 8.73438C19.8906 7.72656 20.625 6.96094 21.5781 6.4375C22.5312 5.91406 23.668 5.65234 24.9883 5.65234C26.2148 5.65234 27.3008 5.91406 28.2461 6.4375C29.1992 6.96094 29.9453 7.72656 30.4844 8.73438C31.0312 9.74219 31.3047 10.9727 31.3047 12.4258ZM22.2461 12.4258C22.2461 13.2852 22.3398 14.0078 22.5273 14.5938C22.7148 15.1797 23.0078 15.6211 23.4062 15.918C23.8047 16.2148 24.3242 16.3633 24.9648 16.3633C25.5977 16.3633 26.1094 16.2148 26.5 15.918C26.8984 15.6211 27.1875 15.1797 27.3672 14.5938C27.5547 14.0078 27.6484 13.2852 27.6484 12.4258C27.6484 11.5586 27.5547 10.8398 27.3672 10.2695C27.1875 9.69141 26.8984 9.25781 26.5 8.96875C26.1016 8.67969 25.582 8.53516 24.9414 8.53516C23.9961 8.53516 23.3086 8.85938 22.8789 9.50781C22.457 10.1562 22.2461 11.1289 22.2461 12.4258ZM48.0508 4.64453C47.3555 4.64453 46.7383 4.78125 46.1992 5.05469C45.668 5.32031 45.2188 5.70703 44.8516 6.21484C44.4922 6.72266 44.2188 7.33594 44.0312 8.05469C43.8438 8.77344 43.75 9.58203 43.75 10.4805C43.75 11.6914 43.8984 12.7266 44.1953 13.5859C44.5 14.4375 44.9688 15.0898 45.6016 15.543C46.2344 15.9883 47.0508 16.2109 48.0508 16.2109C48.7461 16.2109 49.4414 16.1328 50.1367 15.9766C50.8398 15.8203 51.6016 15.5977 52.4219 15.3086V18.3555C51.6641 18.668 50.918 18.8906 50.1836 19.0234C49.4492 19.1641 48.625 19.2344 47.7109 19.2344C45.9453 19.2344 44.4922 18.8711 43.3516 18.1445C42.2188 17.4102 41.3789 16.3867 40.832 15.0742C40.2852 13.7539 40.0117 12.2148 40.0117 10.457C40.0117 9.16016 40.1875 7.97266 40.5391 6.89453C40.8906 5.81641 41.4062 4.88281 42.0859 4.09375C42.7656 3.30469 43.6055 2.69531 44.6055 2.26562C45.6055 1.83594 46.7539 1.62109 48.0508 1.62109C48.9023 1.62109 49.7539 1.73047 50.6055 1.94922C51.4648 2.16016 52.2852 2.45312 53.0664 2.82812L51.8945 5.78125C51.2539 5.47656 50.6094 5.21094 49.9609 4.98438C49.3125 4.75781 48.6758 4.64453 48.0508 4.64453ZM67.8203 5.89844V19H65.0781L64.5977 17.3242H64.4102C64.1289 17.7695 63.7773 18.1328 63.3555 18.4141C62.9336 18.6953 62.4688 18.9023 61.9609 19.0352C61.4531 19.168 60.9258 19.2344 60.3789 19.2344C59.4414 19.2344 58.625 19.0703 57.9297 18.7422C57.2344 18.4062 56.6914 17.8867 56.3008 17.1836C55.918 16.4805 55.7266 15.5664 55.7266 14.4414V5.89844H59.3008V13.5508C59.3008 14.4883 59.4688 15.1953 59.8047 15.6719C60.1406 16.1484 60.6758 16.3867 61.4102 16.3867C62.1367 16.3867 62.707 16.2227 63.1211 15.8945C63.5352 15.5586 63.8242 15.0703 63.9883 14.4297C64.1602 13.7812 64.2461 12.9922 64.2461 12.0625V5.89844H67.8203ZM78.8828 5.65234C79.0625 5.65234 79.2695 5.66406 79.5039 5.6875C79.7461 5.70312 79.9414 5.72656 80.0898 5.75781L79.8203 9.10938C79.7031 9.07031 79.5352 9.04297 79.3164 9.02734C79.1055 9.00391 78.9219 8.99219 78.7656 8.99219C78.3047 8.99219 77.8555 9.05078 77.418 9.16797C76.9883 9.28516 76.6016 9.47656 76.2578 9.74219C75.9141 10 75.6406 10.3438 75.4375 10.7734C75.2422 11.1953 75.1445 11.7148 75.1445 12.332V19H71.5703V5.89844H74.2773L74.8047 8.10156H74.9805C75.2383 7.65625 75.5586 7.25 75.9414 6.88281C76.332 6.50781 76.7734 6.21094 77.2656 5.99219C77.7656 5.76562 78.3047 5.65234 78.8828 5.65234ZM89.7812 5.65234C89.9609 5.65234 90.168 5.66406 90.4023 5.6875C90.6445 5.70312 90.8398 5.72656 90.9883 5.75781L90.7188 9.10938C90.6016 9.07031 90.4336 9.04297 90.2148 9.02734C90.0039 9.00391 89.8203 8.99219 89.6641 8.99219C89.2031 8.99219 88.7539 9.05078 88.3164 9.16797C87.8867 9.28516 87.5 9.47656 87.1562 9.74219C86.8125 10 86.5391 10.3438 86.3359 10.7734C86.1406 11.1953 86.043 11.7148 86.043 12.332V19H82.4688V5.89844H85.1758L85.7031 8.10156H85.8789C86.1367 7.65625 86.457 7.25 86.8398 6.88281C87.2305 6.50781 87.6719 6.21094 88.1641 5.99219C88.6641 5.76562 89.2031 5.65234 89.7812 5.65234ZM98.7695 5.65234C99.9805 5.65234 101.023 5.88672 101.898 6.35547C102.773 6.81641 103.449 7.48828 103.926 8.37109C104.402 9.25391 104.641 10.332 104.641 11.6055V13.3398H96.1914C96.2305 14.3477 96.5312 15.1406 97.0938 15.7188C97.6641 16.2891 98.4531 16.5742 99.4609 16.5742C100.297 16.5742 101.062 16.4883 101.758 16.3164C102.453 16.1445 103.168 15.8867 103.902 15.543V18.3086C103.254 18.6289 102.574 18.8633 101.863 19.0117C101.16 19.1602 100.305 19.2344 99.2969 19.2344C97.9844 19.2344 96.8203 18.9922 95.8047 18.5078C94.7969 18.0234 94.0039 17.2852 93.4258 16.293C92.8555 15.3008 92.5703 14.0508 92.5703 12.543C92.5703 11.0117 92.8281 9.73828 93.3438 8.72266C93.8672 7.69922 94.5938 6.93359 95.5234 6.42578C96.4531 5.91016 97.5352 5.65234 98.7695 5.65234ZM98.793 8.19531C98.0977 8.19531 97.5195 8.41797 97.0586 8.86328C96.6055 9.30859 96.3438 10.0078 96.2734 10.9609H101.289C101.281 10.4297 101.184 9.95703 100.996 9.54297C100.816 9.12891 100.543 8.80078 100.176 8.55859C99.8164 8.31641 99.3555 8.19531 98.793 8.19531ZM114.988 5.65234C116.387 5.65234 117.512 6.03516 118.363 6.80078C119.215 7.55859 119.641 8.77734 119.641 10.457V19H116.066V11.3477C116.066 10.4102 115.895 9.70312 115.551 9.22656C115.215 8.75 114.684 8.51172 113.957 8.51172C112.863 8.51172 112.117 8.88281 111.719 9.625C111.32 10.3672 111.121 11.4375 111.121 12.8359V19H107.547V5.89844H110.277L110.758 7.57422H110.957C111.238 7.12109 111.586 6.75391 112 6.47266C112.422 6.19141 112.887 5.98438 113.395 5.85156C113.91 5.71875 114.441 5.65234 114.988 5.65234ZM128.84 16.3867C129.23 16.3867 129.609 16.3477 129.977 16.2695C130.352 16.1914 130.723 16.0938 131.09 15.9766V18.6367C130.707 18.8086 130.23 18.9492 129.66 19.0586C129.098 19.1758 128.48 19.2344 127.809 19.2344C127.027 19.2344 126.324 19.1094 125.699 18.8594C125.082 18.6016 124.594 18.1602 124.234 17.5352C123.883 16.9023 123.707 16.0234 123.707 14.8984V8.58203H121.996V7.07031L123.965 5.875L124.996 3.10938H127.281V5.89844H130.949V8.58203H127.281V14.8984C127.281 15.3984 127.422 15.7734 127.703 16.0234C127.992 16.2656 128.371 16.3867 128.84 16.3867ZM140.266 19V1.86719H143.898V19H140.266ZM155.371 5.65234C156.77 5.65234 157.895 6.03516 158.746 6.80078C159.598 7.55859 160.023 8.77734 160.023 10.457V19H156.449V11.3477C156.449 10.4102 156.277 9.70312 155.934 9.22656C155.598 8.75 155.066 8.51172 154.34 8.51172C153.246 8.51172 152.5 8.88281 152.102 9.625C151.703 10.3672 151.504 11.4375 151.504 12.8359V19H147.93V5.89844H150.66L151.141 7.57422H151.34C151.621 7.12109 151.969 6.75391 152.383 6.47266C152.805 6.19141 153.27 5.98438 153.777 5.85156C154.293 5.71875 154.824 5.65234 155.371 5.65234ZM169.223 16.3867C169.613 16.3867 169.992 16.3477 170.359 16.2695C170.734 16.1914 171.105 16.0938 171.473 15.9766V18.6367C171.09 18.8086 170.613 18.9492 170.043 19.0586C169.48 19.1758 168.863 19.2344 168.191 19.2344C167.41 19.2344 166.707 19.1094 166.082 18.8594C165.465 18.6016 164.977 18.1602 164.617 17.5352C164.266 16.9023 164.09 16.0234 164.09 14.8984V8.58203H162.379V7.07031L164.348 5.875L165.379 3.10938H167.664V5.89844H171.332V8.58203H167.664V14.8984C167.664 15.3984 167.805 15.7734 168.086 16.0234C168.375 16.2656 168.754 16.3867 169.223 16.3867ZM179.535 5.65234C180.746 5.65234 181.789 5.88672 182.664 6.35547C183.539 6.81641 184.215 7.48828 184.691 8.37109C185.168 9.25391 185.406 10.332 185.406 11.6055V13.3398H176.957C176.996 14.3477 177.297 15.1406 177.859 15.7188C178.43 16.2891 179.219 16.5742 180.227 16.5742C181.062 16.5742 181.828 16.4883 182.523 16.3164C183.219 16.1445 183.934 15.8867 184.668 15.543V18.3086C184.02 18.6289 183.34 18.8633 182.629 19.0117C181.926 19.1602 181.07 19.2344 180.062 19.2344C178.75 19.2344 177.586 18.9922 176.57 18.5078C175.562 18.0234 174.77 17.2852 174.191 16.293C173.621 15.3008 173.336 14.0508 173.336 12.543C173.336 11.0117 173.594 9.73828 174.109 8.72266C174.633 7.69922 175.359 6.93359 176.289 6.42578C177.219 5.91016 178.301 5.65234 179.535 5.65234ZM179.559 8.19531C178.863 8.19531 178.285 8.41797 177.824 8.86328C177.371 9.30859 177.109 10.0078 177.039 10.9609H182.055C182.047 10.4297 181.949 9.95703 181.762 9.54297C181.582 9.12891 181.309 8.80078 180.941 8.55859C180.582 8.31641 180.121 8.19531 179.559 8.19531ZM195.625 5.65234C195.805 5.65234 196.012 5.66406 196.246 5.6875C196.488 5.70312 196.684 5.72656 196.832 5.75781L196.562 9.10938C196.445 9.07031 196.277 9.04297 196.059 9.02734C195.848 9.00391 195.664 8.99219 195.508 8.99219C195.047 8.99219 194.598 9.05078 194.16 9.16797C193.73 9.28516 193.344 9.47656 193 9.74219C192.656 10 192.383 10.3438 192.18 10.7734C191.984 11.1953 191.887 11.7148 191.887 12.332V19H188.312V5.89844H191.02L191.547 8.10156H191.723C191.98 7.65625 192.301 7.25 192.684 6.88281C193.074 6.50781 193.516 6.21094 194.008 5.99219C194.508 5.76562 195.047 5.65234 195.625 5.65234ZM206.652 5.65234C208.051 5.65234 209.176 6.03516 210.027 6.80078C210.879 7.55859 211.305 8.77734 211.305 10.457V19H207.73V11.3477C207.73 10.4102 207.559 9.70312 207.215 9.22656C206.879 8.75 206.348 8.51172 205.621 8.51172C204.527 8.51172 203.781 8.88281 203.383 9.625C202.984 10.3672 202.785 11.4375 202.785 12.8359V19H199.211V5.89844H201.941L202.422 7.57422H202.621C202.902 7.12109 203.25 6.75391 203.664 6.47266C204.086 6.19141 204.551 5.98438 205.059 5.85156C205.574 5.71875 206.105 5.65234 206.652 5.65234ZM224.125 15.1094C224.125 16 223.914 16.7539 223.492 17.3711C223.078 17.9805 222.457 18.4453 221.629 18.7656C220.801 19.0781 219.77 19.2344 218.535 19.2344C217.621 19.2344 216.836 19.1758 216.18 19.0586C215.531 18.9414 214.875 18.7461 214.211 18.4727V15.5195C214.922 15.8398 215.684 16.1055 216.496 16.3164C217.316 16.5195 218.035 16.6211 218.652 16.6211C219.348 16.6211 219.844 16.5195 220.141 16.3164C220.445 16.1055 220.598 15.832 220.598 15.4961C220.598 15.2773 220.535 15.082 220.41 14.9102C220.293 14.7305 220.035 14.5312 219.637 14.3125C219.238 14.0859 218.613 13.793 217.762 13.4336C216.941 13.0898 216.266 12.7422 215.734 12.3906C215.211 12.0391 214.82 11.625 214.562 11.1484C214.312 10.6641 214.188 10.0508 214.188 9.30859C214.188 8.09766 214.656 7.1875 215.594 6.57812C216.539 5.96094 217.801 5.65234 219.379 5.65234C220.191 5.65234 220.965 5.73438 221.699 5.89844C222.441 6.0625 223.203 6.32422 223.984 6.68359L222.906 9.26172C222.258 8.98047 221.645 8.75 221.066 8.57031C220.496 8.39062 219.914 8.30078 219.32 8.30078C218.797 8.30078 218.402 8.37109 218.137 8.51172C217.871 8.65234 217.738 8.86719 217.738 9.15625C217.738 9.36719 217.805 9.55469 217.938 9.71875C218.078 9.88281 218.344 10.0664 218.734 10.2695C219.133 10.4648 219.715 10.7188 220.48 11.0312C221.223 11.3359 221.867 11.6562 222.414 11.9922C222.961 12.3203 223.383 12.7305 223.68 13.2227C223.977 13.707 224.125 14.3359 224.125 15.1094ZM230.488 0.765625V4.48047C230.488 5.12891 230.465 5.74609 230.418 6.33203C230.379 6.91797 230.348 7.33203 230.324 7.57422H230.512C230.793 7.12109 231.125 6.75391 231.508 6.47266C231.898 6.19141 232.328 5.98438 232.797 5.85156C233.266 5.71875 233.77 5.65234 234.309 5.65234C235.254 5.65234 236.078 5.82031 236.781 6.15625C237.484 6.48438 238.031 7.00391 238.422 7.71484C238.812 8.41797 239.008 9.33203 239.008 10.457V19H235.434V11.3477C235.434 10.4102 235.262 9.70312 234.918 9.22656C234.574 8.75 234.043 8.51172 233.324 8.51172C232.605 8.51172 232.039 8.67969 231.625 9.01562C231.211 9.34375 230.918 9.83203 230.746 10.4805C230.574 11.1211 230.488 11.9062 230.488 12.8359V19H226.914V0.765625H230.488ZM246.262 5.89844V19H242.688V5.89844H246.262ZM244.48 0.765625C245.012 0.765625 245.469 0.890625 245.852 1.14062C246.234 1.38281 246.426 1.83984 246.426 2.51172C246.426 3.17578 246.234 3.63672 245.852 3.89453C245.469 4.14453 245.012 4.26953 244.48 4.26953C243.941 4.26953 243.48 4.14453 243.098 3.89453C242.723 3.63672 242.535 3.17578 242.535 2.51172C242.535 1.83984 242.723 1.38281 243.098 1.14062C243.48 0.890625 243.941 0.765625 244.48 0.765625ZM257.312 5.65234C258.789 5.65234 259.98 6.22656 260.887 7.375C261.801 8.52344 262.258 10.207 262.258 12.4258C262.258 13.9102 262.043 15.1602 261.613 16.1758C261.184 17.1836 260.59 17.9453 259.832 18.4609C259.074 18.9766 258.203 19.2344 257.219 19.2344C256.586 19.2344 256.043 19.1562 255.59 19C255.137 18.8359 254.75 18.6289 254.43 18.3789C254.109 18.1211 253.832 17.8477 253.598 17.5586H253.41C253.473 17.8711 253.52 18.1914 253.551 18.5195C253.582 18.8477 253.598 19.168 253.598 19.4805V24.7656H250.023V5.89844H252.93L253.434 7.59766H253.598C253.832 7.24609 254.117 6.92188 254.453 6.625C254.789 6.32812 255.191 6.09375 255.66 5.92188C256.137 5.74219 256.688 5.65234 257.312 5.65234ZM256.164 8.51172C255.539 8.51172 255.043 8.64062 254.676 8.89844C254.309 9.15625 254.039 9.54297 253.867 10.0586C253.703 10.5742 253.613 11.2266 253.598 12.0156V12.4023C253.598 13.2461 253.676 13.9609 253.832 14.5469C253.996 15.1328 254.266 15.5781 254.641 15.8828C255.023 16.1875 255.547 16.3398 256.211 16.3398C256.758 16.3398 257.207 16.1875 257.559 15.8828C257.91 15.5781 258.172 15.1328 258.344 14.5469C258.523 13.9531 258.613 13.2305 258.613 12.3789C258.613 11.0977 258.414 10.1328 258.016 9.48438C257.617 8.83594 257 8.51172 256.164 8.51172Z" fill="#080808"/>
</svg>
